<?xml version="1.0" encoding="UTF-8"?>
<svg width="687px" height="394px" viewBox="0 0 687 394" version="1.1" xmlns="http://www.w3.org/2000/svg" xmlns:xlink="http://www.w3.org/1999/xlink" style="background: #FFFFFF;">
    <!-- Generator: Sketch 42 (36781) - http://www.bohemiancoding.com/sketch -->
    <title>Artboard 9</title>
    <desc>Created with Sketch.</desc>
    <defs>
        <rect id="path-1" x="73" y="45" width="162" height="21"></rect>
        <mask id="mask-2" maskContentUnits="userSpaceOnUse" maskUnits="objectBoundingBox" x="0" y="0" width="162" height="21" fill="white">
            <use xlink:href="#path-1"></use>
        </mask>
        <rect id="path-3" x="471" y="29" width="49" height="21"></rect>
        <mask id="mask-4" maskContentUnits="userSpaceOnUse" maskUnits="objectBoundingBox" x="0" y="0" width="49" height="21" fill="white">
            <use xlink:href="#path-3"></use>
        </mask>
        <rect id="path-5" x="252" y="354" width="80" height="21"></rect>
        <mask id="mask-6" maskContentUnits="userSpaceOnUse" maskUnits="objectBoundingBox" x="0" y="0" width="80" height="21" fill="white">
            <use xlink:href="#path-5"></use>
        </mask>
    </defs>
    <g id="Page-1" stroke="none" stroke-width="1" fill="none" fill-rule="evenodd">
        <g id="Artboard-9">
            <polygon id="Path-19" fill="#3B5BDB" transform="translate(481.971866, 211.095045) rotate(-195.000000) translate(-481.971866, -211.095045) " points="354.235794 192.78395 605.563342 160.977272 609.707939 164.599262 364.439019 195.517895 469.205401 260.244578 463.877799 261.212818"></polygon>
            <polygon id="Path-19" fill="#3B5BDB" transform="translate(309.390901, 165.005731) rotate(-195.000000) translate(-309.390901, -165.005731) " points="243.084774 196.615952 475.45416 181.47025 467.111072 177.60507 243.95691 191.673259 148.655243 133.395509 143.327641 134.36375"></polygon>
            <polygon id="Path-19" fill="#BAC8FF" transform="translate(309.390901, 175.005731) rotate(-195.000000) translate(-309.390901, -175.005731) " points="243.084774 206.615952 475.45416 191.47025 467.111072 187.60507 243.95691 201.673259 148.655243 143.395509 143.327641 144.36375"></polygon>
            <polygon id="Path-19" fill="#3B5BDB" transform="translate(163.000000, 239.005725) rotate(-144.000000) translate(-163.000000, -239.005725) " points="66.7850597 228.528078 259.21494 191.476437 198.988832 284.088215 191.173747 286.535014 248.974544 198.91652 72.1495099 233.644326"></polygon>
            <polygon id="Path-19" fill="#3B5BDB" transform="translate(163.000000, 239.005725) rotate(-144.000000) translate(-163.000000, -239.005725) " points="66.7850597 228.528078 259.21494 191.476437 198.988832 284.088215 191.173747 286.535014 248.974544 198.91652 72.1495099 233.644326"></polygon>
            <polygon id="Path-19" fill="#3B5BDB" transform="translate(191.000000, 239.005725) rotate(-144.000000) translate(-191.000000, -239.005725) " points="94.7850597 228.528078 287.21494 191.476437 226.988832 284.088215 219.173747 286.535014 276.974544 198.91652 100.14951 233.644326"></polygon>
            <polygon id="Path-19" fill="#BAC8FF" transform="translate(191.000000, 239.005725) rotate(-144.000000) translate(-191.000000, -239.005725) " points="94.7850597 228.528078 287.21494 191.476437 226.988832 284.088215 219.173747 286.535014 276.974544 198.91652 100.14951 233.644326"></polygon>
            <polygon id="Rectangle-40" fill="#343A40" transform="translate(169.601467, 191.862952) rotate(-15.000000) translate(-169.601467, -191.862952) " points="87.0154725 166.860775 193.270508 165.475705 252.187461 211.248017 149.778336 218.250199"></polygon>
            <polygon id="Rectangle-40" fill="#343A40" transform="translate(490.963961, 152.834656) rotate(-15.000000) translate(-490.963961, -152.834656) " points="387.666708 126.453313 501.844183 115.843258 594.261214 172.492659 474.23111 189.826054"></polygon>
            <polygon id="Rectangle-23" fill="#212529" points="112 107 214 78 214 154 112 183"></polygon>
            <polygon id="Rectangle-23" fill="#495057" points="119 111 208 86 208 148 119 175"></polygon>
            <path d="M152,122.766406 C152,121.664611 152.861472,120.527676 153.915794,120.229356 L181.084206,112.542073 C182.14227,112.242694 183,112.888443 183,113.994978 L183,145.233594 C183,146.335389 182.138528,147.472324 181.084206,147.770644 L153.915794,155.457927 C152.85773,155.757306 152,155.111557 152,154.005022 L152,122.766406 Z" id="Rectangle-23" fill="#F1F3F5"></path>
            <path d="M296,116.297018 C296,115.195236 296.861472,114.058311 297.915794,113.759992 L325.084206,106.072708 C326.14227,105.77333 327,106.425933 327,107.52559 L327,123.764253 C327,124.866036 326.138528,126.00296 325.084206,126.30128 L297.915794,133.988563 C296.85773,134.287941 296,133.635338 296,132.535682 L296,116.297018 Z" id="Rectangle-23" fill="#E9ECEF"></path>
            <polygon id="Rectangle-23" fill="#343A40" points="296 120.302064 327 111.530636 327 115.759207 296 124.530636"></polygon>
            <polygon id="Rectangle-23" fill="#22B8CF" points="158 144.309206 179 138.537778 179 144.766349 158 150.537778"></polygon>
            <polygon id="Rectangle-39" fill="#868E96" points="103 103 112 107 112 184 103 180"></polygon>
            <polygon id="Rectangle-39" fill="#868E96" points="103 179 154 201 154 211 103 188"></polygon>
            <polygon id="Rectangle-40" fill="#CED4DA" transform="translate(183.156085, 177.494052) rotate(-15.000000) translate(-183.156085, -177.494052) " points="113.043171 164.638202 219.304967 161.308998 253.268999 187.194562 148.928022 193.679106"></polygon>
            <path d="M102.297988,88.2596866 L206.792377,85.6226274 L216.559214,93.3923813 C216.559214,93.3923813 111.799194,95.8428327 110.87247,95.1006775 C109.945745,94.3585223 102.297988,88.2596866 102.297988,88.2596866 Z" id="Rectangle-40" fill="#CED4DA" transform="translate(159.428601, 90.431648) rotate(-15.000000) translate(-159.428601, -90.431648) "></path>
            <polygon id="Rectangle-23" fill="#ADB5BD" points="154 202 253 168 253 177 154 211"></polygon>
            <polygon id="Rectangle-40" fill="#0B7285" transform="translate(489.680880, 117.892866) rotate(-15.000000) translate(-489.680880, -117.892866) " points="411.397819 99.1516201 505.809687 93.6825138 567.96394 132.771665 474.248147 142.103218"></polygon>
            <g id="Group" transform="translate(408.000000, 111.000000)">
                <g id="Group-2">
                    <polygon id="Path-18" fill="#22B8CF" points="161.530213 0.941549002 161.530213 33.3107581 73.2041923 68.6525443 73.2041923 33.3730436"></polygon>
                    <polygon id="Path-18" fill="#15AABF" transform="translate(37.067421, 38.794477) scale(-1, 1) translate(-37.067421, -38.794477) " points="73.4643733 8.83532887 73.4643733 40.4118398 0.670468278 68.753626 0.670468278 33.4741253"></polygon>
                </g>
            </g>
            <g id="Group" transform="translate(407.000000, 38.000000)">
                <polygon id="Rectangle-40" fill="#3BC9DB" transform="translate(82.863892, 43.709853) rotate(-15.000000) translate(-82.863892, -43.709853) " points="4.09786924 26.0639427 98.5097367 20.5948365 161.629916 59.9428062 66.4999094 66.8248697"></polygon>
                <polygon id="Path-18" fill="#22B8CF" points="162.530213 38.941549 162.530213 71.3107581 74.2041923 103.652544 74.2041923 68.3730436"></polygon>
                <polygon id="Path-18" fill="#15AABF" transform="translate(38.067421, 75.294477) scale(-1, 1) translate(-38.067421, -75.294477) " points="74.4643733 46.8353289 74.4643733 78.4118398 1.67046828 103.753626 1.67046828 68.4741253"></polygon>
                <path d="M62.5652727,76.1524198 C63.614117,75.8222289 64.4643733,76.4437234 64.4643733,77.5446295 L64.4643733,85.140994 C64.4643733,86.2400811 63.6085256,87.3730904 62.5428052,87.6744631 L57.111993,89.2102301 C56.0507403,89.5103394 55.1904249,88.849644 55.1904249,87.7630421 L55.1904249,80.4647092 C55.1904249,79.36534 56.0462727,78.2046924 57.0895255,77.8762618 L62.5652727,76.1524198 Z" id="Path-18" fill="#63E6BE" transform="translate(59.827399, 82.673289) scale(-1, 1) translate(-59.827399, -82.673289) "></path>
            </g>
            <path d="M469.565273,150.15242 C470.614117,149.822229 471.464373,150.443723 471.464373,151.544629 L471.464373,159.140994 C471.464373,160.240081 470.608526,161.37309 469.542805,161.674463 L464.111993,163.21023 C463.05074,163.510339 462.190425,162.849644 462.190425,161.763042 L462.190425,154.464709 C462.190425,153.36534 463.046273,152.204692 464.089526,151.876262 L469.565273,150.15242 Z" id="Path-18" fill="#63E6BE" transform="translate(466.827399, 156.673289) scale(-1, 1) translate(-466.827399, -156.673289) "></path>
            <polygon id="Rectangle-40" fill="#343A40" transform="translate(302.780529, 309.461089) rotate(-15.000000) translate(-302.780529, -309.461089) " points="197.197871 285.270417 310.927058 272.469691 408.363187 333.569784 283.313985 346.452487"></polygon>
            <g id="Group-3" transform="translate(216.000000, 231.000000)">
                <polygon id="Rectangle-40" fill="#DEE2E6" transform="translate(82.853164, 43.415916) rotate(-15.000000) translate(-82.853164, -43.415916) " points="4.08714074 25.7700057 98.4990082 20.3008994 161.619187 59.6488692 66.4891809 66.5309326"></polygon>
                <polygon id="Path-18" fill="#ADB5BD" points="163.114442 38.7023776 163.114442 71.0715867 74.7884214 103.413373 74.7884214 68.1338722"></polygon>
                <polygon id="Path-18" fill="#ADB5BD" transform="translate(38.185374, 75.161526) scale(-1, 1) translate(-38.185374, -75.161526) " points="74.5823264 46.7023776 74.5823264 78.2788885 1.78842137 103.620675 1.78842137 68.341174"></polygon>
                <path d="M63.1632692,75.7909384 C64.2121135,75.4607475 65.0623698,76.0822421 65.0623698,77.1831481 L65.0623698,84.7795126 C65.0623698,85.8785997 64.206522,87.0116091 63.1408017,87.3129817 L57.7099895,88.8487487 C56.6487367,89.148858 55.7884214,88.4881626 55.7884214,87.4015607 L55.7884214,80.1032278 C55.7884214,79.0038587 56.6442692,77.843211 57.687522,77.5147804 L63.1632692,75.7909384 Z" id="Path-18" fill="#FAB005" transform="translate(60.425396, 82.311807) scale(-1, 1) translate(-60.425396, -82.311807) "></path>
            </g>
            <g id="Group-7" transform="translate(70.000000, 121.000000)">
                <circle id="Oval-10" fill="#20C997" cx="13" cy="13" r="13"></circle>
                <text id="1" font-family="SourceSansPro-Semibold, Source Sans Pro" font-size="16" font-weight="500" fill="#FFFFFF">
                    <tspan x="9" y="18">1</tspan>
                </text>
            </g>
            <g id="Group-5" transform="translate(204.000000, 103.000000)">
                <circle id="Oval-10" fill="#20C997" cx="13" cy="13" r="13"></circle>
                <text id="2" font-family="SourceSansPro-Semibold, Source Sans Pro" font-size="16" font-weight="500" fill="#FFFFFF">
                    <tspan x="9" y="18">2</tspan>
                </text>
            </g>
            <g id="Group-6" transform="translate(309.000000, 74.000000)">
                <circle id="Oval-10" fill="#20C997" cx="13" cy="13" r="13"></circle>
                <text id="3" font-family="SourceSansPro-Semibold, Source Sans Pro" font-size="16" font-weight="500" fill="#FFFFFF">
                    <tspan x="9" y="18">3</tspan>
                </text>
            </g>
            <g id="Group-4" transform="translate(108.000000, 267.000000)">
                <circle id="Oval-10" fill="#20C997" cx="13" cy="13" r="13"></circle>
                <text id="4" font-family="SourceSansPro-Semibold, Source Sans Pro" font-size="16" font-weight="500" fill="#FFFFFF">
                    <tspan x="9" y="18">4</tspan>
                </text>
            </g>
            <g id="Group-4" transform="translate(436.000000, 218.000000)">
                <circle id="Oval-10" fill="#20C997" cx="13" cy="13" r="13"></circle>
                <text id="5" font-family="SourceSansPro-Semibold, Source Sans Pro" font-size="16" font-weight="500" fill="#FFFFFF">
                    <tspan x="9" y="18">5</tspan>
                </text>
            </g>
            <g id="Group-4" transform="translate(183.000000, 231.000000)">
                <circle id="Oval-10" fill="#20C997" cx="13" cy="13" r="13"></circle>
                <text id="6" font-family="SourceSansPro-Semibold, Source Sans Pro" font-size="16" font-weight="500" fill="#FFFFFF">
                    <tspan x="9" y="18">6</tspan>
                </text>
            </g>
            <use id="Rectangle-44" stroke="#DEE2E6" mask="url(#mask-2)" stroke-width="2" fill="#F8F9FA" xlink:href="#path-1"></use>
            <text id="Sitio-web-o-Aplicaci" font-family="SourceSansPro-Semibold, Source Sans Pro" font-size="12" font-weight="500" fill="#495057">
                <tspan x="83" y="59">Sitio web o Aplicación Móvil</tspan>
            </text>
            <use id="Rectangle-44" stroke="#DEE2E6" mask="url(#mask-4)" stroke-width="2" fill="#F8F9FA" xlink:href="#path-3"></use>
            <text id="CULQI" font-family="SourceSansPro-Semibold, Source Sans Pro" font-size="12" font-weight="500" fill="#495057">
                <tspan x="479" y="43">CULQI</tspan>
            </text>
            <use id="Rectangle-44" stroke="#DEE2E6" mask="url(#mask-6)" stroke-width="2" fill="#F8F9FA" xlink:href="#path-5"></use>
            <text id="Tu-Servidor" font-family="SourceSansPro-Semibold, Source Sans Pro" font-size="12" font-weight="500" fill="#495057">
                <tspan x="262" y="368">Tu Servidor</tspan>
            </text>
        </g>
    </g>
</svg>