<?xml version="1.0" encoding="utf-8"?>
<!-- Generator: Adobe Illustrator 23.0.1, SVG Export Plug-In . SVG Version: 6.00 Build 0)  -->
<svg version="1.1" id="Capa_1" xmlns="http://www.w3.org/2000/svg" xmlns:xlink="http://www.w3.org/1999/xlink" x="0px" y="0px"
	 viewBox="0 0 254 200" style="enable-background:new 0 0 254 200;" xml:space="preserve">
<style type="text/css">
	.st0{fill-rule:evenodd;clip-rule:evenodd;fill:#685BC7;}
	.st1{clip-path:url(#SVGID_2_);}
	.st2{clip-path:url(#SVGID_4_);}
	.st3{clip-path:url(#SVGID_6_);fill:#A7A4E0;}
	.st4{clip-path:url(#SVGID_8_);}
	.st5{clip-path:url(#SVGID_10_);enable-background:new    ;}
	.st6{clip-path:url(#SVGID_12_);}
	.st7{clip-path:url(#SVGID_14_);}
	.st8{clip-path:url(#SVGID_16_);fill:#FFFFFF;}
	.st9{clip-path:url(#SVGID_18_);}
	.st10{clip-path:url(#SVGID_20_);fill:#CDEBF1;}
	.st11{clip-path:url(#SVGID_22_);}
	.st12{clip-path:url(#SVGID_24_);fill:#D0D2D3;}
	.st13{clip-path:url(#SVGID_26_);}
	.st14{clip-path:url(#SVGID_28_);fill:#3A3A2B;}
	.st15{clip-path:url(#SVGID_30_);}
	.st16{clip-path:url(#SVGID_32_);fill:#D0D2D3;}
	.st17{clip-path:url(#SVGID_34_);}
	.st18{clip-path:url(#SVGID_36_);fill:#D0D2D3;}
	.st19{clip-path:url(#SVGID_38_);}
	.st20{clip-path:url(#SVGID_40_);fill:#D0D2D3;}
	.st21{clip-path:url(#SVGID_42_);}
	.st22{clip-path:url(#SVGID_44_);fill:#D0D2D3;}
	.st23{clip-path:url(#SVGID_46_);}
	.st24{clip-path:url(#SVGID_48_);fill:#D0D2D3;}
	.st25{clip-path:url(#SVGID_50_);}
	.st26{clip-path:url(#SVGID_52_);fill:#D0D2D3;}
	.st27{clip-path:url(#SVGID_54_);}
	.st28{clip-path:url(#SVGID_56_);fill:#FFFFFF;}
	.st29{clip-path:url(#SVGID_58_);}
	.st30{clip-path:url(#SVGID_60_);fill:#9BE3BF;}
	.st31{clip-path:url(#SVGID_62_);}
	.st32{clip-path:url(#SVGID_64_);fill:#685BC7;}
	.st33{clip-path:url(#SVGID_66_);}
	.st34{clip-path:url(#SVGID_68_);fill:#9BE3BF;}
	.st35{clip-path:url(#SVGID_70_);}
	.st36{clip-path:url(#SVGID_72_);fill:#685BC7;}
	.st37{clip-path:url(#SVGID_74_);}
	.st38{clip-path:url(#SVGID_76_);fill:#9BE3BF;}
	.st39{clip-path:url(#SVGID_78_);}
	.st40{clip-path:url(#SVGID_80_);fill:#9BE3BF;}
	.st41{clip-path:url(#SVGID_82_);}
	.st42{clip-path:url(#SVGID_84_);fill:#9BE3BF;}
	.st43{clip-path:url(#SVGID_86_);}
	.st44{clip-path:url(#SVGID_88_);fill:#685BC7;}
	.st45{clip-path:url(#SVGID_90_);}
	.st46{clip-path:url(#SVGID_92_);fill:#685BC7;}
	.st47{clip-path:url(#SVGID_94_);}
	.st48{clip-path:url(#SVGID_96_);fill:#685BC7;}
	.st49{clip-path:url(#SVGID_98_);}
	.st50{clip-path:url(#SVGID_100_);fill:#685BC7;}
	.st51{clip-path:url(#SVGID_102_);}
	.st52{clip-path:url(#SVGID_104_);fill:#685BC7;}
	.st53{clip-path:url(#SVGID_106_);}
	.st54{clip-path:url(#SVGID_108_);fill:#39207C;}
	.st55{clip-path:url(#SVGID_110_);}
	.st56{clip-path:url(#SVGID_112_);fill:#514AA5;}
	.st57{clip-path:url(#SVGID_114_);}
	.st58{clip-path:url(#SVGID_116_);fill:#9BE3BF;}
	.st59{clip-path:url(#SVGID_118_);}
	.st60{clip-path:url(#SVGID_120_);fill:#6FC190;}
	.st61{clip-path:url(#SVGID_122_);}
	.st62{clip-path:url(#SVGID_124_);fill:#685BC7;}
	.st63{clip-path:url(#SVGID_126_);}
	.st64{clip-path:url(#SVGID_128_);fill:#39207C;}
	.st65{clip-path:url(#SVGID_130_);}
	.st66{clip-path:url(#SVGID_132_);fill:#9BE3BF;}
	.st67{clip-path:url(#SVGID_134_);}
	.st68{clip-path:url(#SVGID_136_);fill:#6FC190;}
	.st69{clip-path:url(#SVGID_138_);}
	.st70{fill:#A7A4E0;}
	.st71{fill:#F42534;}
	.st72{fill:#39207C;}
	.st73{opacity:0.5;}
	.st74{clip-path:url(#SVGID_140_);}
	.st75{opacity:0.44;fill:#E6E7E8;}
	.st76{fill:#9BE3BF;}
	.st77{fill:#6FC190;}
	.st78{fill:#E6E7E8;}
	.st79{fill:#685BC7;}
	.st80{fill:#CE3232;}
	.st81{fill:#7A7ACC;}
	.st82{fill:#201E68;}
	.st83{fill:#D1D4FC;}
	.st84{clip-path:url(#SVGID_142_);}
	.st85{fill:#A59DE3;}
	.st86{fill:#FFFFFF;}
	.st87{fill:#D8D4DF;}
	.st88{fill:#514A95;}
	.st89{fill:#7327BC;}
	.st90{fill:#442D68;}
	.st91{fill:#8BD3AF;}
	.st92{fill:#7F7FC6;}
	.st93{fill:#2E1B54;}
	.st94{fill:#279F5E;}
	.st95{clip-path:url(#SVGID_144_);}
	.st96{fill:#514AA5;}
	.st97{opacity:0.3;fill:#856AEA;}
	.st98{fill:#F1C40F;}
	.st99{fill:#26D07C;}
	.st100{opacity:0.83;}
	.st101{opacity:0.68;fill:#39207C;}
	.st102{opacity:0.3;fill:#39207C;}
	.st103{opacity:0.7;fill:#9E88ED;}
	.st104{clip-path:url(#SVGID_146_);}
	.st105{opacity:0.2;fill:#764582;}
	.st106{fill:#918ECA;}
	.st107{fill:#514A8F;}
	.st108{fill:none;stroke:#FFFFFF;stroke-width:0.9734;stroke-miterlimit:10;}
	.st109{fill:#9D68AA;}
	.st110{fill:#7F7FC0;}
	.st111{fill-rule:evenodd;clip-rule:evenodd;fill:#7F7FC0;}
	.st112{fill-rule:evenodd;clip-rule:evenodd;fill:#918ECA;}
	.st113{fill-rule:evenodd;clip-rule:evenodd;fill:#BBBED5;}
	.st114{fill-rule:evenodd;clip-rule:evenodd;fill:#27995E;}
	.st115{fill-rule:evenodd;clip-rule:evenodd;fill:#6FAB80;}
	.st116{fill-rule:evenodd;clip-rule:evenodd;fill:#85CDA9;}
	.st117{fill-rule:evenodd;clip-rule:evenodd;fill:#808080;}
	.st118{fill-rule:evenodd;clip-rule:evenodd;fill:#BABCBD;}
	.st119{fill-rule:evenodd;clip-rule:evenodd;fill:#E1E1E1;}
	.st120{fill-rule:evenodd;clip-rule:evenodd;fill:#39207C;}
	.st121{fill-rule:evenodd;clip-rule:evenodd;fill:#9895A4;}
	.st122{fill-rule:evenodd;clip-rule:evenodd;fill:#FFFFFF;}
	.st123{fill-rule:evenodd;clip-rule:evenodd;fill:#685BB1;}
	.st124{clip-path:url(#SVGID_148_);enable-background:new    ;}
	.st125{clip-path:url(#SVGID_150_);}
	.st126{clip-path:url(#SVGID_152_);}
	.st127{clip-path:url(#SVGID_154_);fill:#A7A4E0;}
	.st128{clip-path:url(#SVGID_156_);}
	.st129{clip-path:url(#SVGID_158_);fill:#FFFFFF;}
	.st130{fill:url(#SVGID_159_);}
	.st131{fill:#9794D0;}
	.st132{fill:none;stroke:#A59DE3;stroke-width:5;stroke-miterlimit:10;}
	.st133{fill:url(#SVGID_160_);}
	.st134{clip-path:url(#SVGID_162_);}
	.st135{clip-path:url(#SVGID_164_);fill:#F7F7F7;}
	.st136{fill:#7F7FD6;}
	.st137{fill:#D0D2D3;}
	.st138{fill:#EEEEEE;}
	.st139{fill:#A6A8AB;}
	.st140{fill:#016867;}
	.st141{fill:#FEFDFD;}
	.st142{clip-path:url(#SVGID_166_);}
	.st143{opacity:0.46;}
	.st144{clip-path:url(#SVGID_168_);}
	.st145{fill:#575756;}
	.st146{fill:none;stroke:#39207C;stroke-miterlimit:10;}
	.st147{clip-path:url(#SVGID_170_);}
	.st148{clip-path:url(#SVGID_172_);}
	.st149{clip-path:url(#SVGID_174_);}
	.st150{fill:#F1F1F2;}
	.st151{fill:#F05A28;}
	.st152{clip-path:url(#SVGID_176_);}
	.st153{clip-path:url(#SVGID_178_);fill:#7F7FD6;}
</style>
<g>
	<g>
		<defs>
			<circle id="SVGID_171_" cx="127" cy="-132" r="82"/>
		</defs>
		<clipPath id="SVGID_2_">
			<use xlink:href="#SVGID_171_"  style="overflow:visible;"/>
		</clipPath>
		<g class="st1">
			<path class="st85" d="M171.71-60.21c0.44-1.3,1.25-2.72,1.86-4.38h-15.51c-3.01,13.04-4.11,24.8-4.11,24.8l3.52,43.95l6.22,0.07
				c0.52-6.08,0.61-25.66,2.5-43.08C167.2-48.09,170.41-56.34,171.71-60.21z"/>
			<g>
				<path class="st85" d="M184.01-60.21c0.32-1.22,0.57-2.72,0.78-4.38h-15.51c0.21,13.04,2.02,24.8,2.02,24.8l14.12,44.08l6.1-0.26
					c0.53-4.25-4.87-27.03-7.3-44.55C182.96-49.61,183.32-57.54,184.01-60.21z"/>
				<path class="st89" d="M191.62,4.05l0.49,4.23c0,1.24-0.91,2.25-2.02,2.25h-14.68c-0.79,0-1.1-1.14-0.43-1.62
					c1.94-1.39,8.36-3.39,10.39-4.78L191.62,4.05z"/>
			</g>
			<path class="st89" d="M163.87,4.05l0.49,4.23c0,1.24-0.91,2.25-2.02,2.25h-14.68c-0.79,0-1.1-1.14-0.43-1.62
				c1.94-1.39,8.36-3.39,10.39-4.78L163.87,4.05z"/>
			<path class="st92" d="M187.52,4.22l-2.1,0.09L171.3-39.78c0,0-0.45-2.96-0.94-7.56c1.4-0.01,2.81-0.05,4.21-0.13
				c0,2.93,0.14,7.05,0.9,10.81C176.57-31.15,185.42-2.56,187.52,4.22z"/>
			<path class="st85" d="M157.13-46.86c0,0-1.53,3.75-1.39,7.64c0.11,3.28,2.8,33.83,3.64,43.41l-1.9-0.02l-3.52-43.94
				c0,0,0.33-3.57,1.14-8.96c4.18,0.79,8.41,1.24,12.64,1.36c-0.12,0.47-0.23,0.95-0.34,1.44
				C164.94-46.06,158.68-46.42,157.13-46.86z"/>
		</g>
	</g>
</g>
<g>
	<circle class="st0" cx="127" cy="101.43" r="82"/>
	<g>
		<defs>
			<circle id="SVGID_173_" cx="127" cy="101.43" r="82"/>
		</defs>
		<clipPath id="SVGID_4_">
			<use xlink:href="#SVGID_173_"  style="overflow:visible;"/>
		</clipPath>
		<g class="st2">
			<path class="st96" d="M92.53,153.49l92.4,28.36c4.31,1.33,8.62-2.12,8.62-6.92l0.05-113.21c0-3.53-2.39-6.54-5.66-7.11
				L95.49,39.64c-4.1-0.72-7.83,2.67-7.83,7.11v99.82"/>
			<path class="st72" d="M85.86,48.54v97.9c0,3.15,1.95,5.93,4.78,6.81l90.67,28.36c4.23,1.31,8.45-2.09,8.45-6.81V64.41
				c0-3.47-2.35-6.43-5.55-6.99L93.54,41.55C89.51,40.85,85.86,44.18,85.86,48.54z"/>
			<path class="st72" d="M85.86,48.31v0.24c0-4.37,3.65-7.7,7.68-6.99l90.67,15.87c3.2,0.56,5.55,3.52,5.55,6.99v4.11"/>
			<ellipse class="st71" cx="93.13" cy="45.69" rx="1.07" ry="1.25"/>
			<ellipse class="st98" cx="96.93" cy="46.39" rx="1.07" ry="1.25"/>
			<ellipse class="st99" cx="100.62" cy="47.17" rx="1.07" ry="1.25"/>
			<g class="st143">
				<path class="st70" d="M115.15,160.92V54.12l-29.3-5.7l0.03,98.19c-0.02,3.09,2.01,5.82,4.98,6.69L115.15,160.92z"/>
			</g>
			
				<ellipse transform="matrix(0.9963 -0.0855 0.0855 0.9963 -6.4144 8.9074)" class="st101" cx="100.82" cy="79.37" rx="7.03" ry="8.88"/>
			<path class="st72" d="M109.32,64.17l-18.4-4.27c-0.4-0.09-0.66-0.5-0.56-0.9l0.16-0.7c0.09-0.4,0.5-0.66,0.9-0.56l18.4,4.27
				c0.4,0.09,0.66,0.5,0.56,0.9l-0.16,0.7C110.12,64.01,109.72,64.27,109.32,64.17z"/>
			<path class="st72" d="M99.35,66.31l-8.47-1.96c-0.4-0.09-0.66-0.5-0.56-0.9l0.16-0.7c0.09-0.4,0.5-0.66,0.9-0.56l8.47,1.96
				c0.4,0.09,0.66,0.5,0.56,0.9l-0.16,0.7C100.16,66.15,99.75,66.4,99.35,66.31z"/>
			<path class="st72" d="M144.18,94.16l-18.4-4.27c-0.4-0.09-0.66-0.5-0.56-0.9l0.16-0.7c0.09-0.4,0.5-0.66,0.9-0.56l18.4,4.27
				c0.4,0.09,0.66,0.5,0.56,0.9l-0.16,0.7C144.99,94,144.58,94.25,144.18,94.16z"/>
			<path class="st72" d="M134.21,96.29l-8.47-1.96c-0.4-0.09-0.66-0.5-0.56-0.9l0.16-0.7c0.09-0.4,0.5-0.66,0.9-0.56l8.47,1.96
				c0.4,0.09,0.66,0.5,0.56,0.9l-0.16,0.7C135.02,96.13,134.61,96.38,134.21,96.29z"/>
			<path class="st72" d="M175.15,101.95l-18.32-4.6c-0.4-0.1-0.65-0.51-0.55-0.91l0.17-0.7c0.1-0.4,0.51-0.65,0.91-0.55l18.32,4.6
				c0.4,0.1,0.65,0.51,0.55,0.91l-0.17,0.7C175.96,101.8,175.55,102.05,175.15,101.95z"/>
			<path class="st72" d="M165.14,103.9l-8.43-2.12c-0.4-0.1-0.65-0.51-0.55-0.91l0.17-0.7c0.1-0.4,0.51-0.65,0.91-0.55l8.43,2.12
				c0.4,0.1,0.65,0.51,0.55,0.91l-0.17,0.7C165.95,103.75,165.54,104,165.14,103.9z"/>
			<path class="st102" d="M106.35,131.67l-12.38-3.69c-0.87-0.26-1.48-1.12-1.48-2.09V93.13c0-1.42,1.24-2.46,2.52-2.1l12.38,3.41
				c0.89,0.25,1.52,1.11,1.52,2.1v33.04C108.91,131.02,107.64,132.06,106.35,131.67z"/>
			<path class="st76" d="M177.56,89.26l-54.6-13.18c-0.87-0.24-1.48-1.04-1.48-1.95v-6.91c0-1.32,1.24-2.29,2.52-1.96l54.6,11.51
				c0.89,0.23,1.52,1.04,1.52,1.96v8.58C180.12,88.65,178.85,89.62,177.56,89.26z"/>
			<path class="st76" d="M177.56,110.82l-54.6-13.18c-0.87-0.24-1.48-1.04-1.48-1.95v-6.91c0-1.32,1.24-2.29,2.52-1.96l54.6,11.51
				c0.89,0.23,1.52,1.04,1.52,1.96v8.58C180.12,110.21,178.85,111.18,177.56,110.82z"/>
			<path class="st76" d="M177.56,133.46l-54.6-13.18c-0.87-0.24-1.48-1.04-1.48-1.95v-6.91c0-1.32,1.24-2.29,2.52-1.96l54.6,11.51
				c0.89,0.23,1.52,1.04,1.52,1.96v8.58C180.12,132.85,178.85,133.82,177.56,133.46z"/>
			<path class="st76" d="M177.56,157.73l-54.6-13.18c-0.87-0.24-1.48-1.04-1.48-1.95v-6.91c0-1.32,1.24-2.29,2.52-1.96l54.6,11.51
				c0.89,0.23,1.52,1.04,1.52,1.96v8.58C180.12,157.11,178.85,158.08,177.56,157.73z"/>
		</g>
	</g>
	<g>
		<g>
			<path class="st150" d="M174.59,103.24L146,98.2c-1.5-0.3-2.4-1.12-2.4-2.3V67.88l-4.66-3.67l4.66-1.51v-1.89
				c0-1.18,0.99-2.13,2.21-2.13l28.75,4.1c1.22,0,2.22,0.95,2.22,2.13l0.03,36.2C176.81,102.29,175.82,103.24,174.59,103.24z"/>
		</g>
		<path class="st79" d="M170.34,71.67l-21.24-3.17c-0.32-0.05-0.53-0.38-0.48-0.74l0.03-0.2c0.06-0.36,0.36-0.61,0.68-0.56
			l21.24,3.17c0.32,0.05,0.53,0.38,0.48,0.74l-0.03,0.2C170.96,71.46,170.66,71.71,170.34,71.67z"/>
		<path class="st79" d="M159.09,74.24l-9.98-1.49c-0.32-0.05-0.53-0.38-0.48-0.74l0.03-0.2c0.06-0.36,0.36-0.61,0.68-0.56l9.98,1.49
			c0.32,0.05,0.53,0.38,0.48,0.74l-0.03,0.2C159.71,74.04,159.41,74.29,159.09,74.24z"/>
	</g>
</g>
<g>
	<g>
		<defs>
			<path id="SVGID_175_" d="M831.82,151.46c0.99-0.27,1.77-0.42,3.76-1.43c1.29-0.65,2.2-1.48,2.2-1.48
				c0.4-0.42,1.46-1.16,1.28-1.09c-0.64,0.26-0.66,0.13-0.97-0.15c-0.06-0.06-0.82-1.76-1.18-2.29c-0.15-0.22-0.27-1.11-0.27-1.25
				c-0.01-0.7,0.11-2.09,0.21-2.23c0,0,0.41-0.4,1.04-0.84c0.78-0.55,2.22-1.99,3.65-4.49c0.92-1.39,0.94-1.95,1.42-3.89
				c0.16-0.62,0.51-3.39,0.27-5.5c0,0-0.31-1.99-0.93-4.32c-1.01-3.8-2.74-5.64-2.74-5.64h-10.86c0,0,0.98,3.76,1.05,6.16
				c0.05,1.52,0.78,2.9,1.06,3.25c0.76,0.96,3.34,1.13,3.67,2.31c0.29,1.03,0.55,1.38,0.3,3.51c-0.06,0.55-0.18,2.01-0.28,2.94
				c-0.07,0.68-0.03,1.39-0.22,2.19c-0.24,0.98-0.32,2.01-1.33,2.64c-1.12,0.71-2.46,1.66-2.45,3.53c0,0.69-0.26,5,0.71,6.24
				c0.79,1.02-7.05,0.75-7.17,0.77c0,0-0.48,0.65-0.35,0.68C825.74,151.66,828.82,152.27,831.82,151.46z"/>
		</defs>
		<clipPath id="SVGID_6_">
			<use xlink:href="#SVGID_175_"  style="overflow:visible;"/>
		</clipPath>
		<g style="clip-path:url(#SVGID_6_);">
			<defs>
				
					<rect id="SVGID_177_" x="19.95" y="-26.52" transform="matrix(0.9977 -0.0679 0.0679 0.9977 -22.8199 41.6366)" width="1163.11" height="766.52"/>
			</defs>
			<clipPath id="SVGID_8_">
				<use xlink:href="#SVGID_177_"  style="overflow:visible;"/>
			</clipPath>
		</g>
	</g>
</g>
</svg>
