<?xml version="1.0" encoding="utf-8"?>
<!-- Generator: Adobe Illustrator 23.0.1, SVG Export Plug-In . SVG Version: 6.00 Build 0)  -->
<svg version="1.1" id="Capa_1" xmlns="http://www.w3.org/2000/svg" xmlns:xlink="http://www.w3.org/1999/xlink" x="0px" y="0px"
	 viewBox="0 0 717 490" style="enable-background:new 0 0 717 490;" xml:space="preserve">
<style type="text/css">
	.st0{fill-rule:evenodd;clip-rule:evenodd;fill:#685BC7;}
	.st1{clip-path:url(#SVGID_2_);}
	.st2{clip-path:url(#SVGID_4_);}
	.st3{clip-path:url(#SVGID_6_);fill:#A7A4E0;}
	.st4{clip-path:url(#SVGID_8_);}
	.st5{clip-path:url(#SVGID_10_);enable-background:new    ;}
	.st6{clip-path:url(#SVGID_12_);}
	.st7{clip-path:url(#SVGID_14_);}
	.st8{clip-path:url(#SVGID_16_);fill:#FFFFFF;}
	.st9{clip-path:url(#SVGID_18_);}
	.st10{clip-path:url(#SVGID_20_);fill:#CDEBF1;}
	.st11{clip-path:url(#SVGID_22_);}
	.st12{clip-path:url(#SVGID_24_);fill:#D0D2D3;}
	.st13{clip-path:url(#SVGID_26_);}
	.st14{clip-path:url(#SVGID_28_);fill:#3A3A2B;}
	.st15{clip-path:url(#SVGID_30_);}
	.st16{clip-path:url(#SVGID_32_);fill:#D0D2D3;}
	.st17{clip-path:url(#SVGID_34_);}
	.st18{clip-path:url(#SVGID_36_);fill:#D0D2D3;}
	.st19{clip-path:url(#SVGID_38_);}
	.st20{clip-path:url(#SVGID_40_);fill:#D0D2D3;}
	.st21{clip-path:url(#SVGID_42_);}
	.st22{clip-path:url(#SVGID_44_);fill:#D0D2D3;}
	.st23{clip-path:url(#SVGID_46_);}
	.st24{clip-path:url(#SVGID_48_);fill:#D0D2D3;}
	.st25{clip-path:url(#SVGID_50_);}
	.st26{clip-path:url(#SVGID_52_);fill:#D0D2D3;}
	.st27{clip-path:url(#SVGID_54_);}
	.st28{clip-path:url(#SVGID_56_);fill:#FFFFFF;}
	.st29{clip-path:url(#SVGID_58_);}
	.st30{clip-path:url(#SVGID_60_);fill:#9BE3BF;}
	.st31{clip-path:url(#SVGID_62_);}
	.st32{clip-path:url(#SVGID_64_);fill:#685BC7;}
	.st33{clip-path:url(#SVGID_66_);}
	.st34{clip-path:url(#SVGID_68_);fill:#9BE3BF;}
	.st35{clip-path:url(#SVGID_70_);}
	.st36{clip-path:url(#SVGID_72_);fill:#685BC7;}
	.st37{clip-path:url(#SVGID_74_);}
	.st38{clip-path:url(#SVGID_76_);fill:#9BE3BF;}
	.st39{clip-path:url(#SVGID_78_);}
	.st40{clip-path:url(#SVGID_80_);fill:#9BE3BF;}
	.st41{clip-path:url(#SVGID_82_);}
	.st42{clip-path:url(#SVGID_84_);fill:#9BE3BF;}
	.st43{clip-path:url(#SVGID_86_);}
	.st44{clip-path:url(#SVGID_88_);fill:#685BC7;}
	.st45{clip-path:url(#SVGID_90_);}
	.st46{clip-path:url(#SVGID_92_);fill:#685BC7;}
	.st47{clip-path:url(#SVGID_94_);}
	.st48{clip-path:url(#SVGID_96_);fill:#685BC7;}
	.st49{clip-path:url(#SVGID_98_);}
	.st50{clip-path:url(#SVGID_100_);fill:#685BC7;}
	.st51{clip-path:url(#SVGID_102_);}
	.st52{clip-path:url(#SVGID_104_);fill:#685BC7;}
	.st53{clip-path:url(#SVGID_106_);}
	.st54{clip-path:url(#SVGID_108_);fill:#39207C;}
	.st55{clip-path:url(#SVGID_110_);}
	.st56{clip-path:url(#SVGID_112_);fill:#514AA5;}
	.st57{clip-path:url(#SVGID_114_);}
	.st58{clip-path:url(#SVGID_116_);fill:#9BE3BF;}
	.st59{clip-path:url(#SVGID_118_);}
	.st60{clip-path:url(#SVGID_120_);fill:#6FC190;}
	.st61{clip-path:url(#SVGID_122_);}
	.st62{clip-path:url(#SVGID_124_);fill:#685BC7;}
	.st63{clip-path:url(#SVGID_126_);}
	.st64{clip-path:url(#SVGID_128_);fill:#39207C;}
	.st65{clip-path:url(#SVGID_130_);}
	.st66{clip-path:url(#SVGID_132_);fill:#9BE3BF;}
	.st67{clip-path:url(#SVGID_134_);}
	.st68{clip-path:url(#SVGID_136_);fill:#6FC190;}
	.st69{clip-path:url(#SVGID_138_);}
	.st70{fill:#A7A4E0;}
	.st71{fill:#F42534;}
	.st72{fill:#39207C;}
	.st73{opacity:0.5;}
	.st74{clip-path:url(#SVGID_140_);}
	.st75{opacity:0.44;fill:#E6E7E8;}
	.st76{fill:#9BE3BF;}
	.st77{fill:#6FC190;}
	.st78{fill:#E6E7E8;}
	.st79{fill:#685BC7;}
	.st80{fill:#CE3232;}
	.st81{fill:#7A7ACC;}
	.st82{fill:#201E68;}
	.st83{fill:#D1D4FC;}
	.st84{clip-path:url(#SVGID_142_);}
	.st85{fill:#A59DE3;}
	.st86{fill:#FFFFFF;}
	.st87{fill:#D8D4DF;}
	.st88{fill:#514A95;}
	.st89{fill:#7327BC;}
	.st90{fill:#442D68;}
	.st91{fill:#8BD3AF;}
	.st92{fill:#7F7FC6;}
	.st93{fill:#2E1B54;}
	.st94{fill:#279F5E;}
	.st95{clip-path:url(#SVGID_144_);}
	.st96{fill:#514AA5;}
	.st97{opacity:0.3;fill:#856AEA;}
	.st98{fill:#F1C40F;}
	.st99{fill:#26D07C;}
	.st100{opacity:0.83;}
	.st101{opacity:0.68;fill:#39207C;}
	.st102{opacity:0.3;fill:#39207C;}
	.st103{opacity:0.7;fill:#9E88ED;}
	.st104{clip-path:url(#SVGID_146_);}
	.st105{opacity:0.2;fill:#764582;}
	.st106{fill:#918ECA;}
	.st107{fill:#514A8F;}
	.st108{fill:none;stroke:#FFFFFF;stroke-width:0.9734;stroke-miterlimit:10;}
	.st109{fill:#9D68AA;}
	.st110{fill:#7F7FC0;}
	.st111{fill-rule:evenodd;clip-rule:evenodd;fill:#7F7FC0;}
	.st112{fill-rule:evenodd;clip-rule:evenodd;fill:#918ECA;}
	.st113{fill-rule:evenodd;clip-rule:evenodd;fill:#BBBED5;}
	.st114{fill-rule:evenodd;clip-rule:evenodd;fill:#27995E;}
	.st115{fill-rule:evenodd;clip-rule:evenodd;fill:#6FAB80;}
	.st116{fill-rule:evenodd;clip-rule:evenodd;fill:#85CDA9;}
	.st117{fill-rule:evenodd;clip-rule:evenodd;fill:#808080;}
	.st118{fill-rule:evenodd;clip-rule:evenodd;fill:#BABCBD;}
	.st119{fill-rule:evenodd;clip-rule:evenodd;fill:#E1E1E1;}
	.st120{fill-rule:evenodd;clip-rule:evenodd;fill:#39207C;}
	.st121{fill-rule:evenodd;clip-rule:evenodd;fill:#9895A4;}
	.st122{fill-rule:evenodd;clip-rule:evenodd;fill:#FFFFFF;}
	.st123{fill-rule:evenodd;clip-rule:evenodd;fill:#685BB1;}
	.st124{clip-path:url(#SVGID_148_);enable-background:new    ;}
	.st125{clip-path:url(#SVGID_150_);}
	.st126{clip-path:url(#SVGID_152_);}
	.st127{clip-path:url(#SVGID_154_);fill:#A7A4E0;}
	.st128{clip-path:url(#SVGID_156_);}
	.st129{clip-path:url(#SVGID_158_);fill:#FFFFFF;}
	.st130{fill:url(#SVGID_159_);}
	.st131{fill:#9794D0;}
	.st132{fill:none;stroke:#A59DE3;stroke-width:5;stroke-miterlimit:10;}
	.st133{fill:url(#SVGID_160_);}
	.st134{clip-path:url(#SVGID_162_);}
	.st135{clip-path:url(#SVGID_164_);fill:#F7F7F7;}
	.st136{fill:#7F7FD6;}
	.st137{fill:#D0D2D3;}
	.st138{fill:#EEEEEE;}
	.st139{fill:#A6A8AB;}
	.st140{fill:#016867;}
	.st141{fill:#FEFDFD;}
	.st142{clip-path:url(#SVGID_166_);}
	.st143{opacity:0.46;}
	.st144{clip-path:url(#SVGID_168_);}
	.st145{fill:#575756;}
	.st146{fill:none;stroke:#39207C;stroke-miterlimit:10;}
	.st147{clip-path:url(#SVGID_170_);}
	.st148{clip-path:url(#SVGID_172_);}
	.st149{clip-path:url(#SVGID_174_);}
	.st150{fill:#F1F1F2;}
	.st151{fill:#F05A28;}
	.st152{clip-path:url(#SVGID_176_);}
	.st153{clip-path:url(#SVGID_178_);fill:#7F7FD6;}
</style>
<ellipse class="st72" cx="358.97" cy="348.06" rx="265.03" ry="29.41"/>
<g>
	<path class="st70" d="M507.61,244.28c4.3-1.06,10.84-3.27,10.84-3.27c1.13,1.97,4.61,6.28,2.74,8.13
		c-0.94,0.93-10.37,4.9-8.76,4.85c0.74-0.02-3.71-8.44-3.71-8.44L507.61,244.28z"/>
	<path class="st70" d="M472.83,309.91c5.04,2.21,8.79,4.09,8.79,4.09c-0.22,2.26-1.59,8.47-1.59,8.47
		c-1.33,0.02-9.19-2.38-9.19-2.38c0.55,0.49,2.32-7.63,2.32-7.63L472.83,309.91z"/>
	<path class="st76" d="M468.95,262.22l-17.76-45.06l-35.89,4.11c0,0-10.51,53.54-10.51,64.3c0,10.76,3.6,15.92,11.82,18.85
		c22.51,8.02,44,33.98,50.86,32.5c1.24-0.27,2.03-0.8,2.43-1.44c4.55-7.03,5.73-27.22,4.98-26.97c0,0-35.89-16.09-42.31-19.81
		c-4.38-2.53-3.71-4.17-3.9-8.77c-0.19-4.64,5.39-36.67,5.39-36.67s20.41,39.12,29.11,40.34c10.08,1.41,13.66-2.79,22.32-7.42
		c15.54-8.29,37.2-4.43,38.61-8.63c2.19-6.54-13.61-25.61-13.61-25.61L468.95,262.22z"/>
	<path class="st71" d="M518.32,241.89c-0.62,0.05-0.39-1.06-0.06-1.6c0.33-0.54,6.76-3.94,8.63-3.93c0.67,0,2.45-1.3,5.14,2.51
		c2.69,3.81,9.51,18.91,11.33,23.96c1.82,5.05-2.72,6.68-2.72,6.68s-1.42,0.49-3.27-1.45c-2.42-2.54-8.1-8.17-10.18-11.46
		c-0.89-1.41-3.23-4.13-3.55-4.87C522,247.93,518.32,241.89,518.32,241.89z"/>
	<path class="st71" d="M480.88,315.28c-0.49-0.39,0.44-1.04,1.05-1.2s7.6,1.78,8.94,3.07c0.48,0.46,2.67,0.74,2,5.35
		c-0.67,4.6-7.88,22.16-10.02,27.07s-6.56,2.98-6.56,2.98s-1.36-0.61-1.37-3.29c-0.01-3.5,1.53-13.41,2.27-17.22
		c0.32-1.63,0.5-5.21,0.78-5.97C479.4,322.18,480.88,315.28,480.88,315.28z"/>
	<path class="st77" d="M521.92,258.38c-2.92-5.46-11.41-16.42-11.41-16.42l-41.55,20.26l-17.76-45.06l-38.54,3.87
		c0,0,4.02,3.35,6.81,2.54c11.56-3.36,29.74,1.45,30.5,2.78c2.57,4.46-0.92,8.05,1.62,16.82c1.73,5.98,8.55,10.45,11.4,17.11
		c1.46,3.4,1.9,5.7,4.75,6.65c2.79,0.93,5.23,0.83,8.55,0c7.6-1.9,11.4-3.8,19.96-7.6c5.49-2.44,13.3-2.85,17.52-1.02
		C519.58,260.82,521.92,258.38,521.92,258.38z"/>
	<path class="st70" d="M376.19,115.88c0,0-0.28-28.67-1.09-30.78c-0.81-2.11,0.13-5.13-2.42-5.38c-2.55-0.25-8.64,7.99-8.37,11.99
		s3.14,13.73,3.14,13.73l1.55,11.16L376.19,115.88z"/>
	<path class="st70" d="M493.24,194.48c0,0,7.48,27.49,7.32,29.68c-0.16,2.19,1.49,4.88-0.73,5.66c-2.22,0.78-9.93-5.83-10.76-9.72
		c-0.84-3.89-0.88-13.8-0.88-13.8l-4.04-10.71L493.24,194.48z"/>
	<path class="st79" d="M453.44,147.3c0.17,0.05,0.28,0.1,0.42,0.2c2.87,2.11,34.27,25.75,37.04,28.87
		c2.96,3.32,6.98,29.18,8.34,36.91c0.16,0.89,0.09,1.54-1.16,2.51l-9.24,1.95c-0.61-0.03-1.13-0.45-1.28-1.04l-7.82-29.62
		c-0.09-0.35-0.32-0.66-0.64-0.85l-20.12-12.01c-0.75-0.45-1.72-0.11-2.03,0.71l-2.87,7.55c-0.03,0.07-0.05,0.15-0.07,0.22
		c-2.05,9.57-2.15,14.73-2.23,24.51c0,0.09,0.01,0.19,0.02,0.27l2.4,12.95c0.18,0.99-0.69,1.84-1.67,1.63
		c-4.12-0.88-13.97-2.56-25.24-1.49c-7.65,0.73-13.51,3.76-14.66,0.46c-0.69-1.98,0.06-4.63,0.38-9.68
		c0.09-1.35,1.37-9.7,2.11-12.87c1.31-5.59,3.27-10.08,3.38-15.2c0.09-4.21-3.02-3.85-4.02-10.09c-0.52-3.27,1.38-6.49,2.14-8.03
		l2.15-4.35c0.4-0.81-0.04-1.78-0.92-1.98c-7.24-1.66-35.14-8.28-37.46-12.38c-2.22-3.91-12.78-22.24-13.08-36.71
		c-0.01-0.69,0.49-1.27,1.16-1.4l6.73-1.31c0.65-0.13,1.29,0.22,1.56,0.82l12.19,28.23c0.19,0.44,0.56,0.75,1.03,0.82
		c3.11,0.52,15.42,2.56,21.43,3.49c2.31,0.36,20.25,1.84,22.99,2.29C438.64,143.39,451.55,146.8,453.44,147.3z"/>
	<path class="st70" d="M450.59,135.48c-1.07,1.44-0.8,5.47-0.81,7.02c-0.01,1.55,1.42,4.9,1.42,4.9s-5.32,1.07-9.28-0.24
		c-3.52-1.16-2.6-1.41-2.85-1.82c-0.52-0.87,0.8-2.88,0.83-5.88c0.01-1.32,0.7-4.61,0.58-5.04
		C440.34,133.99,450.59,135.48,450.59,135.48z"/>
	<path class="st70" d="M442.79,107.72c0,0-7.53,0.27-10.72,12.81c-2.98,11.73,6.38,18.01,8.44,18.64c2.06,0.62,4.71,2.44,9.32,0.06
		c4.61-2.38,8.09-5.83,9.33-8.39c1.24-2.57,2.08-8.59,1.67-10.19c-0.41-1.59-2.91-10.74-7.67-11.21S442.79,107.72,442.79,107.72z"/>
	<path class="st70" d="M439.99,140.45c-0.68,1.53-1.21,2.03-3.59,1.82c-0.84-0.07-3.8-0.22-4.73-0.03
		c-2.75,0.56-0.01,7.24,7.99,8.05c7.84,0.79,13.3,0.15,12.88-2.52c-0.42-2.67-0.91-1.65-3.37-3.54c-1.67-1.28-1.19-1.62-1.19-2.7
		C447.97,140.7,439.99,140.45,439.99,140.45z"/>
	<path class="st72" d="M437.83,109.11c-0.73,2.85,2.99-0.58,6.01,7.49c1.99,5.3-4.37,11.71,3.23,18.29
		c7.81,6.76-5.14,12.54-7.07,14.12c-3.21,2.62-8.61,11.84,2.78,18.08c11.15,6.11,23.78,1.37,25.51-9.39c0.72-4.45-1.82-8.6-3-11.85
		s3.07-5.64,1.48-15.15c-1.6-9.52-2.66-15.05-12.08-20.77C447.12,105.31,438.33,107.16,437.83,109.11z"/>
	<path class="st96" d="M457.09,174.57l-3.01,7.91c-2.46,10.77-2.29,24.73-2.29,24.73l1.82,9.96c0,0,0.28,1.33,0.5,2.73
		c0.18,1.13-0.12,1.64-0.22,1.71c-0.34,0.27-0.22,0.93-3.85-0.03c-2.82-0.74-16.18-1.89-23.1-0.97c-6.39,0.85-10.72,2.54-13.09,1.71
		c-1.72-0.61-1.49-3.27-1.49-3.27s0.66-3.08,4.05-5.34c2.85-1.9,10.04-3.32,14.26-6.65C448.74,192.81,457.09,174.57,457.09,174.57z"
		/>
	<path class="st96" d="M370.02,108.09l-1.5,0.24c-0.78,0.13-1.36,0.83-1.3,1.62c1.26,15.98,10.79,32.71,13.17,36.51
		c2.88,4.59,37.46,12.38,37.46,12.38s-9.36-6.28-18.54-10.7c-6.77-3.26-12.55-2.69-15.05-5.87c-5.86-7.43-4.42-13.8-7.76-22.64
		C374.03,113.03,370.02,108.09,370.02,108.09z"/>
	<path class="st96" d="M445.55,133.36c0.45,0.58,1.96,1.92,2.14,2.1c6.12,6.01-5.81,12.02-7.68,13.54
		c-3.21,2.62-8.61,11.84,2.78,18.08c4.59,2.51-2.57-0.93-1.55-7.26c0,0,0.06-4.08,4.62-6.72c5.78-3.35,6.05-7.38,6.69-9.9
		C453.74,138.62,445.55,133.36,445.55,133.36z"/>
</g>
<g>
	<path class="st70" d="M227.49,293.77c-5.85,2.57-10.2,4.74-10.2,4.74c0.25,2.62,1.85,9.83,1.85,9.83
		c1.54,0.02,10.66-2.76,10.66-2.76c-0.64,0.57-2.69-8.85-2.69-8.85L227.49,293.77z"/>
	<path class="st71" d="M220.79,298.27c0.51-0.33-0.33-1.04-0.91-1.26c-0.58-0.22-7.51,1.02-8.92,2.15c-0.51,0.4-2.65,0.47-2.43,4.98
		c0.22,4.51,5.57,22.14,7.19,27.07s6.06,3.48,6.06,3.48s1.37-0.47,1.63-3.05c0.33-3.38-0.24-13.1-0.61-16.85
		c-0.16-1.61,0-5.08-0.2-5.83C221.58,305.07,220.79,298.27,220.79,298.27z"/>
	<path class="st70" d="M204.12,229.87c-4.75-1.97-11.86-5.67-11.86-5.67c-1.65,2.06-6.4,6.39-4.58,8.83
		c0.92,1.23,11.03,7.46,9.19,7.11c-0.84-0.16,5.74-9.03,5.74-9.03L204.12,229.87z"/>
	<path class="st71" d="M195.51,228.01c0.61,0.15,0.57-0.99,0.33-1.59s-6.11-5.06-7.98-5.36c-0.67-0.11-2.24-1.7-5.56,1.66
		c-3.32,3.37-12.65,17.34-15.3,22.09c-2.65,4.75,1.61,7.14,1.61,7.14s1.33,0.73,3.51-0.91c2.84-2.14,9.46-6.83,12.09-9.77
		c1.13-1.26,3.91-3.6,4.35-4.29C190.83,233.44,195.51,228.01,195.51,228.01z"/>
	<path class="st72" d="M235.89,248.48l17.74-42.45l40.79,3.88c0,0,7.09,52.47,7.09,62.61c0,10.14-2.78,17.5-18.89,23.86
		c-16.11,6.36-50.51,21.68-50.51,21.68l-6.56-24.46c0,0,38.72-17.58,45.14-21.08c4.37-2.39,4.54-2.87,4.72-7.21
		c0.19-4.38-5.49-25.14-5.49-25.14s-15.53,34.74-24.22,35.88c-10.08,1.33-12.29-3.07-20.95-7.42
		c-15.53-7.81-31.54-18.18-32.94-22.14c-2.19-6.16,11.34-17.1,11.34-17.1L235.89,248.48z"/>
	<path class="st96" d="M230.04,311.06l-4.69-17.47c0,0,38.72-17.58,45.14-21.08c4.37-2.39,4.54-2.87,4.72-7.21
		c0.19-4.38-5.49-25.14-5.49-25.14l2.51-14.44c0.21,1.52,2.85,11.4,8.32,21.7c5.5,10.35,0.29,20.13-0.72,23.92
		c-3.8,14.26-21.86,13.3-32.31,20.91C231.11,304.19,230.04,311.06,230.04,311.06z"/>
	<path class="st96" d="M193.36,239.98c2.85-4.75,9.78-10.59,9.78-10.59l32.75,19.09l17.74-42.45l0,0c0,0,1.43,0.66,0.55,2.6
		c-4.75,10.45-4.75,15.84-4.75,19.96c0,1.9,0.6,9.26-1.9,14.26c-0.95,1.9-2.85,5.7-6.65,7.6c-3.8,1.9-2.85,0.95-6.65,3.8
		c-3.67,2.76-10.21-1.9-15.21-7.6c-3.15-3.6-9.18-5.62-13.3-6.65C201.91,239.03,193.36,239.98,193.36,239.98z"/>
	<path class="st70" d="M328.51,108.2c0,0,0.26-27.01,1.03-29c0.76-1.98-0.12-4.83,2.28-5.07c2.4-0.24,8.14,7.53,7.89,11.3
		c-0.25,3.77-2.96,12.94-2.96,12.94L336.46,109L328.51,108.2z"/>
	<path class="st70" d="M217.37,181.54c0,0-6.5,26.22-6.26,28.33c0.24,2.11-1.32,4.65,0.94,5.48c2.26,0.83,9.77-5.25,10.46-8.97
		c0.7-3.72,0.37-13.27,0.37-13.27l3.66-10.17L217.37,181.54z"/>
	<path class="st76" d="M255.81,137.86c0,0-34.51,23.12-35.57,24.71s-8.22,42.16-8.22,42.16l11.6-0.6l7.76-29.1l20.59-9.83
		l-2.82,42.18c0,0,31.55,10.34,44.81,5.57c13.26-4.77,7.69-7.69,5.83-16.17c-1.86-8.48-5.2-45.64-5.2-45.64s29.19-7.51,31.71-11.95
		c2.15-3.78,10.8-24.32,12.13-37.85l-9.74-1.66l-12.2,28.24c0,0-14.37,2.4-20.88,3.4c-2.17,0.34-16.28,2.2-20.94,1.63
		C270.35,132.41,255.81,137.86,255.81,137.86z"/>
	<path class="st70" d="M259.35,126.51c0.95,1.4,1.59,3.97,1.54,5.43s-1.97,4.48-1.97,4.48s4.96,1.23,8.75,0.17
		c3.36-0.94,6.75-3.27,7-3.65c0.53-0.8-2.13-2.87-2.03-5.7c0.04-1.24,0.23-2.59,0.37-2.98S259.35,126.51,259.35,126.51z"/>
	<path class="st70" d="M269.56,96.15c0,0,7.7,1.87,9.55,13.92c1.72,11.27-7.03,16.44-9.01,16.84s-6.63,2.25-10.74-0.4
		c-4.11-2.65-7.05-6.2-7.98-8.72c-0.93-2.52-4.61-1.71-5.81-5.55c-1.19-3.84,2.39-5.21,3.58-4.42c1.19,0.8,1.06,1.72,1.59,0.27
		s3.71-9.81,8.22-9.81C263.46,98.27,269.56,96.15,269.56,96.15z"/>
	<path class="st72" d="M257.63,135.66l-4.57,3.5c0,0-1.06,1.59,0,2.39c1.06,0.8,8.25,5.51,8.25,5.51l7.06-8.15l8.75,4.76l6.75-7.35
		c0,0,0.52-1.52-0.41-1.92c-0.93-0.4-6.21-2.75-6.21-2.75s-1.72-0.85-2.65,0.15c-0.93,1-6.5,5.98-15.25,3.2
		C259.35,134.99,258.43,134.6,257.63,135.66z"/>
	<g>
		<defs>
			<path id="SVGID_175_" d="M267.82,135.46c0.99-0.27,1.77-0.42,3.76-1.43c1.29-0.65,2.2-1.48,2.2-1.48
				c0.4-0.42,1.46-1.16,1.28-1.09c-0.64,0.26-0.66,0.13-0.97-0.15c-0.06-0.06-0.82-1.76-1.18-2.29c-0.15-0.22-0.27-1.11-0.27-1.25
				c-0.01-0.7,0.11-2.09,0.21-2.23c0,0,0.41-0.4,1.04-0.84c0.78-0.55,2.22-1.99,3.65-4.49c0.92-1.39,0.94-1.95,1.42-3.89
				c0.16-0.62,0.51-3.39,0.27-5.5c0,0-0.31-1.99-0.93-4.32c-1.01-3.8-2.74-5.64-2.74-5.64h-10.86c0,0,0.98,3.76,1.05,6.16
				c0.05,1.52,0.78,2.9,1.06,3.25c0.76,0.96,3.34,1.13,3.67,2.31c0.29,1.03,0.55,1.38,0.3,3.51c-0.06,0.55-0.18,2.01-0.28,2.94
				c-0.07,0.68-0.03,1.39-0.22,2.19c-0.24,0.98-0.32,2.01-1.33,2.64c-1.12,0.71-2.46,1.66-2.45,3.53c0,0.69-0.26,5,0.71,6.24
				c0.79,1.02-7.05,0.75-7.17,0.77c0,0-0.48,0.65-0.35,0.68C261.74,135.66,264.82,136.27,267.82,135.46z"/>
		</defs>
		<clipPath id="SVGID_2_">
			<use xlink:href="#SVGID_175_"  style="overflow:visible;"/>
		</clipPath>
		<g class="st1">
			<defs>
				
					<rect id="SVGID_177_" x="-544.05" y="-42.52" transform="matrix(0.9977 -0.0679 0.0679 0.9977 -23.0341 3.3299)" width="1163.11" height="766.52"/>
			</defs>
			<clipPath id="SVGID_4_">
				<use xlink:href="#SVGID_177_"  style="overflow:visible;"/>
			</clipPath>
			
				<rect x="252.13" y="97.67" transform="matrix(0.9977 -0.0679 0.0679 0.9977 -7.6283 18.4723)" style="clip-path:url(#SVGID_4_);fill:#7F7FD6;" width="31.96" height="47.71"/>
		</g>
	</g>
	<path class="st72" d="M252.06,111.4c1.37,1.71-2.12-11.67,9.55-10.61c8.52,0.78,17.5,1.33,19.09-2.39
		c1.59-3.71,2.12-4.77,0.81-5.52c-1.67-0.96-4.56,0.45-9.24-1.86c-2.33-1.15-8.71-6.13-20.29-0.83s-6.8,21.21-6.8,21.21
		s1.33-3.55,3.58-2.78C250.16,109.1,249.94,108.74,252.06,111.4z"/>
	<path class="st77" d="M251.96,165.2l-3.05,42.18c0,0,31.55,10.34,44.81,5.57c0,0,5.13-1.48,5.13-2.43c0-1.9-9.61,0.3-17.11-0.95
		c-5.7-0.95-12.79-7.49-17.02-15.13C254.97,176.8,251.96,165.2,251.96,165.2z"/>
	<path class="st77" d="M335.69,100.86l2.73,0.32c-1.33,13.54-9.98,34.07-12.13,37.85c-2.52,4.44-31.71,11.95-31.71,11.95
		s7.3-6.84,15.66-11.74c5.18-3.03,8.77-0.6,13.43-5.62c2.72-2.93,2.85-12.22,5.57-20.04S335.69,100.86,335.69,100.86z"/>
	<path class="st72" d="M327.92,99.29c0.43-0.38,10.6,1.69,10.84,2.09c0.25,0.4-0.19,3.42-0.57,3.67
		c-0.37,0.25-11.09-1.97-11.29-2.31C326.72,102.41,327.49,99.67,327.92,99.29z"/>
	<path class="st72" d="M212.17,201.27c0.33-0.28,12.17,0.35,12.36,0.59s-0.17,3.51-0.47,3.69c-0.3,0.19-12.37-0.32-12.66-0.66
		C211.11,204.55,211.84,201.54,212.17,201.27z"/>
</g>
</svg>
