<?xml version="1.0" encoding="utf-8"?>
<!-- Generator: Adobe Illustrator 23.0.1, SVG Export Plug-In . SVG Version: 6.00 Build 0)  -->
<svg version="1.1" id="Capa_1" xmlns="http://www.w3.org/2000/svg" xmlns:xlink="http://www.w3.org/1999/xlink" x="0px" y="0px"
	 viewBox="0 0 254 200" style="enable-background:new 0 0 254 200;" xml:space="preserve">
<style type="text/css">
	.st0{fill-rule:evenodd;clip-rule:evenodd;fill:#685BC7;}
	.st1{clip-path:url(#SVGID_2_);}
	.st2{clip-path:url(#SVGID_4_);}
	.st3{clip-path:url(#SVGID_6_);fill:#A7A4E0;}
	.st4{clip-path:url(#SVGID_8_);}
	.st5{clip-path:url(#SVGID_10_);enable-background:new    ;}
	.st6{clip-path:url(#SVGID_12_);}
	.st7{clip-path:url(#SVGID_14_);}
	.st8{clip-path:url(#SVGID_16_);fill:#FFFFFF;}
	.st9{clip-path:url(#SVGID_18_);}
	.st10{clip-path:url(#SVGID_20_);fill:#CDEBF1;}
	.st11{clip-path:url(#SVGID_22_);}
	.st12{clip-path:url(#SVGID_24_);fill:#D0D2D3;}
	.st13{clip-path:url(#SVGID_26_);}
	.st14{clip-path:url(#SVGID_28_);fill:#3A3A2B;}
	.st15{clip-path:url(#SVGID_30_);}
	.st16{clip-path:url(#SVGID_32_);fill:#D0D2D3;}
	.st17{clip-path:url(#SVGID_34_);}
	.st18{clip-path:url(#SVGID_36_);fill:#D0D2D3;}
	.st19{clip-path:url(#SVGID_38_);}
	.st20{clip-path:url(#SVGID_40_);fill:#D0D2D3;}
	.st21{clip-path:url(#SVGID_42_);}
	.st22{clip-path:url(#SVGID_44_);fill:#D0D2D3;}
	.st23{clip-path:url(#SVGID_46_);}
	.st24{clip-path:url(#SVGID_48_);fill:#D0D2D3;}
	.st25{clip-path:url(#SVGID_50_);}
	.st26{clip-path:url(#SVGID_52_);fill:#D0D2D3;}
	.st27{clip-path:url(#SVGID_54_);}
	.st28{clip-path:url(#SVGID_56_);fill:#FFFFFF;}
	.st29{clip-path:url(#SVGID_58_);}
	.st30{clip-path:url(#SVGID_60_);fill:#9BE3BF;}
	.st31{clip-path:url(#SVGID_62_);}
	.st32{clip-path:url(#SVGID_64_);fill:#685BC7;}
	.st33{clip-path:url(#SVGID_66_);}
	.st34{clip-path:url(#SVGID_68_);fill:#9BE3BF;}
	.st35{clip-path:url(#SVGID_70_);}
	.st36{clip-path:url(#SVGID_72_);fill:#685BC7;}
	.st37{clip-path:url(#SVGID_74_);}
	.st38{clip-path:url(#SVGID_76_);fill:#9BE3BF;}
	.st39{clip-path:url(#SVGID_78_);}
	.st40{clip-path:url(#SVGID_80_);fill:#9BE3BF;}
	.st41{clip-path:url(#SVGID_82_);}
	.st42{clip-path:url(#SVGID_84_);fill:#9BE3BF;}
	.st43{clip-path:url(#SVGID_86_);}
	.st44{clip-path:url(#SVGID_88_);fill:#685BC7;}
	.st45{clip-path:url(#SVGID_90_);}
	.st46{clip-path:url(#SVGID_92_);fill:#685BC7;}
	.st47{clip-path:url(#SVGID_94_);}
	.st48{clip-path:url(#SVGID_96_);fill:#685BC7;}
	.st49{clip-path:url(#SVGID_98_);}
	.st50{clip-path:url(#SVGID_100_);fill:#685BC7;}
	.st51{clip-path:url(#SVGID_102_);}
	.st52{clip-path:url(#SVGID_104_);fill:#685BC7;}
	.st53{clip-path:url(#SVGID_106_);}
	.st54{clip-path:url(#SVGID_108_);fill:#39207C;}
	.st55{clip-path:url(#SVGID_110_);}
	.st56{clip-path:url(#SVGID_112_);fill:#514AA5;}
	.st57{clip-path:url(#SVGID_114_);}
	.st58{clip-path:url(#SVGID_116_);fill:#9BE3BF;}
	.st59{clip-path:url(#SVGID_118_);}
	.st60{clip-path:url(#SVGID_120_);fill:#6FC190;}
	.st61{clip-path:url(#SVGID_122_);}
	.st62{clip-path:url(#SVGID_124_);fill:#685BC7;}
	.st63{clip-path:url(#SVGID_126_);}
	.st64{clip-path:url(#SVGID_128_);fill:#39207C;}
	.st65{clip-path:url(#SVGID_130_);}
	.st66{clip-path:url(#SVGID_132_);fill:#9BE3BF;}
	.st67{clip-path:url(#SVGID_134_);}
	.st68{clip-path:url(#SVGID_136_);fill:#6FC190;}
	.st69{clip-path:url(#SVGID_138_);}
	.st70{fill:#A7A4E0;}
	.st71{fill:#F42534;}
	.st72{fill:#39207C;}
	.st73{opacity:0.5;}
	.st74{clip-path:url(#SVGID_140_);}
	.st75{opacity:0.44;fill:#E6E7E8;}
	.st76{fill:#9BE3BF;}
	.st77{fill:#6FC190;}
	.st78{fill:#E6E7E8;}
	.st79{fill:#685BC7;}
	.st80{fill:#CE3232;}
	.st81{fill:#7A7ACC;}
	.st82{fill:#201E68;}
	.st83{fill:#D1D4FC;}
	.st84{clip-path:url(#SVGID_142_);}
	.st85{fill:#A59DE3;}
	.st86{fill:#FFFFFF;}
	.st87{fill:#D8D4DF;}
	.st88{fill:#514A95;}
	.st89{fill:#7327BC;}
	.st90{fill:#442D68;}
	.st91{fill:#8BD3AF;}
	.st92{fill:#7F7FC6;}
	.st93{fill:#2E1B54;}
	.st94{fill:#279F5E;}
	.st95{clip-path:url(#SVGID_144_);}
	.st96{fill:#514AA5;}
	.st97{opacity:0.3;fill:#856AEA;}
	.st98{fill:#F1C40F;}
	.st99{fill:#26D07C;}
	.st100{opacity:0.83;}
	.st101{opacity:0.68;fill:#39207C;}
	.st102{opacity:0.3;fill:#39207C;}
	.st103{opacity:0.7;fill:#9E88ED;}
	.st104{clip-path:url(#SVGID_146_);}
	.st105{opacity:0.2;fill:#764582;}
	.st106{fill:#918ECA;}
	.st107{fill:#514A8F;}
	.st108{fill:none;stroke:#FFFFFF;stroke-width:0.9734;stroke-miterlimit:10;}
	.st109{fill:#9D68AA;}
	.st110{fill:#7F7FC0;}
	.st111{fill-rule:evenodd;clip-rule:evenodd;fill:#7F7FC0;}
	.st112{fill-rule:evenodd;clip-rule:evenodd;fill:#918ECA;}
	.st113{fill-rule:evenodd;clip-rule:evenodd;fill:#BBBED5;}
	.st114{fill-rule:evenodd;clip-rule:evenodd;fill:#27995E;}
	.st115{fill-rule:evenodd;clip-rule:evenodd;fill:#6FAB80;}
	.st116{fill-rule:evenodd;clip-rule:evenodd;fill:#85CDA9;}
	.st117{fill-rule:evenodd;clip-rule:evenodd;fill:#808080;}
	.st118{fill-rule:evenodd;clip-rule:evenodd;fill:#BABCBD;}
	.st119{fill-rule:evenodd;clip-rule:evenodd;fill:#E1E1E1;}
	.st120{fill-rule:evenodd;clip-rule:evenodd;fill:#39207C;}
	.st121{fill-rule:evenodd;clip-rule:evenodd;fill:#9895A4;}
	.st122{fill-rule:evenodd;clip-rule:evenodd;fill:#FFFFFF;}
	.st123{fill-rule:evenodd;clip-rule:evenodd;fill:#685BB1;}
	.st124{clip-path:url(#SVGID_148_);enable-background:new    ;}
	.st125{clip-path:url(#SVGID_150_);}
	.st126{clip-path:url(#SVGID_152_);}
	.st127{clip-path:url(#SVGID_154_);fill:#A7A4E0;}
	.st128{clip-path:url(#SVGID_156_);}
	.st129{clip-path:url(#SVGID_158_);fill:#FFFFFF;}
	.st130{fill:url(#SVGID_159_);}
	.st131{fill:#9794D0;}
	.st132{fill:none;stroke:#A59DE3;stroke-width:5;stroke-miterlimit:10;}
	.st133{fill:url(#SVGID_160_);}
	.st134{clip-path:url(#SVGID_162_);}
	.st135{clip-path:url(#SVGID_164_);fill:#F7F7F7;}
	.st136{fill:#7F7FD6;}
	.st137{fill:#D0D2D3;}
	.st138{fill:#EEEEEE;}
	.st139{fill:#A6A8AB;}
	.st140{fill:#016867;}
	.st141{fill:#FEFDFD;}
	.st142{clip-path:url(#SVGID_166_);}
	.st143{opacity:0.46;}
	.st144{clip-path:url(#SVGID_168_);}
	.st145{fill:#575756;}
	.st146{fill:none;stroke:#39207C;stroke-miterlimit:10;}
	.st147{clip-path:url(#SVGID_170_);}
	.st148{clip-path:url(#SVGID_172_);}
	.st149{clip-path:url(#SVGID_174_);}
	.st150{fill:#F1F1F2;}
	.st151{fill:#F05A28;}
	.st152{clip-path:url(#SVGID_176_);}
	.st153{clip-path:url(#SVGID_178_);fill:#7F7FD6;}
</style>
<g>
	<g>
		<g>
			<defs>
				<path id="SVGID_155_" d="M-687.44,84.54c-0.63-0.01-1.25-0.27-1.69-0.72l-7.32-7.59c-0.91-0.94-0.88-2.45,0.06-3.36
					c0.44-0.43,1.03-0.67,1.65-0.67c0.65,0,1.26,0.26,1.71,0.73l5.65,5.85l12.81-12.81c0.45-0.45,1.05-0.69,1.68-0.69
					c0.63,0,1.23,0.25,1.68,0.69c0.93,0.93,0.93,2.43,0,3.36l-14.52,14.52c-0.44,0.44-1.05,0.7-1.68,0.7"/>
			</defs>
			<clipPath id="SVGID_2_">
				<use xlink:href="#SVGID_155_"  style="overflow:visible;"/>
			</clipPath>
			<g class="st1">
				<defs>
					<rect id="SVGID_157_" x="-2221.16" y="-169.43" width="2223.1" height="1621.01"/>
				</defs>
				<clipPath id="SVGID_4_">
					<use xlink:href="#SVGID_157_"  style="overflow:visible;"/>
				</clipPath>
			</g>
		</g>
	</g>
</g>
<g>
	<g>
		<defs>
			<path id="SVGID_161_" d="M-97.98-89.81c0,6.53-29.35,11.82-65.56,11.82c-36.21,0-65.56-5.29-65.56-11.82
				c0-6.53,29.35-11.82,65.56-11.82C-127.33-101.64-97.98-96.34-97.98-89.81"/>
		</defs>
		<clipPath id="SVGID_6_">
			<use xlink:href="#SVGID_161_"  style="overflow:visible;"/>
		</clipPath>
		<g style="clip-path:url(#SVGID_6_);">
			<defs>
				<rect id="SVGID_163_" x="-712.32" y="-268.43" width="774.36" height="510.33"/>
			</defs>
			<clipPath id="SVGID_8_">
				<use xlink:href="#SVGID_163_"  style="overflow:visible;"/>
			</clipPath>
		</g>
	</g>
</g>
<g>
	<circle class="st0" cx="127" cy="100.35" r="82"/>
	<g>
		<defs>
			<circle id="SVGID_169_" cx="127" cy="100.35" r="82"/>
		</defs>
		<clipPath id="SVGID_10_">
			<use xlink:href="#SVGID_169_"  style="overflow:visible;"/>
		</clipPath>
		<g style="clip-path:url(#SVGID_10_);">
			<g>
				<path class="st72" d="M184.23,179.9L139.1,23.25c-2.1-7.28-9.69-13.17-16.97-13.17H47.11c-7.28,0-11.48,5.9-9.38,13.17
					L82.87,179.9c2.1,7.28,9.69,13.17,16.97,13.17h75.01C182.12,193.08,186.32,187.18,184.23,179.9z"/>
				<g>
					<g>
						<g>
							<g>
								<path class="st85" d="M128.43,10.08H53.42c-7.28,0-11.48,5.9-9.38,13.17L89.17,179.9c2.1,7.28,9.69,13.17,16.97,13.17h75.01
									c7.28,0,11.48-5.9,9.38-13.17L145.4,23.25C143.31,15.98,135.71,10.08,128.43,10.08z"/>
							</g>
						</g>
					</g>
					<path class="st86" d="M129.86,15.02h-11.01l-1.8,7.51c-0.67,2.81-3.08,4.56-6.25,4.56H80.85c-3.17,0-6.59-1.76-8.88-4.56
						l-6.12-7.51H54.84c-4.54,0-7.17,3.7-5.86,8.24L94.11,179.9c1.31,4.54,6.07,8.24,10.61,8.24h75.01c4.54,0,7.17-3.7,5.86-8.24
						L140.47,23.25C139.16,18.71,134.4,15.02,129.86,15.02z"/>
					<g>
						<path class="st87" d="M53.28,16.58h11.01l6.12,7.51c2.29,2.81,5.71,4.56,8.88,4.56h29.95c2.38,0,4.33-0.99,5.44-2.66
							c-1.05,0.71-2.38,1.1-3.87,1.1H80.85c-3.17,0-6.59-1.76-8.88-4.56l-6.12-7.51H54.84c-2.35,0-4.18,0.99-5.23,2.58
							C50.61,16.95,51.85,16.58,53.28,16.58z"/>
						<path class="st87" d="M185.6,179.9L140.47,23.25c-1.31-4.54-6.07-8.24-10.61-8.24h-11.01l-0.37,1.56h9.82
							c4.54,0,9.3,3.7,10.61,8.24l45.13,156.65c0.63,2.19,0.34,4.18-0.64,5.66C185.54,185.72,186.5,183.01,185.6,179.9z"/>
					</g>
					<path class="st85" d="M139.99,84.92H87.41c-3.19,0-6.52-2.59-7.44-5.77l-9.69-33.16c-0.82-2.85,1.32-5.69,4.28-5.69h54.85
						c1.99,0,3.73,1.31,4.28,3.22l10.4,35.63C145.01,82.33,143.17,84.92,139.99,84.92z"/>
					<g>
						<g>
							<path class="st88" d="M118.68,69.16H97.71c-1.27,0-2.6-1.04-2.96-2.3l-3.17-10.84c-0.32-1.11,0.51-2.22,1.66-2.22l21.95-0.02
								c0.77,0,1.45,0.51,1.67,1.25l3.45,11.83C120.68,68.12,119.94,69.16,118.68,69.16z"/>
							<path class="st88" d="M118.25,52.29l-29.28,0.02c-0.99,0-2.02-0.8-2.31-1.79l-0.45-1.37c-0.25-0.88,0.41-1.76,1.33-1.76
								l29.99-0.02c0.62,0,1.16,0.41,1.33,1l0.67,2.13C119.81,51.49,119.23,52.29,118.25,52.29z"/>
						</g>
					</g>
					<path class="st85" d="M148.93,116.57H96.35c-3.19,0-6.52-2.59-7.44-5.77l-2.7-9.77c-0.82-2.85,1.32-5.69,4.28-5.69h54.85
						c1.99,0,3.73,1.31,4.28,3.22l3.41,12.24C153.96,113.99,152.11,116.57,148.93,116.57z"/>
					<path class="st85" d="M117.2,147.81l-13.12,0.15c-3.19,0-6.52-2.59-7.44-5.77l-2.7-9.77c-0.82-2.85,1.32-5.69,4.28-5.69
						l15.39-0.15c1.99,0,3.73,1.31,4.28,3.22l3.41,12.24C122.23,145.22,120.38,147.81,117.2,147.81z"/>
					<path class="st85" d="M155.7,130.58l-31.98,0.12c-0.51,0-1.04-0.41-1.19-0.92l-0.43-1.56c-0.13-0.45,0.21-0.91,0.68-0.91
						l32.35-0.12c0.32,0,0.6,0.21,0.68,0.51l0.54,1.95C156.5,130.16,156.21,130.58,155.7,130.58z"/>
					<path class="st85" d="M157.93,137.6l-31.98,0.12c-0.51,0-1.04-0.41-1.19-0.92l-0.43-1.56c-0.13-0.45,0.21-0.91,0.68-0.91
						l32.35-0.12c0.32,0,0.6,0.21,0.68,0.51l0.54,1.95C158.73,137.19,158.43,137.6,157.93,137.6z"/>
					<path class="st85" d="M124.57,177.29l-13.12,0.15c-3.19,0-6.52-2.59-7.44-5.77l-2.7-9.77c-0.82-2.85,1.32-5.69,4.28-5.69
						l15.39-0.15c1.99,0,3.73,1.31,4.28,3.22l3.41,12.24C129.6,174.7,127.75,177.29,124.57,177.29z"/>
					<path class="st85" d="M164.33,160.59l-31.98,0.12c-0.51,0-1.04-0.41-1.19-0.92l-0.43-1.56c-0.13-0.45,0.21-0.91,0.68-0.91
						l32.35-0.12c0.32,0,0.6,0.21,0.68,0.51l0.54,1.95C165.14,160.18,164.84,160.59,164.33,160.59z"/>
					<path class="st85" d="M151.65,168.62l-17.7,0.1c-0.51,0-1.04-0.41-1.19-0.92l-0.43-1.56c-0.13-0.45,0.21-0.91,0.68-0.91
						l18.06-0.1c0.32,0,0.6,0.21,0.68,0.51l0.54,1.95C152.45,168.21,152.16,168.62,151.65,168.62z"/>
					<path class="st85" d="M145,145.39l-17.42,0.06c-0.51,0-1.04-0.41-1.19-0.92l-0.43-1.56c-0.13-0.45,0.21-0.91,0.68-0.91
						l17.78-0.06c0.32,0,0.6,0.21,0.68,0.51l0.54,1.95C145.81,144.98,145.51,145.39,145,145.39z"/>
				</g>
			</g>
			<path class="st88" d="M132.64,75.68l-41.48-0.07c-0.48,0-0.99-0.39-1.12-0.87l-0.22-0.67c-0.12-0.43,0.2-0.86,0.65-0.86
				l41.82,0.07c0.3,0,0.56,0.2,0.65,0.49l0.33,1.04C133.4,75.29,133.13,75.68,132.64,75.68z"/>
			<path class="st85" d="M177.82,156.78c0.5-1.48,1.41-3.09,2.11-4.97h-17.6c-3.42,14.79-4.66,28.15-4.66,28.15l4,49.87l7.06,0.08
				c0.59-6.9,0.69-29.12,2.84-48.88C172.7,170.52,176.35,161.17,177.82,156.78z"/>
			<g>
				<path class="st85" d="M191.79,156.78c0.36-1.39,0.65-3.09,0.89-4.97h-17.6c0.24,14.79,2.29,28.15,2.29,28.15l16.03,50.03
					l6.92-0.3c0.6-4.82-5.53-30.67-8.28-50.56C190.59,168.8,191,159.8,191.79,156.78z"/>
			</g>
			<path class="st85" d="M192.3,107.83c-0.82-4.28-1.1-8.61,0.09-11.61c2.1-5.31,2.11-14.69,1.04-21.29
				c3.25,4.28,6.79,9.78,7.47,14.2C201.69,94.33,196.47,102.37,192.3,107.83z"/>
			<path class="st90" d="M196.71,168.99c-6.83,1.58-13.8,2.38-20.77,2.38c-6.05,0-12.08-0.6-18.04-1.79l-2.93-0.59
				c0,0,1.23-37.51,4.73-43.15c0,0,25.79,1.69,35.8-3.04c0.51,3.88,0.76,10.02-1.04,16.88
				C191.42,151.29,197.32,161.26,196.71,168.99z"/>
			<path class="st91" d="M169.33,67.16c0,0-5.04,6.67-6.87,10.43c-1.52,3.13-6.11,10.08,1.07,18.63c7.18,8.55-3.82,25.35-3.82,29.62
				c0,0,27.94,1.83,36.95-3.66c0,0-7.48-17.86-4.28-25.96c3.21-8.09,1.53-25.65-1.37-28.4C188.11,65.07,169.33,67.16,169.33,67.16z"
				/>
			<path class="st85" d="M163.28,47.02c0,0-5.34,14.82,6.11,14.81v5.4h10.19V48.15c0,0-8.16-3.25-8.4-3.25
				S163.28,47.02,163.28,47.02z"/>
			<path class="st92" d="M169.5,66.95h1.88c-0.04-1.86,0.01-3.57,0.27-3.96c0.62-0.95,1.78-2.45,1.78-2.45
				c-0.75,0.37-3.93,0.93-3.93,0.93V66.95z"/>
			<path class="st93" d="M160.21,170.01c-1.22-10.06,2.65-31.14,5.6-45.45l-6.1,1.28c-3.51,5.65-4.73,43.16-4.73,43.16l2.93,0.59
				C158.67,169.74,159.44,169.88,160.21,170.01z"/>
			<path class="st94" d="M174.32,84.72c3.61-4.83,1.63-10.64,1.63-10.64l-13.15,2.85c-0.12,0.23-0.24,0.45-0.34,0.66
				c-1.52,3.13-6.11,10.08,1.07,18.63c7.18,8.55-3.82,25.35-3.82,29.62c0,0,2.3,0.15,5.79,0.24c1.62-7.95,3.03-14.13,3.29-15.73
				c0.76-4.66-0.13-10.87-2.26-14.73C164.39,91.74,170.7,89.55,174.32,84.72z"/>
			<path class="st85" d="M118.97,67.87l29.13,28.04c1.45,1.54,3.81,1.8,5.56,0.59c8.03-5.55,29.05-20.57,19.58-26.1
				c-5.77-3.36-24.51,14.7-24.51,14.7l-25.47-19.44c0,0-0.94-3.22-1.87-3.7c-0.93-0.47-9.41-1.07-8.77-0.38
				c0.64,0.69,5.06,1.74,5.06,1.74S117.11,67.23,118.97,67.87z"/>
			<path class="st92" d="M174.09,71c-0.25-0.21-0.53-0.41-0.85-0.59c-5.77-3.36-24.51,14.7-24.51,14.7l-25.47-19.44
				c0,0,23.9,21.68,25.7,21.68C150.62,87.35,165.03,71.58,174.09,71z"/>
			<path class="st90" d="M172.53,50.77c0,0,2.27-1.53,3.68,0.74c0.84,1.35-1.08,3-1.94,4.97c-0.86,1.96-1.04,4.76,2.76,6.05
				c3.8,1.29-5.89,9.9-1.64,16.69c4.95,7.89,13.83,8.06,18.43,1.13c4.6-6.93,0.5-11.32-1.83-14.76c-2.33-3.43-0.65-3.53-0.35-6.23
				c0.31-2.7-2.6-6.28-4.01-7.14c-1.41-0.86,1.28-9.49-3.87-12.37c-5.15-2.88-15.64-6.15-20.91,7.52
				C162.86,47.37,166.37,50.38,172.53,50.77z"/>
			<path class="st92" d="M195.77,229.88l-2.39,0.1l-16.03-50.02c0,0-0.51-3.36-1.06-8.58c1.59-0.01,3.19-0.06,4.78-0.14
				c0,3.32,0.16,8.01,1.02,12.27C183.34,189.75,193.38,222.19,195.77,229.88z"/>
			<path class="st92" d="M191.31,171.84c-4.3,1.35-11.91,1.57-14.72,1.6c-0.11-0.93-0.18-0.96-0.3-2.06
				c4.98-0.02,9.96-0.45,14.89-1.28C191.23,170.98,191.24,170.9,191.31,171.84z"/>
			<path class="st85" d="M161.27,171.92c0,0-1.73,4.26-1.58,8.67c0.13,3.72,3.17,38.39,4.13,49.26l-2.16-0.02l-4-49.87
				c0,0,0.38-4.06,1.29-10.17c4.74,0.9,9.54,1.41,14.34,1.55c-0.14,0.53-0.26,1.08-0.38,1.63
				C170.14,172.82,163.04,172.42,161.27,171.92z"/>
			<path class="st88" d="M127.44,80.97l-29.5-0.07c-0.48,0-0.99-0.39-1.12-0.87l-0.22-0.67c-0.12-0.43,0.2-0.86,0.65-0.86
				l29.85,0.07c0.3,0,0.56,0.2,0.65,0.49l0.33,1.04C128.2,80.58,127.92,80.97,127.44,80.97z"/>
			<path class="st88" d="M142.98,105.23l-41.48-0.07c-0.48,0-0.99-0.39-1.12-0.87l-0.22-0.67c-0.12-0.43,0.2-0.86,0.65-0.86
				l41.82,0.07c0.3,0,0.56,0.2,0.65,0.49l0.33,1.04C143.74,104.84,143.47,105.23,142.98,105.23z"/>
			<path class="st88" d="M137.78,110.52l-29.5-0.07c-0.48,0-0.99-0.39-1.12-0.87l-0.22-0.67c-0.12-0.43,0.2-0.86,0.65-0.86
				l29.85,0.07c0.3,0,0.56,0.2,0.65,0.49l0.33,1.04C138.54,110.12,138.26,110.52,137.78,110.52z"/>
		</g>
	</g>
</g>
</svg>
