<?xml version="1.0" encoding="utf-8"?>
<!-- Generator: Adobe Illustrator 23.0.1, SVG Export Plug-In . SVG Version: 6.00 Build 0)  -->
<svg version="1.1" id="Capa_1" xmlns="http://www.w3.org/2000/svg" xmlns:xlink="http://www.w3.org/1999/xlink" x="0px" y="0px"
	 viewBox="0 0 254 200" style="enable-background:new 0 0 254 200;" xml:space="preserve">
<style type="text/css">
	.st0{fill-rule:evenodd;clip-rule:evenodd;fill:#685BC7;}
	.st1{clip-path:url(#SVGID_2_);}
	.st2{clip-path:url(#SVGID_4_);}
	.st3{clip-path:url(#SVGID_6_);fill:#A7A4E0;}
	.st4{clip-path:url(#SVGID_8_);}
	.st5{clip-path:url(#SVGID_10_);enable-background:new    ;}
	.st6{clip-path:url(#SVGID_12_);}
	.st7{clip-path:url(#SVGID_14_);}
	.st8{clip-path:url(#SVGID_16_);fill:#FFFFFF;}
	.st9{clip-path:url(#SVGID_18_);}
	.st10{clip-path:url(#SVGID_20_);fill:#CDEBF1;}
	.st11{clip-path:url(#SVGID_22_);}
	.st12{clip-path:url(#SVGID_24_);fill:#D0D2D3;}
	.st13{clip-path:url(#SVGID_26_);}
	.st14{clip-path:url(#SVGID_28_);fill:#3A3A2B;}
	.st15{clip-path:url(#SVGID_30_);}
	.st16{clip-path:url(#SVGID_32_);fill:#D0D2D3;}
	.st17{clip-path:url(#SVGID_34_);}
	.st18{clip-path:url(#SVGID_36_);fill:#D0D2D3;}
	.st19{clip-path:url(#SVGID_38_);}
	.st20{clip-path:url(#SVGID_40_);fill:#D0D2D3;}
	.st21{clip-path:url(#SVGID_42_);}
	.st22{clip-path:url(#SVGID_44_);fill:#D0D2D3;}
	.st23{clip-path:url(#SVGID_46_);}
	.st24{clip-path:url(#SVGID_48_);fill:#D0D2D3;}
	.st25{clip-path:url(#SVGID_50_);}
	.st26{clip-path:url(#SVGID_52_);fill:#D0D2D3;}
	.st27{clip-path:url(#SVGID_54_);}
	.st28{clip-path:url(#SVGID_56_);fill:#FFFFFF;}
	.st29{clip-path:url(#SVGID_58_);}
	.st30{clip-path:url(#SVGID_60_);fill:#9BE3BF;}
	.st31{clip-path:url(#SVGID_62_);}
	.st32{clip-path:url(#SVGID_64_);fill:#685BC7;}
	.st33{clip-path:url(#SVGID_66_);}
	.st34{clip-path:url(#SVGID_68_);fill:#9BE3BF;}
	.st35{clip-path:url(#SVGID_70_);}
	.st36{clip-path:url(#SVGID_72_);fill:#685BC7;}
	.st37{clip-path:url(#SVGID_74_);}
	.st38{clip-path:url(#SVGID_76_);fill:#9BE3BF;}
	.st39{clip-path:url(#SVGID_78_);}
	.st40{clip-path:url(#SVGID_80_);fill:#9BE3BF;}
	.st41{clip-path:url(#SVGID_82_);}
	.st42{clip-path:url(#SVGID_84_);fill:#9BE3BF;}
	.st43{clip-path:url(#SVGID_86_);}
	.st44{clip-path:url(#SVGID_88_);fill:#685BC7;}
	.st45{clip-path:url(#SVGID_90_);}
	.st46{clip-path:url(#SVGID_92_);fill:#685BC7;}
	.st47{clip-path:url(#SVGID_94_);}
	.st48{clip-path:url(#SVGID_96_);fill:#685BC7;}
	.st49{clip-path:url(#SVGID_98_);}
	.st50{clip-path:url(#SVGID_100_);fill:#685BC7;}
	.st51{clip-path:url(#SVGID_102_);}
	.st52{clip-path:url(#SVGID_104_);fill:#685BC7;}
	.st53{clip-path:url(#SVGID_106_);}
	.st54{clip-path:url(#SVGID_108_);fill:#39207C;}
	.st55{clip-path:url(#SVGID_110_);}
	.st56{clip-path:url(#SVGID_112_);fill:#514AA5;}
	.st57{clip-path:url(#SVGID_114_);}
	.st58{clip-path:url(#SVGID_116_);fill:#9BE3BF;}
	.st59{clip-path:url(#SVGID_118_);}
	.st60{clip-path:url(#SVGID_120_);fill:#6FC190;}
	.st61{clip-path:url(#SVGID_122_);}
	.st62{clip-path:url(#SVGID_124_);fill:#685BC7;}
	.st63{clip-path:url(#SVGID_126_);}
	.st64{clip-path:url(#SVGID_128_);fill:#39207C;}
	.st65{clip-path:url(#SVGID_130_);}
	.st66{clip-path:url(#SVGID_132_);fill:#9BE3BF;}
	.st67{clip-path:url(#SVGID_134_);}
	.st68{clip-path:url(#SVGID_136_);fill:#6FC190;}
	.st69{clip-path:url(#SVGID_138_);}
	.st70{fill:#A7A4E0;}
	.st71{fill:#F42534;}
	.st72{fill:#39207C;}
	.st73{opacity:0.5;}
	.st74{clip-path:url(#SVGID_140_);}
	.st75{opacity:0.44;fill:#E6E7E8;}
	.st76{fill:#9BE3BF;}
	.st77{fill:#6FC190;}
	.st78{fill:#E6E7E8;}
	.st79{fill:#685BC7;}
	.st80{fill:#CE3232;}
	.st81{fill:#7A7ACC;}
	.st82{fill:#201E68;}
	.st83{fill:#D1D4FC;}
	.st84{clip-path:url(#SVGID_142_);}
	.st85{fill:#A59DE3;}
	.st86{fill:#FFFFFF;}
	.st87{fill:#D8D4DF;}
	.st88{fill:#514A95;}
	.st89{fill:#7327BC;}
	.st90{fill:#442D68;}
	.st91{fill:#8BD3AF;}
	.st92{fill:#7F7FC6;}
	.st93{fill:#2E1B54;}
	.st94{fill:#279F5E;}
	.st95{clip-path:url(#SVGID_144_);}
	.st96{fill:#514AA5;}
	.st97{opacity:0.3;fill:#856AEA;}
	.st98{fill:#F1C40F;}
	.st99{fill:#26D07C;}
	.st100{opacity:0.83;}
	.st101{opacity:0.68;fill:#39207C;}
	.st102{opacity:0.3;fill:#39207C;}
	.st103{opacity:0.7;fill:#9E88ED;}
	.st104{clip-path:url(#SVGID_146_);}
	.st105{opacity:0.2;fill:#764582;}
	.st106{fill:#918ECA;}
	.st107{fill:#514A8F;}
	.st108{fill:none;stroke:#FFFFFF;stroke-width:0.9734;stroke-miterlimit:10;}
	.st109{fill:#9D68AA;}
	.st110{fill:#7F7FC0;}
	.st111{fill-rule:evenodd;clip-rule:evenodd;fill:#7F7FC0;}
	.st112{fill-rule:evenodd;clip-rule:evenodd;fill:#918ECA;}
	.st113{fill-rule:evenodd;clip-rule:evenodd;fill:#BBBED5;}
	.st114{fill-rule:evenodd;clip-rule:evenodd;fill:#27995E;}
	.st115{fill-rule:evenodd;clip-rule:evenodd;fill:#6FAB80;}
	.st116{fill-rule:evenodd;clip-rule:evenodd;fill:#85CDA9;}
	.st117{fill-rule:evenodd;clip-rule:evenodd;fill:#808080;}
	.st118{fill-rule:evenodd;clip-rule:evenodd;fill:#BABCBD;}
	.st119{fill-rule:evenodd;clip-rule:evenodd;fill:#E1E1E1;}
	.st120{fill-rule:evenodd;clip-rule:evenodd;fill:#39207C;}
	.st121{fill-rule:evenodd;clip-rule:evenodd;fill:#9895A4;}
	.st122{fill-rule:evenodd;clip-rule:evenodd;fill:#FFFFFF;}
	.st123{fill-rule:evenodd;clip-rule:evenodd;fill:#685BB1;}
	.st124{clip-path:url(#SVGID_148_);enable-background:new    ;}
	.st125{clip-path:url(#SVGID_150_);}
	.st126{clip-path:url(#SVGID_152_);}
	.st127{clip-path:url(#SVGID_154_);fill:#A7A4E0;}
	.st128{clip-path:url(#SVGID_156_);}
	.st129{clip-path:url(#SVGID_158_);fill:#FFFFFF;}
	.st130{fill:url(#SVGID_159_);}
	.st131{fill:#9794D0;}
	.st132{fill:none;stroke:#A59DE3;stroke-width:5;stroke-miterlimit:10;}
	.st133{fill:url(#SVGID_160_);}
	.st134{clip-path:url(#SVGID_162_);}
	.st135{clip-path:url(#SVGID_164_);fill:#F7F7F7;}
	.st136{fill:#7F7FD6;}
	.st137{fill:#D0D2D3;}
	.st138{fill:#EEEEEE;}
	.st139{fill:#A6A8AB;}
	.st140{fill:#016867;}
	.st141{fill:#FEFDFD;}
	.st142{clip-path:url(#SVGID_166_);}
	.st143{opacity:0.46;}
	.st144{clip-path:url(#SVGID_168_);}
	.st145{fill:#575756;}
	.st146{fill:none;stroke:#39207C;stroke-miterlimit:10;}
	.st147{clip-path:url(#SVGID_170_);}
	.st148{clip-path:url(#SVGID_172_);}
	.st149{clip-path:url(#SVGID_174_);}
	.st150{fill:#F1F1F2;}
	.st151{fill:#F05A28;}
	.st152{clip-path:url(#SVGID_176_);}
	.st153{clip-path:url(#SVGID_178_);fill:#7F7FD6;}
</style>
<circle class="st0" cx="126.5" cy="101" r="83"/>
<g>
	<defs>
		<circle id="SVGID_1_" cx="127" cy="100" r="83"/>
	</defs>
	<clipPath id="SVGID_2_">
		<use xlink:href="#SVGID_1_"  style="overflow:visible;"/>
	</clipPath>
	<g class="st1">
		<defs>
			<path id="SVGID_3_" d="M126.88,138.83c-45.21,0-81.86-7.08-81.86-15.82c0-8.74,36.65-15.82,81.86-15.82
				c45.21,0,81.86,7.08,81.86,15.82C208.73,131.75,172.08,138.83,126.88,138.83z"/>
		</defs>
		<clipPath id="SVGID_4_">
			<use xlink:href="#SVGID_3_"  style="overflow:visible;"/>
		</clipPath>
		<g class="st2">
			<defs>
				<rect id="SVGID_5_" x="47.05" y="7.86" width="166" height="166"/>
			</defs>
			<clipPath id="SVGID_6_">
				<use xlink:href="#SVGID_5_"  style="overflow:visible;"/>
			</clipPath>
			<rect x="38.68" y="100.85" class="st3" width="176.39" height="44.32"/>
		</g>
	</g>
	<g class="st1">
		<defs>
			<rect id="SVGID_7_" x="29.31" y="17.99" width="199.31" height="137.75"/>
		</defs>
		<clipPath id="SVGID_8_">
			<use xlink:href="#SVGID_7_"  style="overflow:visible;"/>
		</clipPath>
		<g class="st4">
			<defs>
				<rect id="SVGID_9_" x="47.05" y="7.86" width="166" height="166"/>
			</defs>
			<clipPath id="SVGID_10_">
				<use xlink:href="#SVGID_9_"  style="overflow:visible;"/>
			</clipPath>
			<g class="st5">
				<g>
					<defs>
						<rect id="SVGID_11_" x="35.64" y="42.07" width="167.27" height="101.37"/>
					</defs>
					<clipPath id="SVGID_12_">
						<use xlink:href="#SVGID_11_"  style="overflow:visible;"/>
					</clipPath>
					<g class="st6">
						<defs>
							<rect id="SVGID_13_" x="152.36" y="47.34" width="27.67" height="0.57"/>
						</defs>
						<clipPath id="SVGID_14_">
							<use xlink:href="#SVGID_13_"  style="overflow:visible;"/>
						</clipPath>
						<g class="st7">
							<defs>
								<rect id="SVGID_15_" x="47.05" y="16.73" width="166" height="139.39"/>
							</defs>
							<clipPath id="SVGID_16_">
								<use xlink:href="#SVGID_15_"  style="overflow:visible;"/>
							</clipPath>
							<rect x="146.02" y="41" class="st8" width="40.34" height="13.24"/>
						</g>
					</g>
					<g class="st6">
						<defs>
							<path id="SVGID_17_" d="M163.16,58.77L163.16,58.77c-0.01-0.21-0.06-0.36-0.32-0.36h-3.15c-0.36,0-0.32,0.29-0.32,0.65v2.47
								c-0.27-0.04-0.59,0.01-0.88,0.17c-0.59,0.31-0.88,0.93-0.64,1.37c0.24,0.44,0.9,0.54,1.49,0.23c0.43-0.23,0.7-0.62,0.72-0.99
								V62.3c0-0.02,0-0.03,0-0.05v-1.71h2.41v0.99c-0.27-0.04-0.59,0.01-0.88,0.17c-0.59,0.31-0.88,0.93-0.64,1.37
								c0.23,0.44,0.9,0.54,1.49,0.23c0.43-0.23,0.7-0.62,0.72-0.99h0v-3.24c0-0.1,0-0.19,0-0.28V58.77z M160.07,60.11h2.41v-0.39
								h-2.41V60.11z"/>
						</defs>
						<clipPath id="SVGID_18_">
							<use xlink:href="#SVGID_17_"  style="overflow:visible;"/>
						</clipPath>
						<g class="st9">
							<defs>
								<rect id="SVGID_19_" x="47.05" y="16.73" width="166" height="139.39"/>
							</defs>
							<clipPath id="SVGID_20_">
								<use xlink:href="#SVGID_19_"  style="overflow:visible;"/>
							</clipPath>
							<rect x="151.43" y="52.07" class="st10" width="18.07" height="17.74"/>
						</g>
					</g>
					<g class="st6">
						<defs>
							<path id="SVGID_21_" d="M181.94,107.75c0,1.76-1.43,3.19-3.19,3.19H82.04c-1.76,0-3.18-1.42-3.18-3.19V46
								c0-1.76,1.43-3.19,3.18-3.19h96.71c1.76,0,3.19,1.43,3.19,3.19V107.75z"/>
						</defs>
						<clipPath id="SVGID_22_">
							<use xlink:href="#SVGID_21_"  style="overflow:visible;"/>
						</clipPath>
						<g class="st11">
							<defs>
								<rect id="SVGID_23_" x="47.05" y="16.73" width="166" height="139.39"/>
							</defs>
							<clipPath id="SVGID_24_">
								<use xlink:href="#SVGID_23_"  style="overflow:visible;"/>
							</clipPath>
							<rect x="72.52" y="36.48" class="st12" width="115.75" height="80.79"/>
						</g>
					</g>
					<g class="st6">
						<defs>
							<path id="SVGID_25_" d="M197.86,120.16h-4.31H66.29h-4.31h-2.31v3.82c0,0.61,1.04,1.1,2.31,1.1h4.31h127.25h5.36
								c1.28,0,2.31-0.49,2.31-1.1v-3.95L197.86,120.16z"/>
						</defs>
						<clipPath id="SVGID_26_">
							<use xlink:href="#SVGID_25_"  style="overflow:visible;"/>
						</clipPath>
						<g class="st13">
							<defs>
								<rect id="SVGID_27_" x="47.05" y="16.73" width="166" height="139.39"/>
							</defs>
							<clipPath id="SVGID_28_">
								<use xlink:href="#SVGID_27_"  style="overflow:visible;"/>
							</clipPath>
							<rect x="53.33" y="113.69" class="st14" width="154.23" height="17.72"/>
						</g>
					</g>
					<g class="st6">
						<defs>
							<path id="SVGID_29_" d="M200.93,119.73c1.19,0.56-1.46,1.04-5.97,1.04H65.93c-4.59,0-7.45-0.33-5.93-1.05l18.81-8.25
								c0.7-0.31,3.86-0.54,7.09-0.54l90.81,0.06c3.18,0,6.27,0.25,6.91,0.55L200.93,119.73z"/>
						</defs>
						<clipPath id="SVGID_30_">
							<use xlink:href="#SVGID_29_"  style="overflow:visible;"/>
						</clipPath>
						<g class="st15">
							<defs>
								<rect id="SVGID_31_" x="47.05" y="16.73" width="166" height="139.39"/>
							</defs>
							<clipPath id="SVGID_32_">
								<use xlink:href="#SVGID_31_"  style="overflow:visible;"/>
							</clipPath>
							<rect x="53.25" y="104.6" class="st16" width="154.3" height="22.51"/>
						</g>
					</g>
					<g class="st6">
						<defs>
							<path id="SVGID_33_" d="M153.57,119.28c0.35,0.55-2.97,1.01-7.45,1.01h-31.44c-4.5,0-7.77-0.46-7.32-1.02l1.79-2.2
								c0.38-0.46,3.87-0.83,7.81-0.83l27.55,0.01c3.92,0,7.34,0.37,7.64,0.83L153.57,119.28z"/>
						</defs>
						<clipPath id="SVGID_34_">
							<use xlink:href="#SVGID_33_"  style="overflow:visible;"/>
						</clipPath>
						<g class="st17">
							<defs>
								<rect id="SVGID_35_" x="47.05" y="16.73" width="166" height="139.39"/>
							</defs>
							<clipPath id="SVGID_36_">
								<use xlink:href="#SVGID_35_"  style="overflow:visible;"/>
							</clipPath>
							<rect x="100.98" y="109.92" class="st18" width="58.95" height="16.71"/>
						</g>
					</g>
					<g class="st6">
						<defs>
							<path id="SVGID_37_" d="M107.36,119.28l1.79-2.2c0.35-0.43,3.43-0.78,7.04-0.82c-0.08-0.02-0.17-0.04-0.25-0.06
								c-3.8,0.06-7.02,0.42-7.4,0.88l-1.84,2.2c-0.44,0.52,2.22,0.97,6.17,1.08c0.12-0.02,0.24-0.05,0.36-0.08
								C109.5,120.19,106.96,119.77,107.36,119.28"/>
						</defs>
						<clipPath id="SVGID_38_">
							<use xlink:href="#SVGID_37_"  style="overflow:visible;"/>
						</clipPath>
						<g class="st19">
							<defs>
								<rect id="SVGID_39_" x="47.05" y="16.73" width="166" height="139.39"/>
							</defs>
							<clipPath id="SVGID_40_">
								<use xlink:href="#SVGID_39_"  style="overflow:visible;"/>
							</clipPath>
							<rect x="100.32" y="109.86" class="st20" width="22.21" height="16.83"/>
						</g>
					</g>
					<g class="st6">
						<defs>
							<path id="SVGID_41_" d="M144.49,116.2L117,116.19c-0.36,0-0.71,0-1.06,0.01c0.08,0.02,0.17,0.04,0.25,0.06
								c0.26,0,0.51,0,0.77,0l27.55,0.01c0.19,0,0.37,0,0.55,0c0.06-0.02,0.11-0.05,0.16-0.07
								C144.99,116.2,144.74,116.2,144.49,116.2"/>
						</defs>
						<clipPath id="SVGID_42_">
							<use xlink:href="#SVGID_41_"  style="overflow:visible;"/>
						</clipPath>
						<g class="st21">
							<defs>
								<rect id="SVGID_43_" x="47.05" y="16.73" width="166" height="139.39"/>
							</defs>
							<clipPath id="SVGID_44_">
								<use xlink:href="#SVGID_43_"  style="overflow:visible;"/>
							</clipPath>
							<rect x="109.61" y="109.85" class="st22" width="41.96" height="12.75"/>
						</g>
					</g>
					<g class="st6">
						<defs>
							<path id="SVGID_45_" d="M146.12,120.3h-31.44c-0.5,0-0.98-0.01-1.44-0.02c-0.12,0.03-0.25,0.06-0.36,0.08
								c0.56,0.02,1.15,0.02,1.76,0.02l31.52,0c0.26,0,0.52,0,0.77-0.01c-0.08-0.03-0.16-0.06-0.24-0.08
								C146.5,120.29,146.31,120.3,146.12,120.3"/>
						</defs>
						<clipPath id="SVGID_46_">
							<use xlink:href="#SVGID_45_"  style="overflow:visible;"/>
						</clipPath>
						<g class="st23">
							<defs>
								<rect id="SVGID_47_" x="47.05" y="16.73" width="166" height="139.39"/>
							</defs>
							<clipPath id="SVGID_48_">
								<use xlink:href="#SVGID_47_"  style="overflow:visible;"/>
							</clipPath>
							<rect x="106.54" y="113.94" class="st24" width="46.72" height="12.78"/>
						</g>
					</g>
					<g class="st6">
						<defs>
							<path id="SVGID_49_" d="M145.23,116.2c-0.05,0.02-0.1,0.04-0.16,0.07c3.68,0.03,6.8,0.38,7.08,0.83l1.42,2.19
								c0.34,0.53-2.69,0.97-6.88,1.01c0.08,0.03,0.15,0.06,0.24,0.08c4.46-0.05,7.67-0.53,7.3-1.09l-1.46-2.19
								C152.45,116.62,149.14,116.25,145.23,116.2"/>
						</defs>
						<clipPath id="SVGID_50_">
							<use xlink:href="#SVGID_49_"  style="overflow:visible;"/>
						</clipPath>
						<g class="st25">
							<defs>
								<rect id="SVGID_51_" x="47.05" y="16.73" width="166" height="139.39"/>
							</defs>
							<clipPath id="SVGID_52_">
								<use xlink:href="#SVGID_51_"  style="overflow:visible;"/>
							</clipPath>
							<rect x="138.74" y="109.87" class="st26" width="21.85" height="16.85"/>
						</g>
					</g>
					<g class="st6">
						<defs>
							<polygon id="SVGID_53_" points="82.84,51.15 82.84,106.8 175.96,106.8 177.95,106.8 177.95,51.15 							"/>
						</defs>
						<clipPath id="SVGID_54_">
							<use xlink:href="#SVGID_53_"  style="overflow:visible;"/>
						</clipPath>
						<g class="st27">
							<defs>
								<rect id="SVGID_55_" x="47.05" y="16.73" width="166" height="139.39"/>
							</defs>
							<clipPath id="SVGID_56_">
								<use xlink:href="#SVGID_55_"  style="overflow:visible;"/>
							</clipPath>
							<rect x="76.51" y="44.81" class="st28" width="107.78" height="68.33"/>
						</g>
					</g>
					<g class="st6">
						<defs>
							<rect id="SVGID_57_" x="92.55" y="60.67" width="75.7" height="13.01"/>
						</defs>
						<clipPath id="SVGID_58_">
							<use xlink:href="#SVGID_57_"  style="overflow:visible;"/>
						</clipPath>
						<g class="st29">
							<defs>
								<rect id="SVGID_59_" x="47.05" y="16.73" width="166" height="139.39"/>
							</defs>
							<clipPath id="SVGID_60_">
								<use xlink:href="#SVGID_59_"  style="overflow:visible;"/>
							</clipPath>
							<rect x="86.21" y="54.33" class="st30" width="88.38" height="25.68"/>
						</g>
					</g>
					<g class="st6">
						<defs>
							<rect id="SVGID_61_" x="92.55" y="77.3" width="75.7" height="1.82"/>
						</defs>
						<clipPath id="SVGID_62_">
							<use xlink:href="#SVGID_61_"  style="overflow:visible;"/>
						</clipPath>
						<g class="st31">
							<defs>
								<rect id="SVGID_63_" x="47.05" y="16.73" width="166" height="139.39"/>
							</defs>
							<clipPath id="SVGID_64_">
								<use xlink:href="#SVGID_63_"  style="overflow:visible;"/>
							</clipPath>
							<rect x="86.21" y="70.97" class="st32" width="88.38" height="14.49"/>
						</g>
					</g>
					<g class="st6">
						<defs>
							<rect id="SVGID_65_" x="92.55" y="83.03" width="6.23" height="6.23"/>
						</defs>
						<clipPath id="SVGID_66_">
							<use xlink:href="#SVGID_65_"  style="overflow:visible;"/>
						</clipPath>
						<g class="st33">
							<defs>
								<rect id="SVGID_67_" x="47.05" y="16.73" width="166" height="139.39"/>
							</defs>
							<clipPath id="SVGID_68_">
								<use xlink:href="#SVGID_67_"  style="overflow:visible;"/>
							</clipPath>
							<rect x="86.21" y="76.69" class="st34" width="18.9" height="18.9"/>
						</g>
					</g>
					<g class="st6">
						<defs>
							<rect id="SVGID_69_" x="95.66" y="65.26" width="12.1" height="3.81"/>
						</defs>
						<clipPath id="SVGID_70_">
							<use xlink:href="#SVGID_69_"  style="overflow:visible;"/>
						</clipPath>
						<g class="st35">
							<defs>
								<rect id="SVGID_71_" x="47.05" y="16.73" width="166" height="139.39"/>
							</defs>
							<clipPath id="SVGID_72_">
								<use xlink:href="#SVGID_71_"  style="overflow:visible;"/>
							</clipPath>
							<rect x="89.33" y="58.93" class="st36" width="24.77" height="16.48"/>
						</g>
					</g>
					<g class="st6">
						<defs>
							<rect id="SVGID_73_" x="101.53" y="83.03" width="6.23" height="6.23"/>
						</defs>
						<clipPath id="SVGID_74_">
							<use xlink:href="#SVGID_73_"  style="overflow:visible;"/>
						</clipPath>
						<g class="st37">
							<defs>
								<rect id="SVGID_75_" x="47.05" y="16.73" width="166" height="139.39"/>
							</defs>
							<clipPath id="SVGID_76_">
								<use xlink:href="#SVGID_75_"  style="overflow:visible;"/>
							</clipPath>
							<rect x="95.2" y="76.69" class="st38" width="18.9" height="18.9"/>
						</g>
					</g>
					<g class="st6">
						<defs>
							<rect id="SVGID_77_" x="92.55" y="91.31" width="6.23" height="6.23"/>
						</defs>
						<clipPath id="SVGID_78_">
							<use xlink:href="#SVGID_77_"  style="overflow:visible;"/>
						</clipPath>
						<g class="st39">
							<defs>
								<rect id="SVGID_79_" x="47.05" y="16.73" width="166" height="139.39"/>
							</defs>
							<clipPath id="SVGID_80_">
								<use xlink:href="#SVGID_79_"  style="overflow:visible;"/>
							</clipPath>
							<rect x="86.21" y="84.97" class="st40" width="18.9" height="18.9"/>
						</g>
					</g>
					<g class="st6">
						<defs>
							<rect id="SVGID_81_" x="101.53" y="91.31" width="6.23" height="6.23"/>
						</defs>
						<clipPath id="SVGID_82_">
							<use xlink:href="#SVGID_81_"  style="overflow:visible;"/>
						</clipPath>
						<g class="st41">
							<defs>
								<rect id="SVGID_83_" x="47.05" y="16.73" width="166" height="139.39"/>
							</defs>
							<clipPath id="SVGID_84_">
								<use xlink:href="#SVGID_83_"  style="overflow:visible;"/>
							</clipPath>
							<rect x="95.2" y="84.97" class="st42" width="18.9" height="18.9"/>
						</g>
					</g>
					<g class="st6">
						<defs>
							<rect id="SVGID_85_" x="112.97" y="83.02" width="55.28" height="2.68"/>
						</defs>
						<clipPath id="SVGID_86_">
							<use xlink:href="#SVGID_85_"  style="overflow:visible;"/>
						</clipPath>
						<g class="st43">
							<defs>
								<rect id="SVGID_87_" x="47.05" y="16.73" width="166" height="139.39"/>
							</defs>
							<clipPath id="SVGID_88_">
								<use xlink:href="#SVGID_87_"  style="overflow:visible;"/>
							</clipPath>
							<rect x="106.63" y="76.69" class="st44" width="67.95" height="15.35"/>
						</g>
					</g>
					<g class="st6">
						<defs>
							<rect id="SVGID_89_" x="112.97" y="89.76" width="23.64" height="2.18"/>
						</defs>
						<clipPath id="SVGID_90_">
							<use xlink:href="#SVGID_89_"  style="overflow:visible;"/>
						</clipPath>
						<g class="st45">
							<defs>
								<rect id="SVGID_91_" x="47.05" y="16.73" width="166" height="139.39"/>
							</defs>
							<clipPath id="SVGID_92_">
								<use xlink:href="#SVGID_91_"  style="overflow:visible;"/>
							</clipPath>
							<rect x="106.63" y="83.42" class="st46" width="36.31" height="14.85"/>
						</g>
					</g>
					<g class="st6">
						<defs>
							<rect id="SVGID_93_" x="142.58" y="89.76" width="23.05" height="2.18"/>
						</defs>
						<clipPath id="SVGID_94_">
							<use xlink:href="#SVGID_93_"  style="overflow:visible;"/>
						</clipPath>
						<g class="st47">
							<defs>
								<rect id="SVGID_95_" x="47.05" y="16.73" width="166" height="139.39"/>
							</defs>
							<clipPath id="SVGID_96_">
								<use xlink:href="#SVGID_95_"  style="overflow:visible;"/>
							</clipPath>
							<rect x="136.25" y="83.42" class="st48" width="35.72" height="14.85"/>
						</g>
					</g>
					<g class="st6">
						<defs>
							<rect id="SVGID_97_" x="112.97" y="95.96" width="23.64" height="1.58"/>
						</defs>
						<clipPath id="SVGID_98_">
							<use xlink:href="#SVGID_97_"  style="overflow:visible;"/>
						</clipPath>
						<g class="st49">
							<defs>
								<rect id="SVGID_99_" x="47.05" y="16.73" width="166" height="139.39"/>
							</defs>
							<clipPath id="SVGID_100_">
								<use xlink:href="#SVGID_99_"  style="overflow:visible;"/>
							</clipPath>
							<rect x="106.63" y="89.62" class="st50" width="36.31" height="14.25"/>
						</g>
					</g>
					<g class="st6">
						<defs>
							<rect id="SVGID_101_" x="142.58" y="95.96" width="23.05" height="1.58"/>
						</defs>
						<clipPath id="SVGID_102_">
							<use xlink:href="#SVGID_101_"  style="overflow:visible;"/>
						</clipPath>
						<g class="st51">
							<defs>
								<rect id="SVGID_103_" x="47.05" y="16.73" width="166" height="139.39"/>
							</defs>
							<clipPath id="SVGID_104_">
								<use xlink:href="#SVGID_103_"  style="overflow:visible;"/>
							</clipPath>
							<rect x="136.25" y="89.62" class="st52" width="35.72" height="14.25"/>
						</g>
					</g>
					<g class="st6">
						<defs>
							<path id="SVGID_105_" d="M82.13,89.31c1.45-1.81,1.31-4.13,2.95-4.89c0.72-0.33,1.97-1.13,3.15-1.92c1.51-1.01,2.9-2,2.9-2
								s1.1-1.09,0.76-2.16c-0.34-1.07-2.55-1.83-4.86-1.17c-2.31,0.66-6.55,3.25-7,4.05c-0.45,0.81-2.58,4.82-2.93,5.78
								c-0.44,1.2-3.64,4.53-4.56,5.66c-0.92,1.13-1.8,5.33-2.42,6c-0.63,0.67-2.94,2.72-6.21,3.99c-3.27,1.27,0.04,7.14,1.09,8.58
								c1.05,1.44,1.35,2.51,1.35,2.51s1.94,0.4,4.07-0.25c4.69-1.43,7.62-0.3,9.14-2.55c1.52-2.25,2.1-18.64,2.33-20.13
								L82.13,89.31z"/>
						</defs>
						<clipPath id="SVGID_106_">
							<use xlink:href="#SVGID_105_"  style="overflow:visible;"/>
						</clipPath>
						<g class="st53">
							<defs>
								<rect id="SVGID_107_" x="47.05" y="16.73" width="166" height="139.39"/>
							</defs>
							<clipPath id="SVGID_108_">
								<use xlink:href="#SVGID_107_"  style="overflow:visible;"/>
							</clipPath>
							<rect x="56.17" y="70.58" class="st54" width="42.13" height="49.61"/>
						</g>
					</g>
					<g class="st6">
						<defs>
							<path id="SVGID_109_" d="M79.75,109.94c1.74-2.09,2.08-19.09,2.08-19.09c-0.52-0.05-3.33,3.58-5.05,7.78
								c0,0-0.74,2.46-1.14,5.03C75.1,107.05,79.21,110.59,79.75,109.94"/>
						</defs>
						<clipPath id="SVGID_110_">
							<use xlink:href="#SVGID_109_"  style="overflow:visible;"/>
						</clipPath>
						<g class="st55">
							<defs>
								<rect id="SVGID_111_" x="47.05" y="16.73" width="166" height="139.39"/>
							</defs>
							<clipPath id="SVGID_112_">
								<use xlink:href="#SVGID_111_"  style="overflow:visible;"/>
							</clipPath>
							<rect x="69.25" y="84.52" class="st56" width="18.92" height="31.84"/>
						</g>
					</g>
					<g class="st6">
						<defs>
							<path id="SVGID_113_" d="M36.54,140.25c0.03,0.87,0.47,2.02,2.31,0.95c9.9-5.74,14.02-11.57,21.42-17.55
								c2.29-1.86,7.83-7.18,8.59-7.6c0.97-0.54,1.55-1.34,1.33-2.06c-1.42-4.67-3.67-11.59-4.12-12.23
								c-0.59-0.83-1.7-0.58-2.22-0.28c-2.83,1.69-22.03,12.14-23.22,12.91c-0.19,0.12-1.61,0.13-2.32,2.31
								C38.31,116.69,36.44,137.08,36.54,140.25"/>
						</defs>
						<clipPath id="SVGID_114_">
							<use xlink:href="#SVGID_113_"  style="overflow:visible;"/>
						</clipPath>
						<g class="st57">
							<defs>
								<rect id="SVGID_115_" x="47.05" y="16.73" width="166" height="139.39"/>
							</defs>
							<clipPath id="SVGID_116_">
								<use xlink:href="#SVGID_115_"  style="overflow:visible;"/>
							</clipPath>
							<rect x="30.2" y="94.85" class="st58" width="46.36" height="53.12"/>
						</g>
					</g>
					<g class="st6">
						<defs>
							<path id="SVGID_117_" d="M37.11,130.45c-0.14,2.9-0.65,4.79-0.57,10.21c0.01,0.86,0.82,1.17,1.62,0.84
								c4.57-1.91,10.52-7.36,14.18-10.69c8.1-7.4,15.87-14.15,16.44-14.58c0.83-0.63,1.62-1.37,1.44-2.1
								c-1.2-4.97-2.66-8.29-2.79-8.79c-0.17-0.62-1.08-3.18-1.47-3.73c-0.17-0.23-0.33,0.49-0.2,1.4c0.03,0.23,2.76,8.56,2.19,9.68
								c-0.94,1.84-10.62,1.78-15.35,6.01c-4.45,3.98-10.44,8.96-13.63,10.19C37.82,129.33,37.11,130.45,37.11,130.45"/>
						</defs>
						<clipPath id="SVGID_118_">
							<use xlink:href="#SVGID_117_"  style="overflow:visible;"/>
						</clipPath>
						<g class="st59">
							<defs>
								<rect id="SVGID_119_" x="47.05" y="16.73" width="166" height="139.39"/>
							</defs>
							<clipPath id="SVGID_120_">
								<use xlink:href="#SVGID_119_"  style="overflow:visible;"/>
							</clipPath>
							<rect x="30.19" y="95.23" class="st60" width="46.38" height="52.74"/>
						</g>
					</g>
					<g class="st6">
						<defs>
							<path id="SVGID_121_" d="M162.9,64.46h-0.14h-8.04c-0.04,0-0.07,0-0.11,0c-0.17,0.01-0.25,0.11-0.21,0.27
								c0.19,0.85,0.39,1.7,0.59,2.55c0.09,0.42,0.19,0.83,0.29,1.25c0.12,0.52,0.48,0.81,1.02,0.81c1.9,0,3.79,0,5.69,0h0.15
								c-0.03,0.21-0.06,0.4-0.09,0.59c-0.04,0.22-0.07,0.44-0.11,0.66c-0.02,0.14-0.04,0.15-0.18,0.15c-0.06,0-0.13,0-0.19,0
								c-0.01,0-0.01,0-0.03-0.01c-0.13-0.46-0.42-0.77-0.93-0.76c-0.5,0-0.78,0.3-0.92,0.77h-2.35c-0.07-0.3-0.23-0.54-0.51-0.68
								c-0.19-0.1-0.4-0.12-0.6-0.07c-0.43,0.09-0.75,0.51-0.73,0.96c0.01,0.46,0.34,0.86,0.77,0.93c0.38,0.07,0.9-0.12,1.08-0.74
								c0.03,0,0.07-0.01,0.1-0.01c0.72,0,1.44,0,2.16,0c0.07,0,0.11,0.02,0.13,0.09c0.13,0.4,0.49,0.66,0.88,0.66
								c0.39,0,0.75-0.27,0.88-0.66c0.02-0.08,0.06-0.1,0.13-0.1c0.08,0.01,0.16,0.01,0.24,0c0.23-0.02,0.4-0.19,0.44-0.43
								c0.26-1.65,0.52-3.3,0.79-4.95c0.12-0.78,0.25-1.56,0.38-2.34c0.06-0.37,0.34-0.6,0.72-0.6h1.31c0.12,0,0.2-0.05,0.22-0.15
								c0.03-0.12-0.06-0.24-0.18-0.24c-0.5,0-0.99-0.02-1.48,0.01c-0.53,0.03-0.9,0.43-0.98,0.96c-0.05,0.32-0.1,0.65-0.15,0.97
								C162.92,64.4,162.91,64.42,162.9,64.46"/>
						</defs>
						<clipPath id="SVGID_122_">
							<use xlink:href="#SVGID_121_"  style="overflow:visible;"/>
						</clipPath>
						<g class="st61">
							<defs>
								<rect id="SVGID_123_" x="47.05" y="16.73" width="166" height="139.39"/>
							</defs>
							<clipPath id="SVGID_124_">
								<use xlink:href="#SVGID_123_"  style="overflow:visible;"/>
							</clipPath>
							<rect x="148.06" y="56.09" class="st62" width="24.01" height="22.16"/>
						</g>
					</g>
				</g>
			</g>
		</g>
	</g>
	<g class="st1">
		<defs>
			<path id="SVGID_125_" d="M165.74,92.7c0.8,1.07,1.45,1.78,1.59,2.03c1.53,2.65,2.4,5.01,2.98,6.98
				c0.89,2.99,1.15,4.53,1.45,11.96c0.33,8.07,13.25,26.27,13.25,26.27s-10.91,9.72-12.02,6.05c-1.11-3.67-11.37-19.77-13.81-21.1
				c-2.44-1.33-7.97-5.78-7.97-5.78l-9.13-5.84c-0.86-0.55-1.61-1.3-2.06-2.22c-0.46-0.93-0.71-2.1,0.12-3.06
				c1.2-0.85,3,0.76,4.3,1.38c1.3,0.62,3.62,1.88,4.44,2.21c0.82,0.32,2.99,1.61,1.24-1.77c-1.15-2.22,0.18,0.27-1.89-3.34
				c-1.07-1.87-1.64-3.44-2.95-4.95c-2.08-2.41-2.95-4.29-4.01-5.57c-1.41-1.69-2.68-3.99-1.74-4.82c1.28-1.13,2.38-0.54,4.2,0.54
				c1.75,1.04,5.62,4.89,6.57,6.01c1.68,1.98,1.62,2.58,1.62,2.58c0.3-0.22,0.02,0.67-1.22-1.72c-0.27-0.52-0.91-2.07-0.91-2.07
				s0.32-2.05,1.82-2.47c1.5-0.42,2.96-0.7,3.39-0.13c0.42,0.57-0.02-1.04,1.93-1.4c1.95-0.36,3.2-0.02,3.91,0.38
				c0.45,0.25,0.05-0.82,0.81-0.96c0.76-0.14,1.9-0.13,2.18-0.15C164.65,91.7,164.94,91.63,165.74,92.7"/>
		</defs>
		<clipPath id="SVGID_126_">
			<use xlink:href="#SVGID_125_"  style="overflow:visible;"/>
		</clipPath>
		<g class="st63">
			<defs>
				<rect id="SVGID_127_" x="47.05" y="7.86" width="166" height="166"/>
			</defs>
			<clipPath id="SVGID_128_">
				<use xlink:href="#SVGID_127_"  style="overflow:visible;"/>
			</clipPath>
			
				<rect x="133.94" y="82.79" transform="matrix(0.9976 -0.0698 0.0698 0.9976 -7.8627 11.5792)" class="st64" width="55.85" height="71.16"/>
		</g>
	</g>
	<g class="st1">
		<defs>
			<path id="SVGID_129_" d="M174.52,118.93c0.44,0.63,0.76,1.18,0.77,3.46c0.01,2.29,21.95,20.75,22.75,22.76
				c0.16,0.42,1.36,1.59-0.24,3.12c-2.19,2.09-6.79,6.96-10.88,10.47c-1.69,1.45-1.69,2.03-4.74,3.96
				c-3.05,1.92-5.62-3.96-5.62-3.96s-12.99-26.79-14.42-28.44c-1.43-1.65-2.63-3.32-2.63-3.32
				C159.92,124.53,174.09,118.3,174.52,118.93z"/>
		</defs>
		<clipPath id="SVGID_130_">
			<use xlink:href="#SVGID_129_"  style="overflow:visible;"/>
		</clipPath>
		<g class="st65">
			<defs>
				<rect id="SVGID_131_" x="47.05" y="7.86" width="166" height="166"/>
			</defs>
			<clipPath id="SVGID_132_">
				<use xlink:href="#SVGID_131_"  style="overflow:visible;"/>
			</clipPath>
			
				<rect x="154.18" y="112.25" transform="matrix(0.9976 -0.0698 0.0698 0.9976 -9.3898 12.8536)" class="st66" width="50.33" height="57.23"/>
		</g>
	</g>
	<g class="st1">
		<defs>
			<path id="SVGID_133_" d="M174.52,118.93c0.44,0.63,0.76,1.18,0.77,3.46c0.01,2.29,21.95,20.75,22.75,22.76
				c0.16,0.42,1.36,1.59-0.24,3.12c-3.09,2.96-4.75,4.94-6.91,6.78c-2.16,1.84-3.79,3.51-4.36,3.51c-0.57,0-3.07-15.01-5.01-19.15
				c-1.93-4.14-9.61-14.03-11.45-14.48c-1.84-0.45-3.26-3.05-3.26-3.05C169.04,120.44,174.09,118.3,174.52,118.93z"/>
		</defs>
		<clipPath id="SVGID_134_">
			<use xlink:href="#SVGID_133_"  style="overflow:visible;"/>
		</clipPath>
		<g class="st67">
			<defs>
				<rect id="SVGID_135_" x="47.05" y="7.86" width="166" height="166"/>
			</defs>
			<clipPath id="SVGID_136_">
				<use xlink:href="#SVGID_135_"  style="overflow:visible;"/>
			</clipPath>
			
				<rect x="161.68" y="111.91" transform="matrix(0.9976 -0.0698 0.0698 0.9976 -9.2157 13.104)" class="st68" width="42.68" height="53.19"/>
		</g>
	</g>
</g>
<g>
	<g>
		<g>
			<defs>
				<path id="SVGID_155_" d="M419.56,316.54c-0.63-0.01-1.25-0.27-1.69-0.72l-7.32-7.59c-0.91-0.94-0.88-2.45,0.06-3.36
					c0.44-0.43,1.03-0.67,1.65-0.67c0.65,0,1.26,0.26,1.71,0.73l5.65,5.85l12.81-12.81c0.45-0.45,1.05-0.69,1.68-0.69
					c0.63,0,1.23,0.25,1.68,0.69c0.93,0.93,0.93,2.43,0,3.36l-14.52,14.52c-0.44,0.44-1.05,0.7-1.68,0.7"/>
			</defs>
			<clipPath id="SVGID_138_">
				<use xlink:href="#SVGID_155_"  style="overflow:visible;"/>
			</clipPath>
			<g class="st69">
				<defs>
					<rect id="SVGID_157_" x="-1114.16" y="62.57" width="2223.1" height="1621.01"/>
				</defs>
				<clipPath id="SVGID_140_">
					<use xlink:href="#SVGID_157_"  style="overflow:visible;"/>
				</clipPath>
			</g>
		</g>
	</g>
</g>
</svg>
