<?xml version="1.0" encoding="utf-8"?>
<!-- Generator: Adobe Illustrator 23.0.1, SVG Export Plug-In . SVG Version: 6.00 Build 0)  -->
<svg version="1.1" id="Capa_1" xmlns="http://www.w3.org/2000/svg" xmlns:xlink="http://www.w3.org/1999/xlink" x="0px" y="0px"
	 viewBox="0 0 254 200" style="enable-background:new 0 0 254 200;" xml:space="preserve">
<style type="text/css">
	.st0{fill-rule:evenodd;clip-rule:evenodd;fill:#685BC7;}
	.st1{clip-path:url(#SVGID_2_);}
	.st2{clip-path:url(#SVGID_4_);}
	.st3{clip-path:url(#SVGID_6_);fill:#A7A4E0;}
	.st4{clip-path:url(#SVGID_8_);}
	.st5{clip-path:url(#SVGID_10_);enable-background:new    ;}
	.st6{clip-path:url(#SVGID_12_);}
	.st7{clip-path:url(#SVGID_14_);}
	.st8{clip-path:url(#SVGID_16_);fill:#FFFFFF;}
	.st9{clip-path:url(#SVGID_18_);}
	.st10{clip-path:url(#SVGID_20_);fill:#CDEBF1;}
	.st11{clip-path:url(#SVGID_22_);}
	.st12{clip-path:url(#SVGID_24_);fill:#D0D2D3;}
	.st13{clip-path:url(#SVGID_26_);}
	.st14{clip-path:url(#SVGID_28_);fill:#3A3A2B;}
	.st15{clip-path:url(#SVGID_30_);}
	.st16{clip-path:url(#SVGID_32_);fill:#D0D2D3;}
	.st17{clip-path:url(#SVGID_34_);}
	.st18{clip-path:url(#SVGID_36_);fill:#D0D2D3;}
	.st19{clip-path:url(#SVGID_38_);}
	.st20{clip-path:url(#SVGID_40_);fill:#D0D2D3;}
	.st21{clip-path:url(#SVGID_42_);}
	.st22{clip-path:url(#SVGID_44_);fill:#D0D2D3;}
	.st23{clip-path:url(#SVGID_46_);}
	.st24{clip-path:url(#SVGID_48_);fill:#D0D2D3;}
	.st25{clip-path:url(#SVGID_50_);}
	.st26{clip-path:url(#SVGID_52_);fill:#D0D2D3;}
	.st27{clip-path:url(#SVGID_54_);}
	.st28{clip-path:url(#SVGID_56_);fill:#FFFFFF;}
	.st29{clip-path:url(#SVGID_58_);}
	.st30{clip-path:url(#SVGID_60_);fill:#9BE3BF;}
	.st31{clip-path:url(#SVGID_62_);}
	.st32{clip-path:url(#SVGID_64_);fill:#685BC7;}
	.st33{clip-path:url(#SVGID_66_);}
	.st34{clip-path:url(#SVGID_68_);fill:#9BE3BF;}
	.st35{clip-path:url(#SVGID_70_);}
	.st36{clip-path:url(#SVGID_72_);fill:#685BC7;}
	.st37{clip-path:url(#SVGID_74_);}
	.st38{clip-path:url(#SVGID_76_);fill:#9BE3BF;}
	.st39{clip-path:url(#SVGID_78_);}
	.st40{clip-path:url(#SVGID_80_);fill:#9BE3BF;}
	.st41{clip-path:url(#SVGID_82_);}
	.st42{clip-path:url(#SVGID_84_);fill:#9BE3BF;}
	.st43{clip-path:url(#SVGID_86_);}
	.st44{clip-path:url(#SVGID_88_);fill:#685BC7;}
	.st45{clip-path:url(#SVGID_90_);}
	.st46{clip-path:url(#SVGID_92_);fill:#685BC7;}
	.st47{clip-path:url(#SVGID_94_);}
	.st48{clip-path:url(#SVGID_96_);fill:#685BC7;}
	.st49{clip-path:url(#SVGID_98_);}
	.st50{clip-path:url(#SVGID_100_);fill:#685BC7;}
	.st51{clip-path:url(#SVGID_102_);}
	.st52{clip-path:url(#SVGID_104_);fill:#685BC7;}
	.st53{clip-path:url(#SVGID_106_);}
	.st54{clip-path:url(#SVGID_108_);fill:#39207C;}
	.st55{clip-path:url(#SVGID_110_);}
	.st56{clip-path:url(#SVGID_112_);fill:#514AA5;}
	.st57{clip-path:url(#SVGID_114_);}
	.st58{clip-path:url(#SVGID_116_);fill:#9BE3BF;}
	.st59{clip-path:url(#SVGID_118_);}
	.st60{clip-path:url(#SVGID_120_);fill:#6FC190;}
	.st61{clip-path:url(#SVGID_122_);}
	.st62{clip-path:url(#SVGID_124_);fill:#685BC7;}
	.st63{clip-path:url(#SVGID_126_);}
	.st64{clip-path:url(#SVGID_128_);fill:#39207C;}
	.st65{clip-path:url(#SVGID_130_);}
	.st66{clip-path:url(#SVGID_132_);fill:#9BE3BF;}
	.st67{clip-path:url(#SVGID_134_);}
	.st68{clip-path:url(#SVGID_136_);fill:#6FC190;}
	.st69{clip-path:url(#SVGID_138_);}
	.st70{fill:#A7A4E0;}
	.st71{fill:#F42534;}
	.st72{fill:#39207C;}
	.st73{opacity:0.5;}
	.st74{clip-path:url(#SVGID_140_);}
	.st75{opacity:0.44;fill:#E6E7E8;}
	.st76{fill:#9BE3BF;}
	.st77{fill:#6FC190;}
	.st78{fill:#E6E7E8;}
	.st79{fill:#685BC7;}
	.st80{fill:#CE3232;}
	.st81{fill:#7A7ACC;}
	.st82{fill:#201E68;}
	.st83{fill:#D1D4FC;}
	.st84{clip-path:url(#SVGID_142_);}
	.st85{fill:#A59DE3;}
	.st86{fill:#FFFFFF;}
	.st87{fill:#D8D4DF;}
	.st88{fill:#514A95;}
	.st89{fill:#7327BC;}
	.st90{fill:#442D68;}
	.st91{fill:#8BD3AF;}
	.st92{fill:#7F7FC6;}
	.st93{fill:#2E1B54;}
	.st94{fill:#279F5E;}
	.st95{clip-path:url(#SVGID_144_);}
	.st96{fill:#514AA5;}
	.st97{opacity:0.3;fill:#856AEA;}
	.st98{fill:#F1C40F;}
	.st99{fill:#26D07C;}
	.st100{opacity:0.83;}
	.st101{opacity:0.68;fill:#39207C;}
	.st102{opacity:0.3;fill:#39207C;}
	.st103{opacity:0.7;fill:#9E88ED;}
	.st104{clip-path:url(#SVGID_146_);}
	.st105{opacity:0.2;fill:#764582;}
	.st106{fill:#918ECA;}
	.st107{fill:#514A8F;}
	.st108{fill:none;stroke:#FFFFFF;stroke-width:0.9734;stroke-miterlimit:10;}
	.st109{fill:#9D68AA;}
	.st110{fill:#7F7FC0;}
	.st111{fill-rule:evenodd;clip-rule:evenodd;fill:#7F7FC0;}
	.st112{fill-rule:evenodd;clip-rule:evenodd;fill:#918ECA;}
	.st113{fill-rule:evenodd;clip-rule:evenodd;fill:#BBBED5;}
	.st114{fill-rule:evenodd;clip-rule:evenodd;fill:#27995E;}
	.st115{fill-rule:evenodd;clip-rule:evenodd;fill:#6FAB80;}
	.st116{fill-rule:evenodd;clip-rule:evenodd;fill:#85CDA9;}
	.st117{fill-rule:evenodd;clip-rule:evenodd;fill:#808080;}
	.st118{fill-rule:evenodd;clip-rule:evenodd;fill:#BABCBD;}
	.st119{fill-rule:evenodd;clip-rule:evenodd;fill:#E1E1E1;}
	.st120{fill-rule:evenodd;clip-rule:evenodd;fill:#39207C;}
	.st121{fill-rule:evenodd;clip-rule:evenodd;fill:#9895A4;}
	.st122{fill-rule:evenodd;clip-rule:evenodd;fill:#FFFFFF;}
	.st123{fill-rule:evenodd;clip-rule:evenodd;fill:#685BB1;}
	.st124{clip-path:url(#SVGID_148_);enable-background:new    ;}
	.st125{clip-path:url(#SVGID_150_);}
	.st126{clip-path:url(#SVGID_152_);}
	.st127{clip-path:url(#SVGID_154_);fill:#A7A4E0;}
	.st128{clip-path:url(#SVGID_156_);}
	.st129{clip-path:url(#SVGID_158_);fill:#FFFFFF;}
	.st130{fill:url(#SVGID_159_);}
	.st131{fill:#9794D0;}
	.st132{fill:none;stroke:#A59DE3;stroke-width:5;stroke-miterlimit:10;}
	.st133{fill:url(#SVGID_160_);}
	.st134{clip-path:url(#SVGID_162_);}
	.st135{clip-path:url(#SVGID_164_);fill:#F7F7F7;}
	.st136{fill:#7F7FD6;}
	.st137{fill:#D0D2D3;}
	.st138{fill:#EEEEEE;}
	.st139{fill:#A6A8AB;}
	.st140{fill:#016867;}
	.st141{fill:#FEFDFD;}
	.st142{clip-path:url(#SVGID_166_);}
	.st143{opacity:0.46;}
	.st144{clip-path:url(#SVGID_168_);}
	.st145{fill:#575756;}
	.st146{fill:none;stroke:#39207C;stroke-miterlimit:10;}
	.st147{clip-path:url(#SVGID_170_);}
	.st148{clip-path:url(#SVGID_172_);}
	.st149{clip-path:url(#SVGID_174_);}
	.st150{fill:#F1F1F2;}
	.st151{fill:#F05A28;}
	.st152{clip-path:url(#SVGID_176_);}
	.st153{clip-path:url(#SVGID_178_);fill:#7F7FD6;}
</style>
<circle class="st0" cx="127.27" cy="99.73" r="82.73"/>
<g>
	<defs>
		<circle id="SVGID_143_" cx="127.27" cy="100.13" r="81.6"/>
	</defs>
	<clipPath id="SVGID_2_">
		<use xlink:href="#SVGID_143_"  style="overflow:visible;"/>
	</clipPath>
	<g class="st1">
		<path class="st96" d="M91.28,147.47l93.68,28.75c4.37,1.35,8.74-2.15,8.74-7.02l0.05-114.78c0-3.58-2.43-6.63-5.73-7.21
			L94.28,32.04c-4.16-0.73-7.94,2.71-7.94,7.21v101.2"/>
		<path class="st72" d="M84.52,41.06v99.25c0,3.2,1.97,6.01,4.84,6.9l91.93,28.76c4.29,1.33,8.57-2.12,8.57-6.9V57.15
			c0-3.52-2.38-6.52-5.62-7.09L92.3,33.97C88.22,33.26,84.52,36.63,84.52,41.06z"/>
		<path class="st76" d="M177.49,123.35l-24.16-7.11c-0.89-0.25-1.5-1.05-1.5-1.97v-30.2c0-1.34,1.26-2.32,2.56-1.99l24.16,6.13
			c0.91,0.23,1.54,1.05,1.54,1.99v31.18C180.09,122.73,178.8,123.71,177.49,123.35z"/>
		<path class="st76" d="M146.33,153.96l-24.16-7.11c-0.89-0.25-1.5-1.05-1.5-1.97v-30.2c0-1.34,1.26-2.32,2.56-1.99l24.16,6.13
			c0.91,0.23,1.54,1.05,1.54,1.99v31.18C148.93,153.34,147.64,154.32,146.33,153.96z"/>
		<path class="st70" d="M178.58,163.8l-24.16-7.11c-0.89-0.25-1.5-1.05-1.5-1.97v-30.2c0-1.34,1.26-2.32,2.56-1.99l24.16,6.13
			c0.91,0.23,1.54,1.05,1.54,1.99v31.18C181.18,163.18,179.89,164.16,178.58,163.8z"/>
		<path class="st97" d="M146.08,113.71l-24.16-6.4c-0.89-0.25-1.5-1.05-1.5-1.97V76.2c0-1.34,1.26-2.32,2.56-1.99l24.16,5.77
			c0.91,0.23,1.54,1.05,1.54,1.99v29.76C148.68,113.09,147.39,114.07,146.08,113.71z"/>
		<path class="st72" d="M84.52,40.82v0.24c0-4.43,3.71-7.8,7.79-7.09l91.93,16.09c3.24,0.57,5.62,3.57,5.62,7.09v4.17"/>
		<ellipse class="st71" cx="91.89" cy="38.17" rx="1.08" ry="1.27"/>
		<ellipse class="st98" cx="95.74" cy="38.88" rx="1.08" ry="1.27"/>
		<ellipse class="st99" cx="99.48" cy="39.67" rx="1.08" ry="1.27"/>
		<g class="st100">
			<path class="st70" d="M114.22,154.99V46.72l-29.7-5.78l0.03,99.56c-0.02,3.14,2.04,5.9,5.05,6.79L114.22,154.99z"/>
		</g>
		
			<ellipse transform="matrix(0.9963 -0.0855 0.0855 0.9963 -5.8156 8.7848)" class="st101" cx="99.69" cy="72.31" rx="7.13" ry="9"/>
		<path class="st72" d="M108.38,56.93l-18.82-4.36c-0.37-0.08-0.59-0.45-0.51-0.82l0.2-0.87c0.08-0.37,0.45-0.59,0.82-0.51
			l18.82,4.36c0.37,0.08,0.59,0.45,0.51,0.82l-0.2,0.87C109.11,56.78,108.75,57.01,108.38,56.93z"/>
		<path class="st72" d="M98.28,59.09l-8.75-2.03c-0.37-0.08-0.59-0.45-0.51-0.82l0.2-0.87c0.08-0.37,0.45-0.59,0.82-0.51l8.75,2.03
			c0.37,0.08,0.59,0.45,0.51,0.82l-0.2,0.87C99.01,58.95,98.64,59.17,98.28,59.09z"/>
		<path class="st72" d="M143.73,87.33l-18.82-4.36c-0.37-0.08-0.59-0.45-0.51-0.82l0.2-0.87c0.08-0.37,0.45-0.59,0.82-0.51
			l18.82,4.36c0.37,0.08,0.59,0.45,0.51,0.82l-0.2,0.87C144.46,87.18,144.09,87.41,143.73,87.33z"/>
		<path class="st72" d="M133.62,89.49l-8.75-2.03c-0.37-0.08-0.59-0.45-0.51-0.82l0.2-0.87c0.08-0.37,0.45-0.59,0.82-0.51l8.75,2.03
			c0.37,0.08,0.59,0.45,0.51,0.82l-0.2,0.87C134.35,89.35,133.99,89.57,133.62,89.49z"/>
		<path class="st72" d="M175.12,95.22l-18.74-4.71c-0.36-0.09-0.58-0.46-0.49-0.82l0.22-0.87c0.09-0.36,0.46-0.58,0.82-0.49
			l18.74,4.71c0.36,0.09,0.58,0.46,0.49,0.82l-0.22,0.87C175.86,95.1,175.49,95.32,175.12,95.22z"/>
		<path class="st72" d="M164.98,97.2l-8.71-2.19c-0.36-0.09-0.58-0.46-0.49-0.82l0.22-0.87c0.09-0.36,0.46-0.58,0.82-0.49l8.71,2.19
			c0.36,0.09,0.58,0.46,0.49,0.82l-0.22,0.87C165.71,97.07,165.35,97.29,164.98,97.2z"/>
		<path class="st102" d="M105.29,125.34l-12.55-3.74c-0.89-0.26-1.5-1.13-1.5-2.12V86.26c0-1.44,1.26-2.49,2.56-2.13l12.55,3.46
			c0.91,0.25,1.54,1.13,1.54,2.13v33.5C107.89,124.68,106.6,125.73,105.29,125.34z"/>
		<path class="st103" d="M177.49,82.34l-55.35-13.36c-0.89-0.25-1.5-1.05-1.5-1.97v-7c0-1.34,1.26-2.32,2.56-1.99l55.35,11.67
			c0.91,0.23,1.54,1.05,1.54,1.99v8.69C180.09,81.72,178.8,82.7,177.49,82.34z"/>
	</g>
</g>
<g>
	<g>
		<g>
			<defs>
				<path id="SVGID_155_" d="M419.56,84.54c-0.63-0.01-1.25-0.27-1.69-0.72l-7.32-7.59c-0.91-0.94-0.88-2.45,0.06-3.36
					c0.44-0.43,1.03-0.67,1.65-0.67c0.65,0,1.26,0.26,1.71,0.73l5.65,5.85l12.81-12.81c0.45-0.45,1.05-0.69,1.68-0.69
					c0.63,0,1.23,0.25,1.68,0.69c0.93,0.93,0.93,2.43,0,3.36l-14.52,14.52c-0.44,0.44-1.05,0.7-1.68,0.7"/>
			</defs>
			<clipPath id="SVGID_4_">
				<use xlink:href="#SVGID_155_"  style="overflow:visible;"/>
			</clipPath>
			<g class="st2">
				<defs>
					<rect id="SVGID_157_" x="-1114.16" y="-169.43" width="2223.1" height="1621.01"/>
				</defs>
				<clipPath id="SVGID_6_">
					<use xlink:href="#SVGID_157_"  style="overflow:visible;"/>
				</clipPath>
			</g>
		</g>
	</g>
</g>
</svg>
