<?xml version="1.0" encoding="utf-8"?>
<!-- Generator: Adobe Illustrator 23.0.1, SVG Export Plug-In . SVG Version: 6.00 Build 0)  -->
<svg version="1.1" id="Capa_1" xmlns="http://www.w3.org/2000/svg" xmlns:xlink="http://www.w3.org/1999/xlink" x="0px" y="0px"
	 viewBox="0 0 254 200" style="enable-background:new 0 0 254 200;" xml:space="preserve">
<style type="text/css">
	.st0{fill-rule:evenodd;clip-rule:evenodd;fill:#685BC7;}
	.st1{clip-path:url(#SVGID_2_);}
	.st2{clip-path:url(#SVGID_4_);}
	.st3{clip-path:url(#SVGID_6_);fill:#A7A4E0;}
	.st4{clip-path:url(#SVGID_8_);}
	.st5{clip-path:url(#SVGID_10_);enable-background:new    ;}
	.st6{clip-path:url(#SVGID_12_);}
	.st7{clip-path:url(#SVGID_14_);}
	.st8{clip-path:url(#SVGID_16_);fill:#FFFFFF;}
	.st9{clip-path:url(#SVGID_18_);}
	.st10{clip-path:url(#SVGID_20_);fill:#CDEBF1;}
	.st11{clip-path:url(#SVGID_22_);}
	.st12{clip-path:url(#SVGID_24_);fill:#D0D2D3;}
	.st13{clip-path:url(#SVGID_26_);}
	.st14{clip-path:url(#SVGID_28_);fill:#3A3A2B;}
	.st15{clip-path:url(#SVGID_30_);}
	.st16{clip-path:url(#SVGID_32_);fill:#D0D2D3;}
	.st17{clip-path:url(#SVGID_34_);}
	.st18{clip-path:url(#SVGID_36_);fill:#D0D2D3;}
	.st19{clip-path:url(#SVGID_38_);}
	.st20{clip-path:url(#SVGID_40_);fill:#D0D2D3;}
	.st21{clip-path:url(#SVGID_42_);}
	.st22{clip-path:url(#SVGID_44_);fill:#D0D2D3;}
	.st23{clip-path:url(#SVGID_46_);}
	.st24{clip-path:url(#SVGID_48_);fill:#D0D2D3;}
	.st25{clip-path:url(#SVGID_50_);}
	.st26{clip-path:url(#SVGID_52_);fill:#D0D2D3;}
	.st27{clip-path:url(#SVGID_54_);}
	.st28{clip-path:url(#SVGID_56_);fill:#FFFFFF;}
	.st29{clip-path:url(#SVGID_58_);}
	.st30{clip-path:url(#SVGID_60_);fill:#9BE3BF;}
	.st31{clip-path:url(#SVGID_62_);}
	.st32{clip-path:url(#SVGID_64_);fill:#685BC7;}
	.st33{clip-path:url(#SVGID_66_);}
	.st34{clip-path:url(#SVGID_68_);fill:#9BE3BF;}
	.st35{clip-path:url(#SVGID_70_);}
	.st36{clip-path:url(#SVGID_72_);fill:#685BC7;}
	.st37{clip-path:url(#SVGID_74_);}
	.st38{clip-path:url(#SVGID_76_);fill:#9BE3BF;}
	.st39{clip-path:url(#SVGID_78_);}
	.st40{clip-path:url(#SVGID_80_);fill:#9BE3BF;}
	.st41{clip-path:url(#SVGID_82_);}
	.st42{clip-path:url(#SVGID_84_);fill:#9BE3BF;}
	.st43{clip-path:url(#SVGID_86_);}
	.st44{clip-path:url(#SVGID_88_);fill:#685BC7;}
	.st45{clip-path:url(#SVGID_90_);}
	.st46{clip-path:url(#SVGID_92_);fill:#685BC7;}
	.st47{clip-path:url(#SVGID_94_);}
	.st48{clip-path:url(#SVGID_96_);fill:#685BC7;}
	.st49{clip-path:url(#SVGID_98_);}
	.st50{clip-path:url(#SVGID_100_);fill:#685BC7;}
	.st51{clip-path:url(#SVGID_102_);}
	.st52{clip-path:url(#SVGID_104_);fill:#685BC7;}
	.st53{clip-path:url(#SVGID_106_);}
	.st54{clip-path:url(#SVGID_108_);fill:#39207C;}
	.st55{clip-path:url(#SVGID_110_);}
	.st56{clip-path:url(#SVGID_112_);fill:#514AA5;}
	.st57{clip-path:url(#SVGID_114_);}
	.st58{clip-path:url(#SVGID_116_);fill:#9BE3BF;}
	.st59{clip-path:url(#SVGID_118_);}
	.st60{clip-path:url(#SVGID_120_);fill:#6FC190;}
	.st61{clip-path:url(#SVGID_122_);}
	.st62{clip-path:url(#SVGID_124_);fill:#685BC7;}
	.st63{clip-path:url(#SVGID_126_);}
	.st64{clip-path:url(#SVGID_128_);fill:#39207C;}
	.st65{clip-path:url(#SVGID_130_);}
	.st66{clip-path:url(#SVGID_132_);fill:#9BE3BF;}
	.st67{clip-path:url(#SVGID_134_);}
	.st68{clip-path:url(#SVGID_136_);fill:#6FC190;}
	.st69{clip-path:url(#SVGID_138_);}
	.st70{fill:#A7A4E0;}
	.st71{fill:#F42534;}
	.st72{fill:#39207C;}
	.st73{opacity:0.5;}
	.st74{clip-path:url(#SVGID_140_);}
	.st75{opacity:0.44;fill:#E6E7E8;}
	.st76{fill:#9BE3BF;}
	.st77{fill:#6FC190;}
	.st78{fill:#E6E7E8;}
	.st79{fill:#685BC7;}
	.st80{fill:#CE3232;}
	.st81{fill:#7A7ACC;}
	.st82{fill:#201E68;}
	.st83{fill:#D1D4FC;}
	.st84{clip-path:url(#SVGID_142_);}
	.st85{fill:#A59DE3;}
	.st86{fill:#FFFFFF;}
	.st87{fill:#D8D4DF;}
	.st88{fill:#514A95;}
	.st89{fill:#7327BC;}
	.st90{fill:#442D68;}
	.st91{fill:#8BD3AF;}
	.st92{fill:#7F7FC6;}
	.st93{fill:#2E1B54;}
	.st94{fill:#279F5E;}
	.st95{clip-path:url(#SVGID_144_);}
	.st96{fill:#514AA5;}
	.st97{opacity:0.3;fill:#856AEA;}
	.st98{fill:#F1C40F;}
	.st99{fill:#26D07C;}
	.st100{opacity:0.83;}
	.st101{opacity:0.68;fill:#39207C;}
	.st102{opacity:0.3;fill:#39207C;}
	.st103{opacity:0.7;fill:#9E88ED;}
	.st104{clip-path:url(#SVGID_146_);}
	.st105{opacity:0.2;fill:#764582;}
	.st106{fill:#918ECA;}
	.st107{fill:#514A8F;}
	.st108{fill:none;stroke:#FFFFFF;stroke-width:0.9734;stroke-miterlimit:10;}
	.st109{fill:#9D68AA;}
	.st110{fill:#7F7FC0;}
	.st111{fill-rule:evenodd;clip-rule:evenodd;fill:#7F7FC0;}
	.st112{fill-rule:evenodd;clip-rule:evenodd;fill:#918ECA;}
	.st113{fill-rule:evenodd;clip-rule:evenodd;fill:#BBBED5;}
	.st114{fill-rule:evenodd;clip-rule:evenodd;fill:#27995E;}
	.st115{fill-rule:evenodd;clip-rule:evenodd;fill:#6FAB80;}
	.st116{fill-rule:evenodd;clip-rule:evenodd;fill:#85CDA9;}
	.st117{fill-rule:evenodd;clip-rule:evenodd;fill:#808080;}
	.st118{fill-rule:evenodd;clip-rule:evenodd;fill:#BABCBD;}
	.st119{fill-rule:evenodd;clip-rule:evenodd;fill:#E1E1E1;}
	.st120{fill-rule:evenodd;clip-rule:evenodd;fill:#39207C;}
	.st121{fill-rule:evenodd;clip-rule:evenodd;fill:#9895A4;}
	.st122{fill-rule:evenodd;clip-rule:evenodd;fill:#FFFFFF;}
	.st123{fill-rule:evenodd;clip-rule:evenodd;fill:#685BB1;}
	.st124{clip-path:url(#SVGID_148_);enable-background:new    ;}
	.st125{clip-path:url(#SVGID_150_);}
	.st126{clip-path:url(#SVGID_152_);}
	.st127{clip-path:url(#SVGID_154_);fill:#A7A4E0;}
	.st128{clip-path:url(#SVGID_156_);}
	.st129{clip-path:url(#SVGID_158_);fill:#FFFFFF;}
	.st130{fill:url(#SVGID_159_);}
	.st131{fill:#9794D0;}
	.st132{fill:none;stroke:#A59DE3;stroke-width:5;stroke-miterlimit:10;}
	.st133{fill:url(#SVGID_160_);}
	.st134{clip-path:url(#SVGID_162_);}
	.st135{clip-path:url(#SVGID_164_);fill:#F7F7F7;}
	.st136{fill:#7F7FD6;}
	.st137{fill:#D0D2D3;}
	.st138{fill:#EEEEEE;}
	.st139{fill:#A6A8AB;}
	.st140{fill:#016867;}
	.st141{fill:#FEFDFD;}
	.st142{clip-path:url(#SVGID_166_);}
	.st143{opacity:0.46;}
	.st144{clip-path:url(#SVGID_168_);}
	.st145{fill:#575756;}
	.st146{fill:none;stroke:#39207C;stroke-miterlimit:10;}
	.st147{clip-path:url(#SVGID_170_);}
	.st148{clip-path:url(#SVGID_172_);}
	.st149{clip-path:url(#SVGID_174_);}
	.st150{fill:#F1F1F2;}
	.st151{fill:#F05A28;}
	.st152{clip-path:url(#SVGID_176_);}
	.st153{clip-path:url(#SVGID_178_);fill:#7F7FD6;}
</style>
<g>
	<g>
		<g>
			<defs>
				<path id="SVGID_155_" d="M-128.44,84.54c-0.63-0.01-1.25-0.27-1.69-0.72l-7.32-7.59c-0.91-0.94-0.88-2.45,0.06-3.36
					c0.44-0.43,1.03-0.67,1.65-0.67c0.65,0,1.26,0.26,1.71,0.73l5.65,5.85l12.81-12.81c0.45-0.45,1.05-0.69,1.68-0.69
					s1.23,0.25,1.68,0.69c0.93,0.93,0.93,2.43,0,3.36l-14.52,14.52c-0.44,0.44-1.05,0.7-1.68,0.7"/>
			</defs>
			<clipPath id="SVGID_2_">
				<use xlink:href="#SVGID_155_"  style="overflow:visible;"/>
			</clipPath>
			<g class="st1">
				<defs>
					<rect id="SVGID_157_" x="-1662.16" y="-169.43" width="2223.1" height="1621.01"/>
				</defs>
				<clipPath id="SVGID_4_">
					<use xlink:href="#SVGID_157_"  style="overflow:visible;"/>
				</clipPath>
			</g>
		</g>
	</g>
</g>
<g>
	<circle class="st0" cx="127.46" cy="100.46" r="80.54"/>
	<g>
		<g>
			<g>
				<linearGradient id="SVGID_6_" gradientUnits="userSpaceOnUse" x1="91.67" y1="108.7706" x2="181.8754" y2="108.7706">
					<stop  offset="0" style="stop-color:#F9E6D9"/>
					<stop  offset="0.121" style="stop-color:#FCF1EA"/>
					<stop  offset="0.2698" style="stop-color:#FEF9F6"/>
					<stop  offset="0.4751" style="stop-color:#FFFEFD"/>
					<stop  offset="1" style="stop-color:#FFFFFF"/>
				</linearGradient>
				<path style="fill:url(#SVGID_6_);" d="M181.88,73v71.54H91.67V73H181.88z M177.14,118.8v-3.96c0-2.22-1.8-4.02-4.02-4.02h-5.38
					c-2.22,0-4.02,1.8-4.02,4.02v3.96c0,2.22,1.8,4.02,4.02,4.02h5.38C175.34,122.82,177.14,121.02,177.14,118.8z M176.82,85.24
					v-3.96c0-2.22-1.8-4.02-4.02-4.02h-5.38c-2.22,0-4.02,1.8-4.02,4.02v3.96c0,2.22,1.8,4.02,4.02,4.02h5.38
					C175.02,89.25,176.82,87.46,176.82,85.24z M176.64,102.02v-3.96c0-2.22-1.8-4.02-4.02-4.02h-5.38c-2.22,0-4.01,1.8-4.01,4.02
					v3.96c0,2.22,1.8,4.02,4.01,4.02h5.38C174.84,106.04,176.64,104.24,176.64,102.02z M160.8,118.8v-3.96
					c0-2.22-1.8-4.02-4.02-4.02h-5.38c-2.22,0-4.02,1.8-4.02,4.02v3.96c0,2.22,1.8,4.02,4.02,4.02h5.38
					C159,122.82,160.8,121.02,160.8,118.8z M160.47,85.24v-3.96c0-2.22-1.8-4.02-4.02-4.02h-5.38c-2.22,0-4.02,1.8-4.02,4.02v3.96
					c0,2.22,1.8,4.02,4.02,4.02h5.38C158.67,89.25,160.47,87.46,160.47,85.24z M160.3,102.02v-3.96c0-2.22-1.8-4.02-4.02-4.02h-5.38
					c-2.22,0-4.02,1.8-4.02,4.02v3.96c0,2.22,1.8,4.02,4.02,4.02h5.38C158.5,106.04,160.3,104.24,160.3,102.02z M144.09,118.8v-3.96
					c0-2.22-1.8-4.02-4.02-4.02h-5.38c-2.22,0-4.01,1.8-4.01,4.02v3.96c0,2.22,1.8,4.02,4.01,4.02h5.38
					C142.29,122.82,144.09,121.02,144.09,118.8z M143.92,135.59v-3.96c0-2.22-1.8-4.02-4.02-4.02h-5.38c-2.22,0-4.02,1.8-4.02,4.02
					v3.96c0,2.22,1.8,4.02,4.02,4.02h5.38C142.12,139.6,143.92,137.81,143.92,135.59z M143.77,85.24v-3.96
					c0-2.22-1.8-4.02-4.02-4.02h-5.38c-2.22,0-4.02,1.8-4.02,4.02v3.96c0,2.22,1.8,4.02,4.02,4.02h5.38
					C141.97,89.25,143.77,87.46,143.77,85.24z M143.59,102.02v-3.96c0-2.22-1.8-4.02-4.02-4.02h-5.38c-2.22,0-4.01,1.8-4.01,4.02
					v3.96c0,2.22,1.8,4.02,4.01,4.02h5.38C141.79,106.04,143.59,104.24,143.59,102.02z M126.7,118.8v-3.96
					c0-2.22-1.8-4.02-4.02-4.02h-5.38c-2.22,0-4.01,1.8-4.01,4.02v3.96c0,2.22,1.8,4.02,4.01,4.02h5.38
					C124.91,122.82,126.7,121.02,126.7,118.8z M126.53,135.59v-3.96c0-2.22-1.8-4.02-4.02-4.02h-5.38c-2.22,0-4.02,1.8-4.02,4.02
					v3.96c0,2.22,1.8,4.02,4.02,4.02h5.38C124.73,139.6,126.53,137.81,126.53,135.59z M126.38,85.24v-3.96
					c0-2.22-1.8-4.02-4.02-4.02h-5.38c-2.22,0-4.02,1.8-4.02,4.02v3.96c0,2.22,1.8,4.02,4.02,4.02h5.38
					C124.58,89.25,126.38,87.46,126.38,85.24z M126.2,102.02v-3.96c0-2.22-1.8-4.02-4.01-4.02h-5.38c-2.22,0-4.02,1.8-4.02,4.02
					v3.96c0,2.22,1.8,4.02,4.02,4.02h5.38C124.4,106.04,126.2,104.24,126.2,102.02z M110,118.8v-3.96c0-2.22-1.8-4.02-4.02-4.02
					h-5.38c-2.22,0-4.02,1.8-4.02,4.02v3.96c0,2.22,1.8,4.02,4.02,4.02h5.38C108.2,122.82,110,121.02,110,118.8z M109.82,135.59
					v-3.96c0-2.22-1.8-4.02-4.02-4.02h-5.38c-2.22,0-4.02,1.8-4.02,4.02v3.96c0,2.22,1.8,4.02,4.02,4.02h5.38
					C108.02,139.6,109.82,137.81,109.82,135.59z M109.67,85.24v-3.96c0-2.22-1.8-4.02-4.01-4.02h-5.38c-2.22,0-4.02,1.8-4.02,4.02
					v3.96c0,2.22,1.8,4.02,4.02,4.02h5.38C107.88,89.25,109.67,87.46,109.67,85.24z M109.5,102.02v-3.96c0-2.22-1.8-4.02-4.02-4.02
					h-5.38c-2.22,0-4.02,1.8-4.02,4.02v3.96c0,2.22,1.8,4.02,4.02,4.02h5.38C107.7,106.04,109.5,104.24,109.5,102.02z"/>
				<path class="st131" d="M181.88,61.48V73H91.67V61.48h4.48c0.24,2.19,1.69,3.83,3.52,3.83c0.37,0,0.67-0.26,0.67-0.57
					c0-0.32-0.3-0.57-0.67-0.57c-1.06,0-1.97-1.18-2.17-2.69h10.01c0.24,2.19,1.69,3.83,3.52,3.83c0.37,0,0.67-0.26,0.67-0.57
					c0-0.32-0.3-0.57-0.67-0.57c-1.06,0-1.97-1.18-2.17-2.69h10.36c0.24,2.19,1.7,3.83,3.52,3.83c0.37,0,0.67-0.26,0.67-0.57
					c0-0.32-0.3-0.57-0.67-0.57c-1.06,0-1.97-1.18-2.17-2.69h10.01c0.24,2.19,1.7,3.83,3.52,3.83c0.37,0,0.67-0.26,0.67-0.57
					c0-0.32-0.3-0.57-0.67-0.57c-1.06,0-1.97-1.18-2.17-2.69h11.52c0.24,2.19,1.7,3.83,3.52,3.83c0.37,0,0.67-0.26,0.67-0.57
					c0-0.32-0.3-0.57-0.67-0.57c-1.05,0-1.97-1.18-2.17-2.69h10.01c0.24,2.19,1.7,3.83,3.52,3.83c0.37,0,0.67-0.26,0.67-0.57
					c0-0.32-0.3-0.57-0.67-0.57c-1.06,0-1.97-1.18-2.17-2.69h10.36c0.24,2.19,1.69,3.83,3.52,3.83c0.37,0,0.67-0.26,0.67-0.57
					c0-0.32-0.3-0.57-0.67-0.57c-1.06,0-1.97-1.18-2.17-2.69H181.88z"/>
				<path class="st131" d="M177.14,114.84v3.96c0,2.22-1.8,4.02-4.02,4.02h-5.38c-2.22,0-4.02-1.8-4.02-4.02v-3.96
					c0-2.22,1.8-4.02,4.02-4.02h5.38C175.34,110.82,177.14,112.62,177.14,114.84z"/>
				<path class="st131" d="M176.82,81.28v3.96c0,2.22-1.8,4.02-4.02,4.02h-5.38c-2.22,0-4.02-1.8-4.02-4.02v-3.96
					c0-2.22,1.8-4.02,4.02-4.02h5.38C175.02,77.26,176.82,79.06,176.82,81.28z"/>
				<path class="st131" d="M176.64,98.06v3.96c0,2.22-1.8,4.02-4.02,4.02h-5.38c-2.22,0-4.01-1.8-4.01-4.02v-3.96
					c0-2.22,1.8-4.02,4.01-4.02h5.38C174.84,94.04,176.64,95.84,176.64,98.06z"/>
				<path class="st131" d="M160.8,114.84v3.96c0,2.22-1.8,4.02-4.02,4.02h-5.38c-2.22,0-4.02-1.8-4.02-4.02v-3.96
					c0-2.22,1.8-4.02,4.02-4.02h5.38C159,110.82,160.8,112.62,160.8,114.84z"/>
				<path class="st131" d="M160.47,81.28v3.96c0,2.22-1.8,4.02-4.02,4.02h-5.38c-2.22,0-4.02-1.8-4.02-4.02v-3.96
					c0-2.22,1.8-4.02,4.02-4.02h5.38C158.67,77.26,160.47,79.06,160.47,81.28z"/>
				<path class="st131" d="M160.3,98.06v3.96c0,2.22-1.8,4.02-4.02,4.02h-5.38c-2.22,0-4.02-1.8-4.02-4.02v-3.96
					c0-2.22,1.8-4.02,4.02-4.02h5.38C158.5,94.04,160.3,95.84,160.3,98.06z"/>
				<path class="st131" d="M144.09,114.84v3.96c0,2.22-1.8,4.02-4.02,4.02h-5.38c-2.22,0-4.01-1.8-4.01-4.02v-3.96
					c0-2.22,1.8-4.02,4.01-4.02h5.38C142.29,110.82,144.09,112.62,144.09,114.84z"/>
				<path class="st131" d="M143.92,131.62v3.96c0,2.22-1.8,4.02-4.02,4.02h-5.38c-2.22,0-4.02-1.8-4.02-4.02v-3.96
					c0-2.22,1.8-4.02,4.02-4.02h5.38C142.12,127.61,143.92,129.41,143.92,131.62z"/>
				<path class="st131" d="M143.77,81.28v3.96c0,2.22-1.8,4.02-4.02,4.02h-5.38c-2.22,0-4.02-1.8-4.02-4.02v-3.96
					c0-2.22,1.8-4.02,4.02-4.02h5.38C141.97,77.26,143.77,79.06,143.77,81.28z"/>
				<path class="st131" d="M143.59,98.06v3.96c0,2.22-1.8,4.02-4.02,4.02h-5.38c-2.22,0-4.01-1.8-4.01-4.02v-3.96
					c0-2.22,1.8-4.02,4.01-4.02h5.38C141.79,94.04,143.59,95.84,143.59,98.06z"/>
				<path class="st131" d="M126.7,114.84v3.96c0,2.22-1.8,4.02-4.02,4.02h-5.38c-2.22,0-4.01-1.8-4.01-4.02v-3.96
					c0-2.22,1.8-4.02,4.01-4.02h5.38C124.91,110.82,126.7,112.62,126.7,114.84z"/>
				<path class="st131" d="M126.53,131.62v3.96c0,2.22-1.8,4.02-4.02,4.02h-5.38c-2.22,0-4.02-1.8-4.02-4.02v-3.96
					c0-2.22,1.8-4.02,4.02-4.02h5.38C124.73,127.61,126.53,129.41,126.53,131.62z"/>
				<path class="st131" d="M126.38,81.28v3.96c0,2.22-1.8,4.02-4.02,4.02h-5.38c-2.22,0-4.02-1.8-4.02-4.02v-3.96
					c0-2.22,1.8-4.02,4.02-4.02h5.38C124.58,77.26,126.38,79.06,126.38,81.28z"/>
				<path class="st131" d="M126.2,98.06v3.96c0,2.22-1.8,4.02-4.01,4.02h-5.38c-2.22,0-4.02-1.8-4.02-4.02v-3.96
					c0-2.22,1.8-4.02,4.02-4.02h5.38C124.4,94.04,126.2,95.84,126.2,98.06z"/>
				<path class="st131" d="M110,114.84v3.96c0,2.22-1.8,4.02-4.02,4.02h-5.38c-2.22,0-4.02-1.8-4.02-4.02v-3.96
					c0-2.22,1.8-4.02,4.02-4.02h5.38C108.2,110.82,110,112.62,110,114.84z"/>
				<path class="st131" d="M109.82,131.62v3.96c0,2.22-1.8,4.02-4.02,4.02h-5.38c-2.22,0-4.02-1.8-4.02-4.02v-3.96
					c0-2.22,1.8-4.02,4.02-4.02h5.38C108.02,127.61,109.82,129.41,109.82,131.62z"/>
				<path class="st131" d="M109.67,81.28v3.96c0,2.22-1.8,4.02-4.01,4.02h-5.38c-2.22,0-4.02-1.8-4.02-4.02v-3.96
					c0-2.22,1.8-4.02,4.02-4.02h5.38C107.88,77.26,109.67,79.06,109.67,81.28z"/>
				<path class="st131" d="M109.5,98.06v3.96c0,2.22-1.8,4.02-4.02,4.02h-5.38c-2.22,0-4.02-1.8-4.02-4.02v-3.96
					c0-2.22,1.8-4.02,4.02-4.02h5.38C107.7,94.04,109.5,95.84,109.5,98.06z"/>
				<path class="st86" d="M103.01,59.32c0.09,0.31-0.13,0.62-0.49,0.69c-0.36,0.07-0.72-0.11-0.81-0.42
					c-0.35-1.23-1.17-2.07-2.04-2.07c-1.2,0-2.21,1.52-2.21,3.32c0,0.21,0.01,0.42,0.04,0.63c0.2,1.51,1.12,2.69,2.17,2.69
					c0.37,0,0.67,0.26,0.67,0.57c0,0.32-0.3,0.57-0.67,0.57c-1.82,0-3.28-1.64-3.52-3.83c-0.02-0.2-0.03-0.41-0.03-0.63
					c0-2.5,1.56-4.47,3.55-4.47C101.19,56.38,102.5,57.53,103.01,59.32z"/>
				<path class="st86" d="M126.07,59.32c0.09,0.31-0.13,0.62-0.49,0.69c-0.36,0.07-0.72-0.11-0.81-0.42
					c-0.35-1.23-1.17-2.07-2.04-2.07c-1.2,0-2.21,1.52-2.21,3.32c0,0.21,0.01,0.42,0.04,0.63c0.2,1.51,1.12,2.69,2.17,2.69
					c0.37,0,0.67,0.26,0.67,0.57c0,0.32-0.3,0.57-0.67,0.57c-1.82,0-3.28-1.64-3.52-3.83c-0.02-0.2-0.03-0.41-0.03-0.63
					c0-2.5,1.56-4.47,3.55-4.47C124.26,56.38,125.57,57.53,126.07,59.32z"/>
				<path class="st86" d="M137.43,59.32c0.09,0.31-0.13,0.62-0.49,0.69c-0.36,0.07-0.72-0.11-0.81-0.42
					c-0.35-1.23-1.17-2.07-2.04-2.07c-1.2,0-2.21,1.52-2.21,3.32c0,0.21,0.01,0.42,0.04,0.63c0.2,1.51,1.12,2.69,2.17,2.69
					c0.37,0,0.67,0.26,0.67,0.57c0,0.32-0.3,0.57-0.67,0.57c-1.82,0-3.28-1.64-3.52-3.83c-0.02-0.2-0.03-0.41-0.03-0.63
					c0-2.5,1.56-4.47,3.55-4.47C135.61,56.38,136.92,57.53,137.43,59.32z"/>
				<path class="st86" d="M150.3,59.32c0.09,0.31-0.14,0.62-0.49,0.69s-0.72-0.11-0.81-0.42c-0.35-1.23-1.17-2.07-2.04-2.07
					c-1.2,0-2.21,1.52-2.21,3.32c0,0.21,0.01,0.42,0.04,0.63c0.2,1.51,1.12,2.69,2.17,2.69c0.37,0,0.67,0.26,0.67,0.57
					c0,0.32-0.3,0.57-0.67,0.57c-1.82,0-3.28-1.64-3.52-3.83c-0.02-0.2-0.03-0.41-0.03-0.63c0-2.5,1.56-4.47,3.55-4.47
					C148.48,56.38,149.79,57.53,150.3,59.32z"/>
				<path class="st86" d="M161.65,59.32c0.09,0.31-0.13,0.62-0.49,0.69c-0.36,0.07-0.72-0.11-0.81-0.42
					c-0.35-1.23-1.17-2.07-2.04-2.07c-1.2,0-2.21,1.52-2.21,3.32c0,0.21,0.01,0.42,0.04,0.63c0.2,1.51,1.11,2.69,2.17,2.69
					c0.37,0,0.67,0.26,0.67,0.57c0,0.32-0.3,0.57-0.67,0.57c-1.82,0-3.28-1.64-3.52-3.83c-0.02-0.2-0.03-0.41-0.03-0.63
					c0-2.5,1.56-4.47,3.55-4.47C159.83,56.38,161.15,57.53,161.65,59.32z"/>
				<path class="st86" d="M114.36,59.32c0.09,0.31-0.13,0.62-0.49,0.69c-0.36,0.07-0.72-0.11-0.81-0.42
					c-0.35-1.23-1.17-2.07-2.04-2.07c-1.2,0-2.21,1.52-2.21,3.32c0,0.21,0.01,0.42,0.04,0.63c0.2,1.51,1.12,2.69,2.17,2.69
					c0.37,0,0.67,0.26,0.67,0.57c0,0.32-0.3,0.57-0.67,0.57c-1.82,0-3.28-1.64-3.52-3.83c-0.02-0.2-0.03-0.41-0.03-0.63
					c0-2.5,1.56-4.47,3.55-4.47C112.55,56.38,113.86,57.53,114.36,59.32z"/>
				<path class="st86" d="M172.87,60.01c-0.36,0.07-0.72-0.11-0.81-0.42c-0.35-1.23-1.17-2.07-2.04-2.07c-1.2,0-2.21,1.52-2.21,3.32
					c0,0.21,0.01,0.42,0.04,0.63c0.2,1.51,1.12,2.69,2.17,2.69c0.37,0,0.67,0.26,0.67,0.57c0,0.32-0.3,0.57-0.67,0.57
					c-1.82,0-3.28-1.64-3.52-3.83c-0.02-0.2-0.03-0.41-0.03-0.63c0-2.5,1.56-4.47,3.55-4.47c1.52,0,2.84,1.15,3.34,2.94
					C173.45,59.63,173.23,59.94,172.87,60.01z"/>
			</g>
			<circle class="st132" cx="154.39" cy="132.97" r="6.64"/>
		</g>
		<path d="M67.07,114.03c0,16.85,13.66,30.51,30.51,30.51c16.85,0,30.51-13.66,30.51-30.51c0-16.85-13.66-30.51-30.51-30.51
			C80.73,83.53,67.07,97.19,67.07,114.03z"/>
		<g>
			<path class="st131" d="M61.44,114.03c0,16.85,13.66,30.51,30.51,30.51c16.85,0,30.51-13.66,30.51-30.51
				c0-16.85-13.66-30.51-30.51-30.51C75.1,83.53,61.44,97.19,61.44,114.03z"/>
			<linearGradient id="SVGID_8_" gradientUnits="userSpaceOnUse" x1="64.9757" y1="114.0334" x2="118.9153" y2="114.0334">
				<stop  offset="0" style="stop-color:#F9E6D9"/>
				<stop  offset="0.121" style="stop-color:#FCF1EA"/>
				<stop  offset="0.2698" style="stop-color:#FEF9F6"/>
				<stop  offset="0.4751" style="stop-color:#FFFEFD"/>
				<stop  offset="1" style="stop-color:#FFFFFF"/>
			</linearGradient>
			<path style="fill:url(#SVGID_8_);" d="M64.98,114.03c0,14.89,12.08,26.97,26.97,26.97c14.9,0,26.97-12.08,26.97-26.97
				c0-14.9-12.07-26.97-26.97-26.97C77.05,87.06,64.98,99.14,64.98,114.03z"/>
			<g>
				<g>
					<rect x="91" y="89.84" class="st72" width="1.45" height="5.98"/>
					<rect x="91" y="133.18" class="st72" width="1.45" height="5.98"/>
				</g>
			</g>
			<g>
				<g>
					<rect x="67.29" y="113.38" class="st72" width="5.98" height="1.31"/>
					<rect x="110.63" y="113.38" class="st72" width="5.98" height="1.31"/>
				</g>
			</g>
			<g>
				<g>
					<polygon class="st72" points="91.64,79.21 95.55,90.64 87.91,90.64 					"/>
					<rect x="90.37" y="88.24" class="st72" width="2.72" height="26.68"/>
					<polygon class="st72" points="65.01,114.12 76.44,110.21 76.44,117.86 					"/>
					<rect x="74.04" y="112.67" class="st72" width="19.05" height="2.72"/>
				</g>
			</g>
			
				<rect x="98.37" y="111.16" transform="matrix(0.6919 -0.722 0.722 0.6919 -56.5986 108.3833)" class="st72" width="0.62" height="18.68"/>
			<path class="st72" d="M88.1,114.66c0,1.64,1.33,2.96,2.96,2.96c1.64,0,2.96-1.33,2.96-2.96c0-1.64-1.33-2.96-2.96-2.96
				C89.42,111.7,88.1,113.02,88.1,114.66z"/>
		</g>
	</g>
</g>
<g>
	<g>
		<defs>
			<path id="SVGID_161_" d="M461.02-89.81c0,6.53-29.35,11.82-65.56,11.82c-36.21,0-65.56-5.29-65.56-11.82
				c0-6.53,29.35-11.82,65.56-11.82C431.67-101.64,461.02-96.34,461.02-89.81"/>
		</defs>
		<clipPath id="SVGID_10_">
			<use xlink:href="#SVGID_161_"  style="overflow:visible;"/>
		</clipPath>
		<g style="clip-path:url(#SVGID_10_);">
			<defs>
				<rect id="SVGID_163_" x="-153.32" y="-268.43" width="774.36" height="510.33"/>
			</defs>
			<clipPath id="SVGID_12_">
				<use xlink:href="#SVGID_163_"  style="overflow:visible;"/>
			</clipPath>
		</g>
	</g>
</g>
</svg>
