<?xml version="1.0" encoding="utf-8"?>
<!-- Generator: Adobe Illustrator 23.0.1, SVG Export Plug-In . SVG Version: 6.00 Build 0)  -->
<svg version="1.1" id="Capa_1" xmlns="http://www.w3.org/2000/svg" xmlns:xlink="http://www.w3.org/1999/xlink" x="0px" y="0px"
	 viewBox="0 0 254 200" style="enable-background:new 0 0 254 200;" xml:space="preserve">
<style type="text/css">
	.st0{fill-rule:evenodd;clip-rule:evenodd;fill:#685BC7;}
	.st1{clip-path:url(#SVGID_2_);}
	.st2{clip-path:url(#SVGID_4_);}
	.st3{clip-path:url(#SVGID_6_);fill:#A7A4E0;}
	.st4{clip-path:url(#SVGID_8_);}
	.st5{clip-path:url(#SVGID_10_);enable-background:new    ;}
	.st6{clip-path:url(#SVGID_12_);}
	.st7{clip-path:url(#SVGID_14_);}
	.st8{clip-path:url(#SVGID_16_);fill:#FFFFFF;}
	.st9{clip-path:url(#SVGID_18_);}
	.st10{clip-path:url(#SVGID_20_);fill:#CDEBF1;}
	.st11{clip-path:url(#SVGID_22_);}
	.st12{clip-path:url(#SVGID_24_);fill:#D0D2D3;}
	.st13{clip-path:url(#SVGID_26_);}
	.st14{clip-path:url(#SVGID_28_);fill:#3A3A2B;}
	.st15{clip-path:url(#SVGID_30_);}
	.st16{clip-path:url(#SVGID_32_);fill:#D0D2D3;}
	.st17{clip-path:url(#SVGID_34_);}
	.st18{clip-path:url(#SVGID_36_);fill:#D0D2D3;}
	.st19{clip-path:url(#SVGID_38_);}
	.st20{clip-path:url(#SVGID_40_);fill:#D0D2D3;}
	.st21{clip-path:url(#SVGID_42_);}
	.st22{clip-path:url(#SVGID_44_);fill:#D0D2D3;}
	.st23{clip-path:url(#SVGID_46_);}
	.st24{clip-path:url(#SVGID_48_);fill:#D0D2D3;}
	.st25{clip-path:url(#SVGID_50_);}
	.st26{clip-path:url(#SVGID_52_);fill:#D0D2D3;}
	.st27{clip-path:url(#SVGID_54_);}
	.st28{clip-path:url(#SVGID_56_);fill:#FFFFFF;}
	.st29{clip-path:url(#SVGID_58_);}
	.st30{clip-path:url(#SVGID_60_);fill:#9BE3BF;}
	.st31{clip-path:url(#SVGID_62_);}
	.st32{clip-path:url(#SVGID_64_);fill:#685BC7;}
	.st33{clip-path:url(#SVGID_66_);}
	.st34{clip-path:url(#SVGID_68_);fill:#9BE3BF;}
	.st35{clip-path:url(#SVGID_70_);}
	.st36{clip-path:url(#SVGID_72_);fill:#685BC7;}
	.st37{clip-path:url(#SVGID_74_);}
	.st38{clip-path:url(#SVGID_76_);fill:#9BE3BF;}
	.st39{clip-path:url(#SVGID_78_);}
	.st40{clip-path:url(#SVGID_80_);fill:#9BE3BF;}
	.st41{clip-path:url(#SVGID_82_);}
	.st42{clip-path:url(#SVGID_84_);fill:#9BE3BF;}
	.st43{clip-path:url(#SVGID_86_);}
	.st44{clip-path:url(#SVGID_88_);fill:#685BC7;}
	.st45{clip-path:url(#SVGID_90_);}
	.st46{clip-path:url(#SVGID_92_);fill:#685BC7;}
	.st47{clip-path:url(#SVGID_94_);}
	.st48{clip-path:url(#SVGID_96_);fill:#685BC7;}
	.st49{clip-path:url(#SVGID_98_);}
	.st50{clip-path:url(#SVGID_100_);fill:#685BC7;}
	.st51{clip-path:url(#SVGID_102_);}
	.st52{clip-path:url(#SVGID_104_);fill:#685BC7;}
	.st53{clip-path:url(#SVGID_106_);}
	.st54{clip-path:url(#SVGID_108_);fill:#39207C;}
	.st55{clip-path:url(#SVGID_110_);}
	.st56{clip-path:url(#SVGID_112_);fill:#514AA5;}
	.st57{clip-path:url(#SVGID_114_);}
	.st58{clip-path:url(#SVGID_116_);fill:#9BE3BF;}
	.st59{clip-path:url(#SVGID_118_);}
	.st60{clip-path:url(#SVGID_120_);fill:#6FC190;}
	.st61{clip-path:url(#SVGID_122_);}
	.st62{clip-path:url(#SVGID_124_);fill:#685BC7;}
	.st63{clip-path:url(#SVGID_126_);}
	.st64{clip-path:url(#SVGID_128_);fill:#39207C;}
	.st65{clip-path:url(#SVGID_130_);}
	.st66{clip-path:url(#SVGID_132_);fill:#9BE3BF;}
	.st67{clip-path:url(#SVGID_134_);}
	.st68{clip-path:url(#SVGID_136_);fill:#6FC190;}
	.st69{clip-path:url(#SVGID_138_);}
	.st70{fill:#A7A4E0;}
	.st71{fill:#F42534;}
	.st72{fill:#39207C;}
	.st73{opacity:0.5;}
	.st74{clip-path:url(#SVGID_140_);}
	.st75{opacity:0.44;fill:#E6E7E8;}
	.st76{fill:#9BE3BF;}
	.st77{fill:#6FC190;}
	.st78{fill:#E6E7E8;}
	.st79{fill:#685BC7;}
	.st80{fill:#CE3232;}
	.st81{fill:#7A7ACC;}
	.st82{fill:#201E68;}
	.st83{fill:#D1D4FC;}
	.st84{clip-path:url(#SVGID_142_);}
	.st85{fill:#A59DE3;}
	.st86{fill:#FFFFFF;}
	.st87{fill:#D8D4DF;}
	.st88{fill:#514A95;}
	.st89{fill:#7327BC;}
	.st90{fill:#442D68;}
	.st91{fill:#8BD3AF;}
	.st92{fill:#7F7FC6;}
	.st93{fill:#2E1B54;}
	.st94{fill:#279F5E;}
	.st95{clip-path:url(#SVGID_144_);}
	.st96{fill:#514AA5;}
	.st97{opacity:0.3;fill:#856AEA;}
	.st98{fill:#F1C40F;}
	.st99{fill:#26D07C;}
	.st100{opacity:0.83;}
	.st101{opacity:0.68;fill:#39207C;}
	.st102{opacity:0.3;fill:#39207C;}
	.st103{opacity:0.7;fill:#9E88ED;}
	.st104{clip-path:url(#SVGID_146_);}
	.st105{opacity:0.2;fill:#764582;}
	.st106{fill:#918ECA;}
	.st107{fill:#514A8F;}
	.st108{fill:none;stroke:#FFFFFF;stroke-width:0.9734;stroke-miterlimit:10;}
	.st109{fill:#9D68AA;}
	.st110{fill:#7F7FC0;}
	.st111{fill-rule:evenodd;clip-rule:evenodd;fill:#7F7FC0;}
	.st112{fill-rule:evenodd;clip-rule:evenodd;fill:#918ECA;}
	.st113{fill-rule:evenodd;clip-rule:evenodd;fill:#BBBED5;}
	.st114{fill-rule:evenodd;clip-rule:evenodd;fill:#27995E;}
	.st115{fill-rule:evenodd;clip-rule:evenodd;fill:#6FAB80;}
	.st116{fill-rule:evenodd;clip-rule:evenodd;fill:#85CDA9;}
	.st117{fill-rule:evenodd;clip-rule:evenodd;fill:#808080;}
	.st118{fill-rule:evenodd;clip-rule:evenodd;fill:#BABCBD;}
	.st119{fill-rule:evenodd;clip-rule:evenodd;fill:#E1E1E1;}
	.st120{fill-rule:evenodd;clip-rule:evenodd;fill:#39207C;}
	.st121{fill-rule:evenodd;clip-rule:evenodd;fill:#9895A4;}
	.st122{fill-rule:evenodd;clip-rule:evenodd;fill:#FFFFFF;}
	.st123{fill-rule:evenodd;clip-rule:evenodd;fill:#685BB1;}
	.st124{clip-path:url(#SVGID_148_);enable-background:new    ;}
	.st125{clip-path:url(#SVGID_150_);}
	.st126{clip-path:url(#SVGID_152_);}
	.st127{clip-path:url(#SVGID_154_);fill:#A7A4E0;}
	.st128{clip-path:url(#SVGID_156_);}
	.st129{clip-path:url(#SVGID_158_);fill:#FFFFFF;}
	.st130{fill:url(#SVGID_159_);}
	.st131{fill:#9794D0;}
	.st132{fill:none;stroke:#A59DE3;stroke-width:5;stroke-miterlimit:10;}
	.st133{fill:url(#SVGID_160_);}
	.st134{clip-path:url(#SVGID_162_);}
	.st135{clip-path:url(#SVGID_164_);fill:#F7F7F7;}
	.st136{fill:#7F7FD6;}
	.st137{fill:#D0D2D3;}
	.st138{fill:#EEEEEE;}
	.st139{fill:#A6A8AB;}
	.st140{fill:#016867;}
	.st141{fill:#FEFDFD;}
	.st142{clip-path:url(#SVGID_166_);}
	.st143{opacity:0.46;}
	.st144{clip-path:url(#SVGID_168_);}
	.st145{fill:#575756;}
	.st146{fill:none;stroke:#39207C;stroke-miterlimit:10;}
	.st147{clip-path:url(#SVGID_170_);}
	.st148{clip-path:url(#SVGID_172_);}
	.st149{clip-path:url(#SVGID_174_);}
	.st150{fill:#F1F1F2;}
	.st151{fill:#F05A28;}
	.st152{clip-path:url(#SVGID_176_);}
	.st153{clip-path:url(#SVGID_178_);fill:#7F7FD6;}
</style>
<g>
	<g>
		<defs>
			<path id="SVGID_175_" d="M267.82,389.46c0.99-0.27,1.77-0.42,3.76-1.43c1.29-0.65,2.2-1.48,2.2-1.48
				c0.4-0.42,1.46-1.16,1.28-1.09c-0.64,0.26-0.66,0.13-0.97-0.15c-0.06-0.06-0.82-1.76-1.18-2.29c-0.15-0.22-0.27-1.11-0.27-1.25
				c-0.01-0.7,0.11-2.09,0.21-2.23c0,0,0.41-0.4,1.04-0.84c0.78-0.55,2.22-1.99,3.65-4.49c0.92-1.39,0.94-1.95,1.42-3.89
				c0.16-0.62,0.51-3.39,0.27-5.5c0,0-0.31-1.99-0.93-4.32c-1.01-3.8-2.74-5.64-2.74-5.64h-10.86c0,0,0.98,3.76,1.05,6.16
				c0.05,1.52,0.78,2.9,1.06,3.25c0.76,0.96,3.34,1.13,3.67,2.31c0.29,1.03,0.55,1.38,0.3,3.51c-0.06,0.55-0.18,2.01-0.28,2.94
				c-0.07,0.68-0.03,1.39-0.22,2.19c-0.24,0.98-0.32,2.01-1.33,2.64c-1.12,0.71-2.46,1.66-2.45,3.53c0,0.69-0.26,5,0.71,6.24
				c0.79,1.02-7.05,0.75-7.17,0.77c0,0-0.48,0.65-0.35,0.68C261.74,389.66,264.82,390.27,267.82,389.46z"/>
		</defs>
		<clipPath id="SVGID_2_">
			<use xlink:href="#SVGID_175_"  style="overflow:visible;"/>
		</clipPath>
		<g class="st1">
			<defs>
				
					<rect id="SVGID_177_" x="-544.05" y="211.48" transform="matrix(0.9977 -0.0679 0.0679 0.9977 -40.2691 3.9153)" width="1163.11" height="766.52"/>
			</defs>
			<clipPath id="SVGID_4_">
				<use xlink:href="#SVGID_177_"  style="overflow:visible;"/>
			</clipPath>
		</g>
	</g>
</g>
<g>
	<path class="st71" d="M197.74,79.05c11.58,39.07-10.72,80.12-49.79,91.69c-39.06,11.57-80.11-10.71-91.69-49.78
		c-11.56-39.06,10.73-80.12,49.79-91.69C145.11,17.69,186.17,39.98,197.74,79.05z"/>
	<g>
		<g>
			<path class="st72" d="M86.22,116.5l8.25-2.45l2.43,8.21c1.62,5.49,0.87,11.42-6.44,13.58l-1.69,0.51
				c-8,2.36-11.35-2.28-13.07-8.08l-7.15-24.16c-1.67-5.62-0.62-11.28,6.69-13.45l1.69-0.5c8.01-2.37,11.08,2.08,12.65,7.38
				l2.48,8.36l-8.25,2.44l-2.39-8.04c-0.53-1.75-1.35-2.51-2.91-2.06c-1.57,0.46-1.82,1.49-1.28,3.3l7.16,24.16
				c0.55,1.88,1.52,2.61,2.96,2.18c1.49-0.45,1.72-1.74,1.23-3.42L86.22,116.5z"/>
			<path class="st72" d="M91.46,86.47l8.55-2.53l10.04,33.9c0.56,1.92,1.55,2.65,2.91,2.25c1.31-0.39,1.73-1.54,1.16-3.46
				l-10.04-33.9l8.56-2.54l9.95,33.58c2.29,7.74-0.23,12.55-6.23,14.32l-2.08,0.61c-6.05,1.8-10.59-0.93-12.89-8.67L91.46,86.47z"/>
			<path class="st72" d="M126.01,76.24l10.67,36.01l8.56-2.54l2.48,8.36l-17.13,5.07l-13.14-44.37L126.01,76.24z"/>
			<path class="st72" d="M184.86,107.09l-8.56,2.53l-13.14-44.38l8.55-2.54L184.86,107.09z"/>
			<path class="st72" d="M148.49,68.95l-1.8,0.54c-7.31,2.16-8.35,7.83-6.69,13.45l7.15,24.16c1.53,5.15,4.36,9.38,10.57,8.6
				l1.34,8.56l8.96-2.65l-3.56-7.94c5.04-2.66,5.45-7.81,4.02-12.62l-7.32-24.73C159.59,71.03,156.5,66.59,148.49,68.95z
				 M160.15,103.25c0.5,1.69,0.14,3-1.35,3.45c-1.44,0.42-2.4-0.29-2.96-2.17l-7.16-24.16c-0.54-1.81-0.3-2.84,1.27-3.3
				c1.55-0.47,2.52,0.27,3.03,2.02L160.15,103.25z"/>
		</g>
	</g>
</g>
</svg>
