<?xml version="1.0" encoding="utf-8"?>
<!-- Generator: Adobe Illustrator 23.0.1, SVG Export Plug-In . SVG Version: 6.00 Build 0)  -->
<svg version="1.1" id="Capa_1" xmlns="http://www.w3.org/2000/svg" xmlns:xlink="http://www.w3.org/1999/xlink" x="0px" y="0px"
	 viewBox="0 0 254 200" style="enable-background:new 0 0 254 200;" xml:space="preserve">
<style type="text/css">
	.st0{fill-rule:evenodd;clip-rule:evenodd;fill:#685BC7;}
	.st1{clip-path:url(#SVGID_2_);}
	.st2{clip-path:url(#SVGID_4_);}
	.st3{clip-path:url(#SVGID_6_);fill:#A7A4E0;}
	.st4{clip-path:url(#SVGID_8_);}
	.st5{clip-path:url(#SVGID_10_);enable-background:new    ;}
	.st6{clip-path:url(#SVGID_12_);}
	.st7{clip-path:url(#SVGID_14_);}
	.st8{clip-path:url(#SVGID_16_);fill:#FFFFFF;}
	.st9{clip-path:url(#SVGID_18_);}
	.st10{clip-path:url(#SVGID_20_);fill:#CDEBF1;}
	.st11{clip-path:url(#SVGID_22_);}
	.st12{clip-path:url(#SVGID_24_);fill:#D0D2D3;}
	.st13{clip-path:url(#SVGID_26_);}
	.st14{clip-path:url(#SVGID_28_);fill:#3A3A2B;}
	.st15{clip-path:url(#SVGID_30_);}
	.st16{clip-path:url(#SVGID_32_);fill:#D0D2D3;}
	.st17{clip-path:url(#SVGID_34_);}
	.st18{clip-path:url(#SVGID_36_);fill:#D0D2D3;}
	.st19{clip-path:url(#SVGID_38_);}
	.st20{clip-path:url(#SVGID_40_);fill:#D0D2D3;}
	.st21{clip-path:url(#SVGID_42_);}
	.st22{clip-path:url(#SVGID_44_);fill:#D0D2D3;}
	.st23{clip-path:url(#SVGID_46_);}
	.st24{clip-path:url(#SVGID_48_);fill:#D0D2D3;}
	.st25{clip-path:url(#SVGID_50_);}
	.st26{clip-path:url(#SVGID_52_);fill:#D0D2D3;}
	.st27{clip-path:url(#SVGID_54_);}
	.st28{clip-path:url(#SVGID_56_);fill:#FFFFFF;}
	.st29{clip-path:url(#SVGID_58_);}
	.st30{clip-path:url(#SVGID_60_);fill:#9BE3BF;}
	.st31{clip-path:url(#SVGID_62_);}
	.st32{clip-path:url(#SVGID_64_);fill:#685BC7;}
	.st33{clip-path:url(#SVGID_66_);}
	.st34{clip-path:url(#SVGID_68_);fill:#9BE3BF;}
	.st35{clip-path:url(#SVGID_70_);}
	.st36{clip-path:url(#SVGID_72_);fill:#685BC7;}
	.st37{clip-path:url(#SVGID_74_);}
	.st38{clip-path:url(#SVGID_76_);fill:#9BE3BF;}
	.st39{clip-path:url(#SVGID_78_);}
	.st40{clip-path:url(#SVGID_80_);fill:#9BE3BF;}
	.st41{clip-path:url(#SVGID_82_);}
	.st42{clip-path:url(#SVGID_84_);fill:#9BE3BF;}
	.st43{clip-path:url(#SVGID_86_);}
	.st44{clip-path:url(#SVGID_88_);fill:#685BC7;}
	.st45{clip-path:url(#SVGID_90_);}
	.st46{clip-path:url(#SVGID_92_);fill:#685BC7;}
	.st47{clip-path:url(#SVGID_94_);}
	.st48{clip-path:url(#SVGID_96_);fill:#685BC7;}
	.st49{clip-path:url(#SVGID_98_);}
	.st50{clip-path:url(#SVGID_100_);fill:#685BC7;}
	.st51{clip-path:url(#SVGID_102_);}
	.st52{clip-path:url(#SVGID_104_);fill:#685BC7;}
	.st53{clip-path:url(#SVGID_106_);}
	.st54{clip-path:url(#SVGID_108_);fill:#39207C;}
	.st55{clip-path:url(#SVGID_110_);}
	.st56{clip-path:url(#SVGID_112_);fill:#514AA5;}
	.st57{clip-path:url(#SVGID_114_);}
	.st58{clip-path:url(#SVGID_116_);fill:#9BE3BF;}
	.st59{clip-path:url(#SVGID_118_);}
	.st60{clip-path:url(#SVGID_120_);fill:#6FC190;}
	.st61{clip-path:url(#SVGID_122_);}
	.st62{clip-path:url(#SVGID_124_);fill:#685BC7;}
	.st63{clip-path:url(#SVGID_126_);}
	.st64{clip-path:url(#SVGID_128_);fill:#39207C;}
	.st65{clip-path:url(#SVGID_130_);}
	.st66{clip-path:url(#SVGID_132_);fill:#9BE3BF;}
	.st67{clip-path:url(#SVGID_134_);}
	.st68{clip-path:url(#SVGID_136_);fill:#6FC190;}
	.st69{clip-path:url(#SVGID_138_);}
	.st70{fill:#A7A4E0;}
	.st71{fill:#F42534;}
	.st72{fill:#39207C;}
	.st73{opacity:0.5;}
	.st74{clip-path:url(#SVGID_140_);}
	.st75{opacity:0.44;fill:#E6E7E8;}
	.st76{fill:#9BE3BF;}
	.st77{fill:#6FC190;}
	.st78{fill:#E6E7E8;}
	.st79{fill:#685BC7;}
	.st80{fill:#CE3232;}
	.st81{fill:#7A7ACC;}
	.st82{fill:#201E68;}
	.st83{fill:#D1D4FC;}
	.st84{clip-path:url(#SVGID_142_);}
	.st85{fill:#A59DE3;}
	.st86{fill:#FFFFFF;}
	.st87{fill:#D8D4DF;}
	.st88{fill:#514A95;}
	.st89{fill:#7327BC;}
	.st90{fill:#442D68;}
	.st91{fill:#8BD3AF;}
	.st92{fill:#7F7FC6;}
	.st93{fill:#2E1B54;}
	.st94{fill:#279F5E;}
	.st95{clip-path:url(#SVGID_144_);}
	.st96{fill:#514AA5;}
	.st97{opacity:0.3;fill:#856AEA;}
	.st98{fill:#F1C40F;}
	.st99{fill:#26D07C;}
	.st100{opacity:0.83;}
	.st101{opacity:0.68;fill:#39207C;}
	.st102{opacity:0.3;fill:#39207C;}
	.st103{opacity:0.7;fill:#9E88ED;}
	.st104{clip-path:url(#SVGID_146_);}
	.st105{opacity:0.2;fill:#764582;}
	.st106{fill:#918ECA;}
	.st107{fill:#514A8F;}
	.st108{fill:none;stroke:#FFFFFF;stroke-width:0.9734;stroke-miterlimit:10;}
	.st109{fill:#9D68AA;}
	.st110{fill:#7F7FC0;}
	.st111{fill-rule:evenodd;clip-rule:evenodd;fill:#7F7FC0;}
	.st112{fill-rule:evenodd;clip-rule:evenodd;fill:#918ECA;}
	.st113{fill-rule:evenodd;clip-rule:evenodd;fill:#BBBED5;}
	.st114{fill-rule:evenodd;clip-rule:evenodd;fill:#27995E;}
	.st115{fill-rule:evenodd;clip-rule:evenodd;fill:#6FAB80;}
	.st116{fill-rule:evenodd;clip-rule:evenodd;fill:#85CDA9;}
	.st117{fill-rule:evenodd;clip-rule:evenodd;fill:#808080;}
	.st118{fill-rule:evenodd;clip-rule:evenodd;fill:#BABCBD;}
	.st119{fill-rule:evenodd;clip-rule:evenodd;fill:#E1E1E1;}
	.st120{fill-rule:evenodd;clip-rule:evenodd;fill:#39207C;}
	.st121{fill-rule:evenodd;clip-rule:evenodd;fill:#9895A4;}
	.st122{fill-rule:evenodd;clip-rule:evenodd;fill:#FFFFFF;}
	.st123{fill-rule:evenodd;clip-rule:evenodd;fill:#685BB1;}
	.st124{clip-path:url(#SVGID_148_);enable-background:new    ;}
	.st125{clip-path:url(#SVGID_150_);}
	.st126{clip-path:url(#SVGID_152_);}
	.st127{clip-path:url(#SVGID_154_);fill:#A7A4E0;}
	.st128{clip-path:url(#SVGID_156_);}
	.st129{clip-path:url(#SVGID_158_);fill:#FFFFFF;}
	.st130{fill:url(#SVGID_159_);}
	.st131{fill:#9794D0;}
	.st132{fill:none;stroke:#A59DE3;stroke-width:5;stroke-miterlimit:10;}
	.st133{fill:url(#SVGID_160_);}
	.st134{clip-path:url(#SVGID_162_);}
	.st135{clip-path:url(#SVGID_164_);fill:#F7F7F7;}
	.st136{fill:#7F7FD6;}
	.st137{fill:#D0D2D3;}
	.st138{fill:#EEEEEE;}
	.st139{fill:#A6A8AB;}
	.st140{fill:#016867;}
	.st141{fill:#FEFDFD;}
	.st142{clip-path:url(#SVGID_166_);}
	.st143{opacity:0.46;}
	.st144{clip-path:url(#SVGID_168_);}
	.st145{fill:#575756;}
	.st146{fill:none;stroke:#39207C;stroke-miterlimit:10;}
	.st147{clip-path:url(#SVGID_170_);}
	.st148{clip-path:url(#SVGID_172_);}
	.st149{clip-path:url(#SVGID_174_);}
	.st150{fill:#F1F1F2;}
	.st151{fill:#F05A28;}
	.st152{clip-path:url(#SVGID_176_);}
	.st153{clip-path:url(#SVGID_178_);fill:#7F7FD6;}
</style>
<g>
	<circle class="st0" cx="127.01" cy="99.95" r="82.98"/>
	<g>
		<defs>
			<circle id="SVGID_137_" cx="126.99" cy="100.05" r="82.98"/>
		</defs>
		<clipPath id="SVGID_2_">
			<use xlink:href="#SVGID_137_"  style="overflow:visible;"/>
		</clipPath>
		<g class="st1">
			<g>
				<polygon class="st70" points="122.57,199.02 123.11,205.44 130.68,204.16 130.82,197.35 				"/>
				<polygon class="st70" points="145.43,182.32 151.73,185.21 154.01,177.33 149.67,173.93 				"/>
				<path class="st71" d="M153.52,176.9l-2.54,7.96c0,0,0.52,1.96,0.24,3.87c-0.29,1.94-0.92,9.5-1.44,11.94
					c-0.46,2.17,2.94,2.23,4.32,1.19c2.29-1.73,3.04-4.79,6.19-13.11c1.93-5.1-1-7.37-2.81-9.06
					C155.07,177.44,153.52,176.9,153.52,176.9z"/>
				<path class="st70" d="M99.61,58.16c-0.35-1.05-2.21-3.09-2.91-3.61c-0.39-0.3-0.75-0.74-0.91-1.08
					c-0.12-0.26,0.21-0.64,0.4-0.67c0.44-0.06,1.55,0.64,1.47,0.47c-0.08-0.17-1.61-2.22-2.14-3c-0.15-0.22-0.49-0.7,0-1.11
					c0.22-0.19,0.4-0.13,0.79-0.26c0.26-0.09,0.47-0.56,0.76-0.62s0.92-0.03,1.2-0.05c0.7-0.06,1.26-0.12,1.52,0.12
					c1.64,1.48,1.72,3.12,2.11,4.17c0.5,1.33,1.44,3.58,1.44,3.58L99.61,58.16z"/>
				<path class="st72" d="M144.88,65.08c0,0-7.18,37.95-7.08,41.76s0.22,1.79,0.22,1.79s3.35-7.91,4.4-11.29
					c0.85-2.73,7.42-22.39,10.24-30.17c0.7-1.93,0.43-2.78,0.34-3.29c-0.03-0.18-0.84,0.82-1.65,1.25c-2.46,1.29-4.1,2.36-4.67,2.12
					C144.43,66.27,144.88,65.08,144.88,65.08z"/>
				<g class="st73">
					<defs>
						<path id="SVGID_139_" class="st73" d="M144.75,65.09c0,0-4.03,0.35-6.76,2.59c-2.73,2.24-11.85,4.54-12.92,5.53
							c-1.07,0.99-11.98-2.82-16.08-9.53s-5.32-8.25-5.85-7.75s-2.25,1.5-3.23,1.7c-0.98,0.21-0.7,0.92-0.43,1.63
							c0.28,0.71,2.86,14.24,10.88,20.11s20.56,4.64,23.67,3.6s-3.12,20.49-6.31,26.03s-8.08,10.27-8.08,10.27s-1.15,0.63,0.7,1.52
							c1.85,0.89,3.74,5.61,6.9,4.82s6.71,0.89,6.71,0.89s15.2-0.76,20.58,12.06c0,0,7.42-10.39,6.63-20.21c0,0-0.91-3.14-0.88-4.17
							c0.04-1.03,3.9-5.17,3.9-5.17s0.45-1.5-0.14-4.32c-0.59-2.82,1.73-16.75,3.74-22.41c2.01-5.67-3.75-19.9-10.3-21.63
							c-6.55-1.73-5.76,1.21-5.76,1.21s2.21,1.22,0.77,5.36s-6.63,19.15-6.63,19.15s-5.86,19.02-7.87,22.26
							C136.01,111.86,144.75,65.09,144.75,65.09z"/>
					</defs>
					<clipPath id="SVGID_4_">
						<use xlink:href="#SVGID_139_"  style="overflow:visible;"/>
					</clipPath>
					<g class="st2">
						
							<rect x="101.3" y="31.56" transform="matrix(0.9771 0.2126 -0.2126 0.9771 17.3249 -20.1185)" class="st75" width="1.79" height="77.85"/>
						
							<rect x="106.9" y="32.78" transform="matrix(0.9771 0.2126 -0.2126 0.9771 17.7124 -21.2823)" class="st75" width="1.79" height="77.85"/>
						
							<rect x="110.01" y="33.73" transform="matrix(0.9771 0.2126 -0.2126 0.9771 20.4796 -21.6537)" class="st75" width="1.79" height="101.3"/>
						
							<rect x="115.62" y="34.95" transform="matrix(0.9771 0.2126 -0.2126 0.9771 20.8671 -22.8174)" class="st75" width="1.79" height="101.3"/>
						
							<rect x="121.22" y="36.17" transform="matrix(0.9771 0.2126 -0.2126 0.9771 21.2546 -23.9812)" class="st75" width="1.79" height="101.3"/>
						
							<rect x="126.82" y="37.39" transform="matrix(0.9771 0.2126 -0.2126 0.9771 21.6421 -25.1449)" class="st75" width="1.79" height="101.3"/>
						
							<rect x="132.43" y="38.61" transform="matrix(0.9771 0.2126 -0.2126 0.9771 22.0296 -26.3087)" class="st75" width="1.79" height="101.3"/>
						
							<rect x="138.03" y="39.83" transform="matrix(0.9771 0.2126 -0.2126 0.9771 22.4171 -27.4725)" class="st75" width="1.79" height="101.3"/>
						
							<rect x="141.18" y="63.64" transform="matrix(0.9771 0.2126 -0.2126 0.9771 25.1219 -27.8583)" class="st75" width="1.79" height="78.44"/>
						
							<rect x="149.24" y="42.27" transform="matrix(0.9771 0.2126 -0.2126 0.9771 23.1921 -29.8)" class="st75" width="1.79" height="101.3"/>
						
							<rect x="154.84" y="43.49" transform="matrix(0.9771 0.2126 -0.2126 0.9771 23.5796 -30.9638)" class="st75" width="1.79" height="101.3"/>
						
							<rect x="160.45" y="44.71" transform="matrix(0.9771 0.2126 -0.2126 0.9771 23.9671 -32.1275)" class="st75" width="1.79" height="101.3"/>
					</g>
				</g>
				<polyline class="st76" points="137.88,160.65 151.21,174.99 146.84,186.13 132.42,172.92 				"/>
				<path class="st77" d="M137.22,159.91l13.99,15.03l-1.28,3.25l-15.59-10.77c0,0,0.59-1.46,1.26-3.72
					C136.27,161.42,137.22,159.91,137.22,159.91z"/>
				<path class="st76" d="M154.33,132.36c0,0-18.25,26.03-18.73,32.25c-0.48,6.22-4.05,1.36-5.3,34.27c0,0-7.55,4.14-9.77,2.05
					c0,0-1.12-19.91-1.89-23.58c-0.77-3.66-1.53-9.5,0.35-13.71c0.58-1.3,1.36-3.66,2.46-6.56c2.39-6.29,5.48-14.38,5.48-14.38
					l-5.29,2.77l2.92,4.09l-6,15.64c0,0-13.76-6.49-14.85-11.7s-2.04-9.72,1.39-14.06s10.97-15.89,17.75-19.85
					C129.63,115.63,154.33,132.36,154.33,132.36z"/>
				<path class="st70" d="M150.02,54.91c0,0-0.21,0.59-0.52,1.43c-0.73,1.94-2.06,5.24-2.82,5.8c-1.66,1.24-4.57,2.62-7.42,0.02
					s-3.39-8.35-3.96-11.31c-0.58-2.96,2.74-6.22,5.38-5.75c2.64,0.47,8.15,4.46,7.79,5.51c-0.36,1.05,0.75-1.29,2.42-1
					c1.67,0.29,2.56,2.79,0.85,4.04C150.02,54.91,150.02,54.91,150.02,54.91z"/>
				<path class="st70" d="M152.68,60.93c-0.43-0.31-0.8-0.7-1.11-1.13c-0.77-1.06-2.56-3.62-2.73-4.39
					c-0.15-0.73-2.02,3.05-2.99,5.06c-0.34,0.71-0.52,1.49-0.51,2.28c0.01,0.91-0.05,2.09-0.47,2.33c-0.7,0.4,1.26,2.68,2.4,2.18
					c1.14-0.5,5.67-2.6,6.41-4.29c0.34-0.77-0.1-1.5-0.67-1.82C152.91,61.08,152.79,61.01,152.68,60.93z"/>
				<path class="st72" d="M135.3,50.85c0,0-6.31-4.12-2.5-8.22c3.8-4.1,4.56,1.37,7.36,0.79c2.79-0.59,6.39-2.9,7.71-1.23
					c1.32,1.67,2.42,3.18,2.52,5.5c0.1,2.31-1.26,2.05-1.63,3.1c-0.36,1.05,0.2,1.24-0.65,0.88c-1.18-0.5-3.03-4.22-3.03-4.22
					s-1.32-1.5-4.08-0.81C138.25,47.31,135.72,48.23,135.3,50.85z"/>
				<path class="st77" d="M124.4,149.33l-2.69-3.94l5.29-2.77l4.08-9.99l-11.54-0.74c0,0-10.77,8.54-6.44,18.35
					c2.61,5.92,7.64,8.77,7.64,8.77"/>
				<path class="st77" d="M126.43,200.62c0.66-0.19,4.32-1.74,4.32-1.74c1.25-32.91,4.82-28.05,5.3-34.27
					c0.48-6.22,18.73-32.25,18.73-32.25s-4.15-1.85-9.11-4.7c0,0-13.84,20.67-14.38,31.37c-0.23,4.62-2.63,7.87-4.35,11.39
					C125.22,173.93,126.43,200.62,126.43,200.62z"/>
				<path class="st78" d="M144.49,67.14c0.2-1.04-0.75-1.93-1.78-1.67c-1.42,0.36-3.27,1.02-4.72,2.2
					c-2.73,2.24-11.85,4.54-12.92,5.53c-1.07,0.99-11.98-2.82-16.08-9.53s-5.32-8.25-5.85-7.75s-2.25,1.5-3.23,1.7
					c-0.98,0.21-0.7,0.92-0.43,1.63c0.28,0.71,2.86,14.24,10.88,20.11s20.56,4.64,23.67,3.6s-3.12,20.49-6.31,26.03
					s-8.08,10.27-8.08,10.27s-1.15,0.63,0.7,1.52c1.85,0.89,3.74,5.61,6.9,4.82c2.64-0.66,5.55,0.4,6.44,0.77
					c0.18,0.08,0.38,0.11,0.58,0.11c2.02-0.02,13.6,0.27,19.16,9.83c0.56,0.97,1.94,1.01,2.51,0.04c2.09-3.54,5.74-10.82,5.25-17.85
					c-0.01-0.11-0.03-0.21-0.06-0.31c-0.18-0.64-0.87-3.12-0.83-4.02c0.03-0.87,2.76-3.92,3.63-4.88c0.2-0.21,0.32-0.48,0.36-0.76
					c0.09-0.65,0.17-1.95-0.23-3.85c-0.59-2.82,1.73-16.75,3.74-22.41c2.01-5.67-3.75-19.9-10.3-21.63
					c-1.96-0.52-3.27-0.62-4.13-0.5c-1.11,0.15-1.59,1.44-0.92,2.34c0.52,0.7,0.99,2.07,0.13,4.55c-1.43,4.14-6.69,19.32-6.69,19.32
					s-5.86,19.02-7.87,22.26C136.26,111.45,142.8,76.15,144.49,67.14z"/>
				<path class="st79" d="M144.75,65.09c0,0-3.17-0.29-5.11,1.05c-1.12,0.77,2.12,4.58,2.05,4.76c-0.07,0.18-1.66,1.44-1.74,1.55
					c-0.07,0.11,0.26,8.87,0.26,8.87l1.61,0.42c0,0,2.08-6.99,2.92-11.47c0.44-2.2,0.05-4.65,0.05-4.67
					c-0.04-0.15-0.05-0.24-0.04-0.32c0.02-0.14,0.11-0.14,0.09-0.17C144.83,65.1,144.77,65.1,144.75,65.09z"/>
				<path class="st79" d="M152.26,60.07c0.09-0.02,4.12-0.94,5.77,0.74c0.95,0.97-4.62,7.88-4.58,8.08c0.04,0.2,1.38,1.73,1.41,1.86
					c0.15,0.6-9.39,22.93-9.39,22.93l-2.09,0.58c0,0,4.8-13.69,7.27-23.73c0.38-1.54,1.18-4.5,1.42-5.68
					c0.29-1.4-0.11-3.01-0.07-3.92C152,60.63,152.17,60.09,152.26,60.07z"/>
				<path class="st80" d="M153.52,176.9c0,0,1.54,0.55,3.95,2.8c1.8,1.68,4.73,3.96,2.81,9.06c-3.15,8.32-3.9,11.38-6.19,13.11
					c0,0-0.87,0.6-1.56,0.6c-0.18,0,3.28-9,4.28-14.03c1-5.03-2.72-7.99-3.24-9.92c-0.12-0.46-0.21-0.8-0.24-1.04L153.52,176.9z"/>
			</g>
			<g>
				<g>
					<g>
						<path class="st72" d="M157.92,135.78l-63.18-5.23c-7.26-0.6-12.66-6.98-12.06-14.24l2.3-27.79
							c0.6-7.26,6.98-12.66,14.24-12.06l63.18,5.23c7.26,0.6,12.66,6.98,12.06,14.24l-2.3,27.79
							C171.55,130.98,165.18,136.38,157.92,135.78z"/>
						<path class="st81" d="M157.35,81.32c0,0,17.43,15.38,4.73,28.57c-19.61,20.37-44.95,22.53-44.95,22.53l49.43,4.01
							c2.51,0.2,4.72-1.67,4.92-4.18l3.29-40.2c0.61-4.68-3.11-9.53-8.5-10.04L157.35,81.32z"/>
						<path class="st82" d="M171.38,130.82c-0.81,3.43-2.27,4.05-9.21,3.47c0,0-70.18-5.37-72.48-5.78
							c-3.69-0.65-6.35-3.96-6.11-7.95c0.24-3.98,2.26-35.76,2.4-37.4c0.14-1.64,0.2-2.36,0.2-2.36s0.03-0.16,0.07-0.28
							c0.01-0.04,0.03-0.1,0.02-0.13c-0.01-0.04-0.06-0.05-0.08-0.05c-0.01,0-0.14,0.31-0.19,0.41c-0.41,0.85-0.56,2.03-0.59,2.41
							c-0.02,0.31-3.19,38.5-3.19,38.5c-0.36,4.3,2.84,8.08,7.15,8.44l76.7,6.29c3.3,0.33,5.32-1.64,5.48-4.97l0.13-2.11
							L171.38,130.82z"/>
					</g>
					<g>
						<path class="st78" d="M99.16,94.04l-0.04,0.41l-0.56-0.05l-0.08,0.87l-0.44-0.04l0.08-0.87l-2.31-0.2l0.04-0.41l1.89-2.94
							l0.48,0.04l-1.89,2.94l1.83,0.16l0.12-1.33l0.44,0.04l-0.12,1.33L99.16,94.04z"/>
						<path class="st78" d="M102.02,92.96c0.41,0.04,0.74,0.19,1.01,0.45c0.26,0.26,0.38,0.6,0.34,1.02
							c-0.04,0.42-0.21,0.73-0.51,0.94s-0.66,0.3-1.07,0.27c-0.33-0.03-0.61-0.13-0.86-0.32c-0.24-0.18-0.4-0.43-0.46-0.73
							l0.39-0.18c0.04,0.24,0.15,0.43,0.32,0.57s0.39,0.22,0.65,0.24c0.3,0.03,0.55-0.03,0.76-0.18c0.21-0.14,0.32-0.36,0.35-0.65
							s-0.05-0.52-0.23-0.7c-0.18-0.18-0.42-0.28-0.72-0.3l-1.18-0.1l0.35-2.17l2.33,0.21l-0.04,0.41l-1.95-0.17l-0.22,1.34
							L102.02,92.96z"/>
						<path class="st78" d="M106.34,93.14c0.43,0.04,0.77,0.2,1.02,0.49c0.25,0.29,0.36,0.65,0.32,1.07c-0.04,0.42-0.2,0.76-0.5,1
							c-0.3,0.24-0.66,0.35-1.09,0.31s-0.77-0.2-1.02-0.49c-0.25-0.29-0.36-0.65-0.32-1.07c0.03-0.33,0.14-0.61,0.35-0.85l1.61-2
							l0.49,0.04l-1.21,1.5C106.1,93.13,106.22,93.13,106.34,93.14z M105.4,95.25c0.17,0.2,0.41,0.32,0.72,0.35s0.56-0.04,0.77-0.21
							c0.21-0.17,0.32-0.41,0.35-0.71c0.03-0.3-0.05-0.56-0.22-0.76c-0.17-0.2-0.41-0.32-0.72-0.35c-0.31-0.03-0.56,0.04-0.77,0.22
							c-0.21,0.17-0.32,0.41-0.35,0.71C105.16,94.79,105.23,95.04,105.4,95.25z"/>
						<path class="st78" d="M110.43,93.7c0.41,0.04,0.74,0.19,1.01,0.45c0.26,0.26,0.38,0.6,0.34,1.02
							c-0.04,0.42-0.21,0.73-0.51,0.94s-0.66,0.3-1.07,0.27c-0.33-0.03-0.61-0.13-0.86-0.32c-0.24-0.18-0.4-0.43-0.46-0.73
							l0.39-0.18c0.04,0.24,0.15,0.43,0.32,0.57s0.39,0.22,0.65,0.24c0.3,0.03,0.55-0.03,0.76-0.18c0.21-0.14,0.32-0.36,0.35-0.65
							s-0.05-0.52-0.23-0.7c-0.18-0.18-0.42-0.28-0.72-0.3l-1.18-0.1l0.35-2.17l2.33,0.21l-0.04,0.41l-1.95-0.17l-0.22,1.34
							L110.43,93.7z"/>
						<path class="st78" d="M117.99,94.72c0.21,0.12,0.37,0.28,0.49,0.48c0.11,0.2,0.16,0.41,0.14,0.65
							c-0.03,0.39-0.2,0.69-0.5,0.89c-0.3,0.2-0.65,0.28-1.07,0.24s-0.75-0.18-1.01-0.42c-0.26-0.25-0.37-0.57-0.34-0.96
							c0.02-0.24,0.11-0.44,0.25-0.62c0.15-0.17,0.34-0.3,0.56-0.39c-0.37-0.25-0.53-0.6-0.49-1.03c0.03-0.39,0.19-0.68,0.47-0.86
							s0.6-0.26,0.95-0.23c0.36,0.03,0.66,0.16,0.9,0.39s0.34,0.54,0.31,0.93C118.61,94.23,118.39,94.53,117.99,94.72z
							 M116.36,96.28c0.17,0.16,0.42,0.25,0.72,0.28c0.31,0.03,0.56-0.02,0.76-0.15c0.2-0.13,0.31-0.33,0.34-0.6
							c0.02-0.27-0.05-0.48-0.23-0.65c-0.17-0.16-0.42-0.25-0.72-0.28s-0.56,0.02-0.76,0.15c-0.2,0.13-0.31,0.33-0.33,0.6
							C116.11,95.9,116.19,96.12,116.36,96.28z M118.02,93.14c-0.16-0.14-0.36-0.23-0.61-0.25c-0.25-0.02-0.46,0.02-0.64,0.14
							c-0.18,0.11-0.28,0.3-0.3,0.57c-0.02,0.25,0.05,0.45,0.21,0.6c0.16,0.15,0.36,0.24,0.6,0.26c0.24,0.02,0.45-0.03,0.64-0.15
							c0.18-0.12,0.29-0.31,0.31-0.56C118.24,93.49,118.17,93.28,118.02,93.14z"/>
						<path class="st78" d="M122.34,95.1c0.21,0.12,0.37,0.28,0.49,0.48c0.11,0.2,0.16,0.41,0.14,0.65c-0.03,0.39-0.2,0.69-0.5,0.89
							c-0.3,0.2-0.65,0.28-1.07,0.24c-0.42-0.04-0.75-0.18-1.01-0.42c-0.26-0.25-0.37-0.57-0.34-0.96c0.02-0.24,0.11-0.44,0.25-0.62
							c0.15-0.17,0.34-0.3,0.56-0.39c-0.37-0.25-0.53-0.6-0.49-1.03c0.03-0.39,0.19-0.68,0.47-0.86s0.6-0.26,0.95-0.23
							c0.36,0.03,0.66,0.16,0.9,0.39c0.24,0.23,0.34,0.54,0.31,0.93C122.97,94.61,122.74,94.92,122.34,95.1z M120.71,96.66
							c0.17,0.16,0.42,0.25,0.72,0.28s0.56-0.02,0.76-0.15c0.2-0.13,0.31-0.33,0.34-0.6c0.02-0.27-0.05-0.48-0.23-0.65
							c-0.17-0.16-0.42-0.25-0.72-0.28s-0.56,0.02-0.76,0.15c-0.2,0.13-0.31,0.33-0.33,0.6C120.46,96.28,120.54,96.5,120.71,96.66z
							 M122.37,93.52c-0.16-0.14-0.36-0.23-0.61-0.25c-0.25-0.02-0.46,0.02-0.64,0.14c-0.18,0.11-0.28,0.3-0.3,0.57
							c-0.02,0.25,0.05,0.45,0.21,0.6c0.16,0.15,0.36,0.24,0.6,0.26c0.24,0.02,0.45-0.03,0.64-0.15c0.18-0.12,0.29-0.31,0.31-0.56
							C122.59,93.87,122.52,93.67,122.37,93.52z"/>
						<path class="st78" d="M125.86,95.06c0.41,0.04,0.74,0.19,1.01,0.45c0.26,0.26,0.38,0.6,0.34,1.02
							c-0.04,0.42-0.21,0.73-0.51,0.94c-0.31,0.21-0.66,0.3-1.07,0.27c-0.33-0.03-0.61-0.13-0.86-0.32
							c-0.24-0.18-0.4-0.43-0.46-0.73l0.39-0.18c0.04,0.24,0.15,0.43,0.32,0.57c0.17,0.14,0.39,0.22,0.65,0.24
							c0.3,0.03,0.55-0.03,0.76-0.18c0.21-0.14,0.32-0.36,0.35-0.65c0.03-0.29-0.05-0.52-0.23-0.7c-0.18-0.18-0.42-0.28-0.72-0.3
							l-1.18-0.1l0.35-2.17l2.33,0.21l-0.04,0.41l-1.95-0.17l-0.22,1.34L125.86,95.06z"/>
						<path class="st78" d="M131.29,95.14c-0.03,0.33-0.14,0.61-0.34,0.85l-1.61,2l-0.49-0.04l1.21-1.5
							c-0.11,0.02-0.23,0.02-0.35,0.01c-0.43-0.04-0.77-0.2-1.02-0.49c-0.25-0.29-0.36-0.65-0.32-1.07c0.04-0.42,0.2-0.76,0.5-1
							c0.3-0.24,0.66-0.35,1.09-0.31c0.43,0.04,0.77,0.2,1.02,0.49C131.22,94.36,131.33,94.71,131.29,95.14z M129.15,94.21
							c-0.21,0.17-0.32,0.41-0.35,0.71c-0.03,0.3,0.05,0.56,0.22,0.76c0.17,0.2,0.41,0.32,0.72,0.35c0.31,0.03,0.56-0.04,0.77-0.22
							c0.21-0.17,0.32-0.41,0.35-0.71c0.03-0.3-0.05-0.56-0.22-0.76c-0.17-0.2-0.41-0.32-0.72-0.35
							C129.61,93.97,129.35,94.04,129.15,94.21z"/>
						<path class="st78" d="M136.54,95.79c0.43,0.04,0.77,0.2,1.02,0.49c0.25,0.29,0.36,0.65,0.32,1.07c-0.04,0.42-0.2,0.76-0.5,1
							c-0.3,0.24-0.66,0.35-1.09,0.31c-0.43-0.04-0.77-0.2-1.02-0.49c-0.25-0.29-0.36-0.65-0.32-1.07c0.03-0.33,0.14-0.61,0.35-0.85
							l1.61-2l0.49,0.04l-1.21,1.5C136.3,95.79,136.42,95.78,136.54,95.79z M135.6,97.9c0.17,0.2,0.41,0.32,0.72,0.35
							c0.31,0.03,0.56-0.04,0.77-0.21c0.21-0.17,0.32-0.41,0.35-0.71c0.03-0.3-0.05-0.56-0.22-0.76c-0.17-0.2-0.41-0.32-0.72-0.35
							c-0.31-0.03-0.56,0.04-0.77,0.22c-0.21,0.17-0.32,0.41-0.35,0.71C135.36,97.45,135.43,97.7,135.6,97.9z"/>
						<path class="st78" d="M140.63,96.35c0.41,0.04,0.74,0.19,1.01,0.45c0.26,0.26,0.38,0.6,0.34,1.02
							c-0.04,0.42-0.21,0.73-0.51,0.94c-0.31,0.21-0.66,0.3-1.07,0.27c-0.33-0.03-0.61-0.13-0.86-0.32
							c-0.24-0.18-0.4-0.43-0.46-0.73l0.39-0.18c0.04,0.24,0.15,0.43,0.32,0.57c0.17,0.14,0.39,0.22,0.65,0.24
							c0.3,0.03,0.55-0.03,0.76-0.18c0.21-0.14,0.32-0.36,0.35-0.65s-0.05-0.52-0.23-0.7c-0.18-0.18-0.42-0.28-0.72-0.3l-1.18-0.1
							l0.35-2.17l2.33,0.21l-0.04,0.41l-1.95-0.17l-0.22,1.34L140.63,96.35z"/>
						<path class="st78" d="M146.63,98.21l-0.04,0.41l-0.56-0.05l-0.08,0.87l-0.44-0.04l0.08-0.87l-2.31-0.2l0.04-0.41l1.89-2.94
							l0.48,0.04l-1.89,2.94l1.83,0.16l0.12-1.33l0.44,0.04l-0.12,1.33L146.63,98.21z"/>
						<path class="st78" d="M150.24,97.56c0.21,0.12,0.37,0.28,0.49,0.48c0.11,0.2,0.16,0.41,0.14,0.65
							c-0.03,0.39-0.2,0.69-0.5,0.89c-0.3,0.2-0.65,0.28-1.07,0.24s-0.75-0.18-1.01-0.42c-0.26-0.25-0.37-0.57-0.34-0.96
							c0.02-0.24,0.11-0.44,0.25-0.62c0.15-0.17,0.34-0.3,0.56-0.39c-0.37-0.25-0.53-0.6-0.49-1.03c0.03-0.39,0.19-0.68,0.47-0.86
							s0.6-0.26,0.95-0.23c0.36,0.03,0.66,0.16,0.9,0.39c0.24,0.23,0.34,0.54,0.31,0.93C150.87,97.06,150.65,97.37,150.24,97.56z
							 M148.62,99.11c0.17,0.16,0.42,0.25,0.72,0.28s0.56-0.02,0.76-0.15c0.2-0.13,0.31-0.33,0.34-0.6
							c0.02-0.27-0.05-0.48-0.23-0.65c-0.17-0.16-0.42-0.25-0.72-0.28c-0.31-0.03-0.56,0.02-0.76,0.15c-0.2,0.13-0.31,0.33-0.33,0.6
							C148.37,98.74,148.44,98.95,148.62,99.11z M150.27,95.98c-0.16-0.14-0.36-0.23-0.61-0.25c-0.25-0.02-0.46,0.02-0.64,0.14
							c-0.18,0.11-0.28,0.3-0.3,0.57c-0.02,0.25,0.05,0.45,0.21,0.6c0.16,0.15,0.36,0.24,0.6,0.26c0.24,0.02,0.45-0.03,0.64-0.15
							c0.18-0.12,0.29-0.31,0.31-0.56C150.5,96.33,150.43,96.12,150.27,95.98z"/>
					</g>
				</g>
				<g>
					<path class="st83" d="M68.69,91.22c-0.07,0-0.25-2.22,0-2.43c0.29-0.24,7.26-0.88,7.22-0.99c-0.04-0.11,1.13,1.37,0.97,1.59
						C76.71,89.62,68.78,91.22,68.69,91.22z"/>
					<path class="st83" d="M65.82,76.38c-0.24-0.32,0.29-2.82,0.5-2.76c0.25,0.07,11.45,5.38,11.39,5.19
						c-0.05-0.19,0.34,1.46,0.22,1.46C77.82,80.28,66.14,76.8,65.82,76.38z"/>
					<path class="st83" d="M76.58,64.88c-0.11-0.26,2.86-2.62,2.94-2.59c0.09,0.03,5.07,9.22,5.09,9.44
						c0.02,0.22-1.99,0.38-2.08,0.42C82.44,72.18,76.72,65.21,76.58,64.88z"/>
				</g>
				<g>
					<path class="st83" d="M191.37,130.22c0.06,0.02-0.34,1.87-0.59,1.98c-0.3,0.13-6.14-1.04-6.14-0.94c0,0.1-0.59-1.4-0.4-1.53
						C184.43,129.59,191.3,130.2,191.37,130.22z"/>
					<path class="st83" d="M191.06,141.31c0.17,0.3-0.55,2.35-0.72,2.28c-0.2-0.08-9.1-5.77-9.08-5.6c0.02,0.17-0.13-1.27-0.03-1.26
						C181.34,136.73,190.84,140.92,191.06,141.31z"/>
					<path class="st83" d="M182.38,150.63c0.12,0.28-3.06,2.9-3.14,2.87c-0.1-0.04-5.69-9.93-5.71-10.16
						c-0.03-0.24,2.16-0.46,2.25-0.49C175.87,142.81,182.22,150.27,182.38,150.63z"/>
				</g>
			</g>
			<g>
				<path class="st78" d="M156.6,79.36c-0.59,0.3-4.85,7.8-6.28,8.19c-1.43,0.39-13.62-1.73-14.3-2.62
					c-0.68-0.89-3.45,3.91-3.45,3.91s1.67,1.04,2.02,1.03s13.96,6.01,20.05,5.4c7.5-0.75,13.26-13.32,13.26-13.32L156.6,79.36z"/>
				<path class="st70" d="M135.83,85.13c-1.02-0.42-2.92-2.43-3.4-3.17c-0.27-0.41-0.68-0.81-1.01-0.99
					c-0.25-0.14-0.66,0.16-0.69,0.35c-0.09,0.44,0.53,1.6,0.36,1.5c-0.17-0.09-2.09-1.77-2.84-2.35c-0.21-0.17-0.66-0.54-1.1-0.08
					c-0.2,0.21-0.16,0.39-0.32,0.77c-0.11,0.25-0.59,0.43-0.67,0.71c-0.08,0.28-0.1,0.91-0.14,1.19c-0.11,0.69-0.2,1.25,0.01,1.52
					c1.36,1.74,2.99,1.94,4.01,2.41c1.29,0.59,3.47,1.7,3.47,1.7L135.83,85.13z"/>
			</g>
		</g>
	</g>
</g>
<g>
	<g>
		<g>
			<defs>
				<path id="SVGID_155_" d="M-128.44,316.54c-0.63-0.01-1.25-0.27-1.69-0.72l-7.32-7.59c-0.91-0.94-0.88-2.45,0.06-3.36
					c0.44-0.43,1.03-0.67,1.65-0.67c0.65,0,1.26,0.26,1.71,0.73l5.65,5.85l12.81-12.81c0.45-0.45,1.05-0.69,1.68-0.69
					s1.23,0.25,1.68,0.69c0.93,0.93,0.93,2.43,0,3.36l-14.52,14.52c-0.44,0.44-1.05,0.7-1.68,0.7"/>
			</defs>
			<clipPath id="SVGID_6_">
				<use xlink:href="#SVGID_155_"  style="overflow:visible;"/>
			</clipPath>
			<g style="clip-path:url(#SVGID_6_);">
				<defs>
					<rect id="SVGID_157_" x="-1662.16" y="62.57" width="2223.1" height="1621.01"/>
				</defs>
				<clipPath id="SVGID_8_">
					<use xlink:href="#SVGID_157_"  style="overflow:visible;"/>
				</clipPath>
			</g>
		</g>
	</g>
</g>
<g>
	<g>
		<defs>
			<path id="SVGID_161_" d="M461.02,142.19c0,6.53-29.35,11.82-65.56,11.82c-36.21,0-65.56-5.29-65.56-11.82
				c0-6.53,29.35-11.82,65.56-11.82C431.67,130.36,461.02,135.66,461.02,142.19"/>
		</defs>
		<clipPath id="SVGID_10_">
			<use xlink:href="#SVGID_161_"  style="overflow:visible;"/>
		</clipPath>
		<g style="clip-path:url(#SVGID_10_);">
			<defs>
				<rect id="SVGID_163_" x="-153.32" y="-36.43" width="774.36" height="510.33"/>
			</defs>
			<clipPath id="SVGID_12_">
				<use xlink:href="#SVGID_163_"  style="overflow:visible;"/>
			</clipPath>
		</g>
	</g>
</g>
</svg>
