<?xml version="1.0" encoding="utf-8"?>
<!-- Generator: Adobe Illustrator 23.0.1, SVG Export Plug-In . SVG Version: 6.00 Build 0)  -->
<svg version="1.1" id="Capa_1" xmlns="http://www.w3.org/2000/svg" xmlns:xlink="http://www.w3.org/1999/xlink" x="0px" y="0px"
	 viewBox="0 0 254 200" style="enable-background:new 0 0 254 200;" xml:space="preserve">
<style type="text/css">
	.st0{fill-rule:evenodd;clip-rule:evenodd;fill:#685BC7;}
	.st1{clip-path:url(#SVGID_2_);}
	.st2{clip-path:url(#SVGID_4_);}
	.st3{clip-path:url(#SVGID_6_);fill:#A7A4E0;}
	.st4{clip-path:url(#SVGID_8_);}
	.st5{clip-path:url(#SVGID_10_);enable-background:new    ;}
	.st6{clip-path:url(#SVGID_12_);}
	.st7{clip-path:url(#SVGID_14_);}
	.st8{clip-path:url(#SVGID_16_);fill:#FFFFFF;}
	.st9{clip-path:url(#SVGID_18_);}
	.st10{clip-path:url(#SVGID_20_);fill:#CDEBF1;}
	.st11{clip-path:url(#SVGID_22_);}
	.st12{clip-path:url(#SVGID_24_);fill:#D0D2D3;}
	.st13{clip-path:url(#SVGID_26_);}
	.st14{clip-path:url(#SVGID_28_);fill:#3A3A2B;}
	.st15{clip-path:url(#SVGID_30_);}
	.st16{clip-path:url(#SVGID_32_);fill:#D0D2D3;}
	.st17{clip-path:url(#SVGID_34_);}
	.st18{clip-path:url(#SVGID_36_);fill:#D0D2D3;}
	.st19{clip-path:url(#SVGID_38_);}
	.st20{clip-path:url(#SVGID_40_);fill:#D0D2D3;}
	.st21{clip-path:url(#SVGID_42_);}
	.st22{clip-path:url(#SVGID_44_);fill:#D0D2D3;}
	.st23{clip-path:url(#SVGID_46_);}
	.st24{clip-path:url(#SVGID_48_);fill:#D0D2D3;}
	.st25{clip-path:url(#SVGID_50_);}
	.st26{clip-path:url(#SVGID_52_);fill:#D0D2D3;}
	.st27{clip-path:url(#SVGID_54_);}
	.st28{clip-path:url(#SVGID_56_);fill:#FFFFFF;}
	.st29{clip-path:url(#SVGID_58_);}
	.st30{clip-path:url(#SVGID_60_);fill:#9BE3BF;}
	.st31{clip-path:url(#SVGID_62_);}
	.st32{clip-path:url(#SVGID_64_);fill:#685BC7;}
	.st33{clip-path:url(#SVGID_66_);}
	.st34{clip-path:url(#SVGID_68_);fill:#9BE3BF;}
	.st35{clip-path:url(#SVGID_70_);}
	.st36{clip-path:url(#SVGID_72_);fill:#685BC7;}
	.st37{clip-path:url(#SVGID_74_);}
	.st38{clip-path:url(#SVGID_76_);fill:#9BE3BF;}
	.st39{clip-path:url(#SVGID_78_);}
	.st40{clip-path:url(#SVGID_80_);fill:#9BE3BF;}
	.st41{clip-path:url(#SVGID_82_);}
	.st42{clip-path:url(#SVGID_84_);fill:#9BE3BF;}
	.st43{clip-path:url(#SVGID_86_);}
	.st44{clip-path:url(#SVGID_88_);fill:#685BC7;}
	.st45{clip-path:url(#SVGID_90_);}
	.st46{clip-path:url(#SVGID_92_);fill:#685BC7;}
	.st47{clip-path:url(#SVGID_94_);}
	.st48{clip-path:url(#SVGID_96_);fill:#685BC7;}
	.st49{clip-path:url(#SVGID_98_);}
	.st50{clip-path:url(#SVGID_100_);fill:#685BC7;}
	.st51{clip-path:url(#SVGID_102_);}
	.st52{clip-path:url(#SVGID_104_);fill:#685BC7;}
	.st53{clip-path:url(#SVGID_106_);}
	.st54{clip-path:url(#SVGID_108_);fill:#39207C;}
	.st55{clip-path:url(#SVGID_110_);}
	.st56{clip-path:url(#SVGID_112_);fill:#514AA5;}
	.st57{clip-path:url(#SVGID_114_);}
	.st58{clip-path:url(#SVGID_116_);fill:#9BE3BF;}
	.st59{clip-path:url(#SVGID_118_);}
	.st60{clip-path:url(#SVGID_120_);fill:#6FC190;}
	.st61{clip-path:url(#SVGID_122_);}
	.st62{clip-path:url(#SVGID_124_);fill:#685BC7;}
	.st63{clip-path:url(#SVGID_126_);}
	.st64{clip-path:url(#SVGID_128_);fill:#39207C;}
	.st65{clip-path:url(#SVGID_130_);}
	.st66{clip-path:url(#SVGID_132_);fill:#9BE3BF;}
	.st67{clip-path:url(#SVGID_134_);}
	.st68{clip-path:url(#SVGID_136_);fill:#6FC190;}
	.st69{clip-path:url(#SVGID_138_);}
	.st70{fill:#A7A4E0;}
	.st71{fill:#F42534;}
	.st72{fill:#39207C;}
	.st73{opacity:0.5;}
	.st74{clip-path:url(#SVGID_140_);}
	.st75{opacity:0.44;fill:#E6E7E8;}
	.st76{fill:#9BE3BF;}
	.st77{fill:#6FC190;}
	.st78{fill:#E6E7E8;}
	.st79{fill:#685BC7;}
	.st80{fill:#CE3232;}
	.st81{fill:#7A7ACC;}
	.st82{fill:#201E68;}
	.st83{fill:#D1D4FC;}
	.st84{clip-path:url(#SVGID_142_);}
	.st85{fill:#A59DE3;}
	.st86{fill:#FFFFFF;}
	.st87{fill:#D8D4DF;}
	.st88{fill:#514A95;}
	.st89{fill:#7327BC;}
	.st90{fill:#442D68;}
	.st91{fill:#8BD3AF;}
	.st92{fill:#7F7FC6;}
	.st93{fill:#2E1B54;}
	.st94{fill:#279F5E;}
	.st95{clip-path:url(#SVGID_144_);}
	.st96{fill:#514AA5;}
	.st97{opacity:0.3;fill:#856AEA;}
	.st98{fill:#F1C40F;}
	.st99{fill:#26D07C;}
	.st100{opacity:0.83;}
	.st101{opacity:0.68;fill:#39207C;}
	.st102{opacity:0.3;fill:#39207C;}
	.st103{opacity:0.7;fill:#9E88ED;}
	.st104{clip-path:url(#SVGID_146_);}
	.st105{opacity:0.2;fill:#764582;}
	.st106{fill:#918ECA;}
	.st107{fill:#514A8F;}
	.st108{fill:none;stroke:#FFFFFF;stroke-width:0.9734;stroke-miterlimit:10;}
	.st109{fill:#9D68AA;}
	.st110{fill:#7F7FC0;}
	.st111{fill-rule:evenodd;clip-rule:evenodd;fill:#7F7FC0;}
	.st112{fill-rule:evenodd;clip-rule:evenodd;fill:#918ECA;}
	.st113{fill-rule:evenodd;clip-rule:evenodd;fill:#BBBED5;}
	.st114{fill-rule:evenodd;clip-rule:evenodd;fill:#27995E;}
	.st115{fill-rule:evenodd;clip-rule:evenodd;fill:#6FAB80;}
	.st116{fill-rule:evenodd;clip-rule:evenodd;fill:#85CDA9;}
	.st117{fill-rule:evenodd;clip-rule:evenodd;fill:#808080;}
	.st118{fill-rule:evenodd;clip-rule:evenodd;fill:#BABCBD;}
	.st119{fill-rule:evenodd;clip-rule:evenodd;fill:#E1E1E1;}
	.st120{fill-rule:evenodd;clip-rule:evenodd;fill:#39207C;}
	.st121{fill-rule:evenodd;clip-rule:evenodd;fill:#9895A4;}
	.st122{fill-rule:evenodd;clip-rule:evenodd;fill:#FFFFFF;}
	.st123{fill-rule:evenodd;clip-rule:evenodd;fill:#685BB1;}
	.st124{clip-path:url(#SVGID_148_);enable-background:new    ;}
	.st125{clip-path:url(#SVGID_150_);}
	.st126{clip-path:url(#SVGID_152_);}
	.st127{clip-path:url(#SVGID_154_);fill:#A7A4E0;}
	.st128{clip-path:url(#SVGID_156_);}
	.st129{clip-path:url(#SVGID_158_);fill:#FFFFFF;}
	.st130{fill:url(#SVGID_159_);}
	.st131{fill:#9794D0;}
	.st132{fill:none;stroke:#A59DE3;stroke-width:5;stroke-miterlimit:10;}
	.st133{fill:url(#SVGID_160_);}
	.st134{clip-path:url(#SVGID_162_);}
	.st135{clip-path:url(#SVGID_164_);fill:#F7F7F7;}
	.st136{fill:#7F7FD6;}
	.st137{fill:#D0D2D3;}
	.st138{fill:#EEEEEE;}
	.st139{fill:#A6A8AB;}
	.st140{fill:#016867;}
	.st141{fill:#FEFDFD;}
	.st142{clip-path:url(#SVGID_166_);}
	.st143{opacity:0.46;}
	.st144{clip-path:url(#SVGID_168_);}
	.st145{fill:#575756;}
	.st146{fill:none;stroke:#39207C;stroke-miterlimit:10;}
	.st147{clip-path:url(#SVGID_170_);}
	.st148{clip-path:url(#SVGID_172_);}
	.st149{clip-path:url(#SVGID_174_);}
	.st150{fill:#F1F1F2;}
	.st151{fill:#F05A28;}
	.st152{clip-path:url(#SVGID_176_);}
	.st153{clip-path:url(#SVGID_178_);fill:#7F7FD6;}
</style>
<g>
	<g>
		<g>
			<defs>
				<path id="SVGID_155_" d="M-687.44,322.54c-0.63-0.01-1.25-0.27-1.69-0.72l-7.32-7.59c-0.91-0.94-0.88-2.45,0.06-3.36
					c0.44-0.43,1.03-0.67,1.65-0.67c0.65,0,1.26,0.26,1.71,0.73l5.65,5.85l12.81-12.81c0.45-0.45,1.05-0.69,1.68-0.69
					c0.63,0,1.23,0.25,1.68,0.69c0.93,0.93,0.93,2.43,0,3.36l-14.52,14.52c-0.44,0.44-1.05,0.7-1.68,0.7"/>
			</defs>
			<clipPath id="SVGID_2_">
				<use xlink:href="#SVGID_155_"  style="overflow:visible;"/>
			</clipPath>
			<g class="st1">
				<defs>
					<rect id="SVGID_157_" x="-2221.16" y="68.57" width="2223.1" height="1621.01"/>
				</defs>
				<clipPath id="SVGID_4_">
					<use xlink:href="#SVGID_157_"  style="overflow:visible;"/>
				</clipPath>
			</g>
		</g>
	</g>
</g>
<g>
	<g>
		<defs>
			<path id="SVGID_161_" d="M-97.98,148.19c0,6.53-29.35,11.82-65.56,11.82c-36.21,0-65.56-5.29-65.56-11.82
				c0-6.53,29.35-11.82,65.56-11.82C-127.33,136.36-97.98,141.66-97.98,148.19"/>
		</defs>
		<clipPath id="SVGID_6_">
			<use xlink:href="#SVGID_161_"  style="overflow:visible;"/>
		</clipPath>
		<g style="clip-path:url(#SVGID_6_);">
			<defs>
				<rect id="SVGID_163_" x="-712.32" y="-30.43" width="774.36" height="510.33"/>
			</defs>
			<clipPath id="SVGID_8_">
				<use xlink:href="#SVGID_163_"  style="overflow:visible;"/>
			</clipPath>
		</g>
	</g>
</g>
<g>
	<circle class="st0" cx="127" cy="106.07" r="82"/>
	<g>
		<defs>
			<circle id="SVGID_167_" cx="127" cy="106.07" r="82"/>
		</defs>
		<clipPath id="SVGID_10_">
			<use xlink:href="#SVGID_167_"  style="overflow:visible;"/>
		</clipPath>
		<g style="clip-path:url(#SVGID_10_);">
			<path class="st72" d="M122.22,181.77H68.33c-4.24,0-7.69-3.44-7.69-7.68V68.72c0-4.25,3.44-7.69,7.69-7.69h53.89
				c4.25,0,7.68,3.44,7.68,7.69v105.37C129.91,178.33,126.47,181.77,122.22,181.77"/>
			<path class="st145" d="M95.28,169.82c2.05,0,3.71,1.67,3.71,3.71c0,2.05-1.67,3.71-3.71,3.71c-2.05,0-3.71-1.67-3.71-3.71
				C91.56,171.49,93.23,169.82,95.28,169.82 M95.28,168.6c-2.73,0-4.94,2.21-4.94,4.94c0,2.73,2.21,4.94,4.94,4.94
				c2.72,0,4.94-2.21,4.94-4.94C100.21,170.81,98,168.6,95.28,168.6L95.28,168.6z"/>
			<rect x="66.83" y="77.51" class="st131" width="56.9" height="87.78"/>
			<path class="st145" d="M101.46,68.33c0.68,0,1.22,0.55,1.22,1.22c0,0.68-0.55,1.22-1.22,1.22H89.1c-0.68,0-1.22-0.55-1.22-1.22
				c0-0.68,0.55-1.22,1.22-1.22H101.46z"/>
		</g>
		<g style="clip-path:url(#SVGID_10_);">
			<path class="st86" d="M169.1,104.5h-46.81c-7.18,0-13-5.82-13-13V62.22c0-7.18,5.82-13,13-13h46.81c7.18,0,13,5.82,13,13V91.5
				C182.1,98.68,176.28,104.5,169.1,104.5z"/>
			<polygon class="st86" points="109.29,84.82 100.42,111.26 132.91,104.5 			"/>
			<line class="st146" x1="118.5" y1="60.73" x2="173.78" y2="60.73"/>
			<line class="st146" x1="118.5" y1="65.92" x2="173.78" y2="65.92"/>
			<line class="st146" x1="118.5" y1="71.68" x2="173.78" y2="71.68"/>
			<line class="st146" x1="118.5" y1="77.43" x2="173.78" y2="77.43"/>
			<line class="st146" x1="118.5" y1="82.04" x2="173.78" y2="82.04"/>
			<line class="st146" x1="118.5" y1="87.8" x2="173.78" y2="87.8"/>
		</g>
	</g>
</g>
</svg>
