<?xml version="1.0" encoding="utf-8"?>
<!-- Generator: Adobe Illustrator 23.0.1, SVG Export Plug-In . SVG Version: 6.00 Build 0)  -->
<svg version="1.1" id="Capa_1" xmlns="http://www.w3.org/2000/svg" xmlns:xlink="http://www.w3.org/1999/xlink" x="0px" y="0px"
	 viewBox="0 0 254 200" style="enable-background:new 0 0 254 200;" xml:space="preserve">
<style type="text/css">
	.st0{fill-rule:evenodd;clip-rule:evenodd;fill:#685BC7;}
	.st1{clip-path:url(#SVGID_2_);}
	.st2{clip-path:url(#SVGID_4_);}
	.st3{clip-path:url(#SVGID_6_);fill:#A7A4E0;}
	.st4{clip-path:url(#SVGID_8_);}
	.st5{clip-path:url(#SVGID_10_);enable-background:new    ;}
	.st6{clip-path:url(#SVGID_12_);}
	.st7{clip-path:url(#SVGID_14_);}
	.st8{clip-path:url(#SVGID_16_);fill:#FFFFFF;}
	.st9{clip-path:url(#SVGID_18_);}
	.st10{clip-path:url(#SVGID_20_);fill:#CDEBF1;}
	.st11{clip-path:url(#SVGID_22_);}
	.st12{clip-path:url(#SVGID_24_);fill:#D0D2D3;}
	.st13{clip-path:url(#SVGID_26_);}
	.st14{clip-path:url(#SVGID_28_);fill:#3A3A2B;}
	.st15{clip-path:url(#SVGID_30_);}
	.st16{clip-path:url(#SVGID_32_);fill:#D0D2D3;}
	.st17{clip-path:url(#SVGID_34_);}
	.st18{clip-path:url(#SVGID_36_);fill:#D0D2D3;}
	.st19{clip-path:url(#SVGID_38_);}
	.st20{clip-path:url(#SVGID_40_);fill:#D0D2D3;}
	.st21{clip-path:url(#SVGID_42_);}
	.st22{clip-path:url(#SVGID_44_);fill:#D0D2D3;}
	.st23{clip-path:url(#SVGID_46_);}
	.st24{clip-path:url(#SVGID_48_);fill:#D0D2D3;}
	.st25{clip-path:url(#SVGID_50_);}
	.st26{clip-path:url(#SVGID_52_);fill:#D0D2D3;}
	.st27{clip-path:url(#SVGID_54_);}
	.st28{clip-path:url(#SVGID_56_);fill:#FFFFFF;}
	.st29{clip-path:url(#SVGID_58_);}
	.st30{clip-path:url(#SVGID_60_);fill:#9BE3BF;}
	.st31{clip-path:url(#SVGID_62_);}
	.st32{clip-path:url(#SVGID_64_);fill:#685BC7;}
	.st33{clip-path:url(#SVGID_66_);}
	.st34{clip-path:url(#SVGID_68_);fill:#9BE3BF;}
	.st35{clip-path:url(#SVGID_70_);}
	.st36{clip-path:url(#SVGID_72_);fill:#685BC7;}
	.st37{clip-path:url(#SVGID_74_);}
	.st38{clip-path:url(#SVGID_76_);fill:#9BE3BF;}
	.st39{clip-path:url(#SVGID_78_);}
	.st40{clip-path:url(#SVGID_80_);fill:#9BE3BF;}
	.st41{clip-path:url(#SVGID_82_);}
	.st42{clip-path:url(#SVGID_84_);fill:#9BE3BF;}
	.st43{clip-path:url(#SVGID_86_);}
	.st44{clip-path:url(#SVGID_88_);fill:#685BC7;}
	.st45{clip-path:url(#SVGID_90_);}
	.st46{clip-path:url(#SVGID_92_);fill:#685BC7;}
	.st47{clip-path:url(#SVGID_94_);}
	.st48{clip-path:url(#SVGID_96_);fill:#685BC7;}
	.st49{clip-path:url(#SVGID_98_);}
	.st50{clip-path:url(#SVGID_100_);fill:#685BC7;}
	.st51{clip-path:url(#SVGID_102_);}
	.st52{clip-path:url(#SVGID_104_);fill:#685BC7;}
	.st53{clip-path:url(#SVGID_106_);}
	.st54{clip-path:url(#SVGID_108_);fill:#39207C;}
	.st55{clip-path:url(#SVGID_110_);}
	.st56{clip-path:url(#SVGID_112_);fill:#514AA5;}
	.st57{clip-path:url(#SVGID_114_);}
	.st58{clip-path:url(#SVGID_116_);fill:#9BE3BF;}
	.st59{clip-path:url(#SVGID_118_);}
	.st60{clip-path:url(#SVGID_120_);fill:#6FC190;}
	.st61{clip-path:url(#SVGID_122_);}
	.st62{clip-path:url(#SVGID_124_);fill:#685BC7;}
	.st63{clip-path:url(#SVGID_126_);}
	.st64{clip-path:url(#SVGID_128_);fill:#39207C;}
	.st65{clip-path:url(#SVGID_130_);}
	.st66{clip-path:url(#SVGID_132_);fill:#9BE3BF;}
	.st67{clip-path:url(#SVGID_134_);}
	.st68{clip-path:url(#SVGID_136_);fill:#6FC190;}
	.st69{clip-path:url(#SVGID_138_);}
	.st70{fill:#A7A4E0;}
	.st71{fill:#F42534;}
	.st72{fill:#39207C;}
	.st73{opacity:0.5;}
	.st74{clip-path:url(#SVGID_140_);}
	.st75{opacity:0.44;fill:#E6E7E8;}
	.st76{fill:#9BE3BF;}
	.st77{fill:#6FC190;}
	.st78{fill:#E6E7E8;}
	.st79{fill:#685BC7;}
	.st80{fill:#CE3232;}
	.st81{fill:#7A7ACC;}
	.st82{fill:#201E68;}
	.st83{fill:#D1D4FC;}
	.st84{clip-path:url(#SVGID_142_);}
	.st85{fill:#A59DE3;}
	.st86{fill:#FFFFFF;}
	.st87{fill:#D8D4DF;}
	.st88{fill:#514A95;}
	.st89{fill:#7327BC;}
	.st90{fill:#442D68;}
	.st91{fill:#8BD3AF;}
	.st92{fill:#7F7FC6;}
	.st93{fill:#2E1B54;}
	.st94{fill:#279F5E;}
	.st95{clip-path:url(#SVGID_144_);}
	.st96{fill:#514AA5;}
	.st97{opacity:0.3;fill:#856AEA;}
	.st98{fill:#F1C40F;}
	.st99{fill:#26D07C;}
	.st100{opacity:0.83;}
	.st101{opacity:0.68;fill:#39207C;}
	.st102{opacity:0.3;fill:#39207C;}
	.st103{opacity:0.7;fill:#9E88ED;}
	.st104{clip-path:url(#SVGID_146_);}
	.st105{opacity:0.2;fill:#764582;}
	.st106{fill:#918ECA;}
	.st107{fill:#514A8F;}
	.st108{fill:none;stroke:#FFFFFF;stroke-width:0.9734;stroke-miterlimit:10;}
	.st109{fill:#9D68AA;}
	.st110{fill:#7F7FC0;}
	.st111{fill-rule:evenodd;clip-rule:evenodd;fill:#7F7FC0;}
	.st112{fill-rule:evenodd;clip-rule:evenodd;fill:#918ECA;}
	.st113{fill-rule:evenodd;clip-rule:evenodd;fill:#BBBED5;}
	.st114{fill-rule:evenodd;clip-rule:evenodd;fill:#27995E;}
	.st115{fill-rule:evenodd;clip-rule:evenodd;fill:#6FAB80;}
	.st116{fill-rule:evenodd;clip-rule:evenodd;fill:#85CDA9;}
	.st117{fill-rule:evenodd;clip-rule:evenodd;fill:#808080;}
	.st118{fill-rule:evenodd;clip-rule:evenodd;fill:#BABCBD;}
	.st119{fill-rule:evenodd;clip-rule:evenodd;fill:#E1E1E1;}
	.st120{fill-rule:evenodd;clip-rule:evenodd;fill:#39207C;}
	.st121{fill-rule:evenodd;clip-rule:evenodd;fill:#9895A4;}
	.st122{fill-rule:evenodd;clip-rule:evenodd;fill:#FFFFFF;}
	.st123{fill-rule:evenodd;clip-rule:evenodd;fill:#685BB1;}
	.st124{clip-path:url(#SVGID_148_);enable-background:new    ;}
	.st125{clip-path:url(#SVGID_150_);}
	.st126{clip-path:url(#SVGID_152_);}
	.st127{clip-path:url(#SVGID_154_);fill:#A7A4E0;}
	.st128{clip-path:url(#SVGID_156_);}
	.st129{clip-path:url(#SVGID_158_);fill:#FFFFFF;}
	.st130{fill:url(#SVGID_159_);}
	.st131{fill:#9794D0;}
	.st132{fill:none;stroke:#A59DE3;stroke-width:5;stroke-miterlimit:10;}
	.st133{fill:url(#SVGID_160_);}
	.st134{clip-path:url(#SVGID_162_);}
	.st135{clip-path:url(#SVGID_164_);fill:#F7F7F7;}
	.st136{fill:#7F7FD6;}
	.st137{fill:#D0D2D3;}
	.st138{fill:#EEEEEE;}
	.st139{fill:#A6A8AB;}
	.st140{fill:#016867;}
	.st141{fill:#FEFDFD;}
	.st142{clip-path:url(#SVGID_166_);}
	.st143{opacity:0.46;}
	.st144{clip-path:url(#SVGID_168_);}
	.st145{fill:#575756;}
	.st146{fill:none;stroke:#39207C;stroke-miterlimit:10;}
	.st147{clip-path:url(#SVGID_170_);}
	.st148{clip-path:url(#SVGID_172_);}
	.st149{clip-path:url(#SVGID_174_);}
	.st150{fill:#F1F1F2;}
	.st151{fill:#F05A28;}
	.st152{clip-path:url(#SVGID_176_);}
	.st153{clip-path:url(#SVGID_178_);fill:#7F7FD6;}
</style>
<g>
	<g>
		<g>
			<defs>
				<path id="SVGID_155_" d="M-402.44,316.54c-0.63-0.01-1.25-0.27-1.69-0.72l-7.32-7.59c-0.91-0.94-0.88-2.45,0.06-3.36
					c0.44-0.43,1.03-0.67,1.65-0.67c0.65,0,1.26,0.26,1.71,0.73l5.65,5.85l12.81-12.81c0.45-0.45,1.05-0.69,1.68-0.69
					c0.63,0,1.23,0.25,1.68,0.69c0.93,0.93,0.93,2.43,0,3.36l-14.52,14.52c-0.44,0.44-1.05,0.7-1.68,0.7"/>
			</defs>
			<clipPath id="SVGID_2_">
				<use xlink:href="#SVGID_155_"  style="overflow:visible;"/>
			</clipPath>
			<g class="st1">
				<defs>
					<rect id="SVGID_157_" x="-1936.16" y="62.57" width="2223.1" height="1621.01"/>
				</defs>
				<clipPath id="SVGID_4_">
					<use xlink:href="#SVGID_157_"  style="overflow:visible;"/>
				</clipPath>
			</g>
		</g>
	</g>
</g>
<circle class="st0" cx="121.46" cy="99.46" r="82.46"/>
<g>
	<g>
		<defs>
			<path id="SVGID_161_" d="M187.02,142.19c0,6.53-29.35,11.82-65.56,11.82c-36.21,0-65.56-5.29-65.56-11.82
				c0-6.53,29.35-11.82,65.56-11.82C157.67,130.36,187.02,135.66,187.02,142.19"/>
		</defs>
		<clipPath id="SVGID_6_">
			<use xlink:href="#SVGID_161_"  style="overflow:visible;"/>
		</clipPath>
		<g style="clip-path:url(#SVGID_6_);">
			<defs>
				<rect id="SVGID_163_" x="-427.32" y="-36.43" width="774.36" height="510.33"/>
			</defs>
			<clipPath id="SVGID_8_">
				<use xlink:href="#SVGID_163_"  style="overflow:visible;"/>
			</clipPath>
			<rect x="53.21" y="127.67" style="clip-path:url(#SVGID_8_);fill:#F7F7F7;" width="136.5" height="29.02"/>
		</g>
	</g>
	<g>
		<path class="st136" d="M144.04,148.49c0,0,1.24-0.97-0.67-2.15c-1.92-1.18-7.77-3.25-8.14-3.37l-1.9,2.93l-1.52,2.66l1.84,0.85
			c0.39,0.13,4.75,1.6,5.14,1.7l3.47,1.23c0.3-0.04-0.59-0.59-0.23-0.68C144.71,150.99,144.04,148.49,144.04,148.49z"/>
		<path class="st137" d="M96.02,119.11c-0.03-1.41,0.12-2.82-0.08-4.23c0.16-0.43,0.09-0.88,0.09-1.31c0-5.94,0.04-11.89-0.03-17.83
			c-0.02-1.46,1.05-2.45,2.4-2.43c4.95,0.06,9.9,0.03,14.85,0.02c0.26,0,2.32-0.02,2.54-0.01c2.16,0.02,4.32,0.03,6.49,0.05
			c0,10.29,0,20.59,0,30.88c-0.91,0-1.81,0.01-2.72,0.01c-7.62,0-15.25,0.01-22.87,0.01c-0.15-0.63-0.73-1.07-0.69-1.81
			C96.06,121.35,96.02,120.23,96.02,119.11z"/>
		<path class="st76" d="M147.86,124.26c1.17-1.74,0.47-3.7,0.68-5.56c1.62-0.09,3.21,0,4.75,0.63c4.5,1.82,7.06,6.68,5.63,11.34
			c-0.93,3.05-2.97,5.03-5.92,6.16c-3.92,1.5-7.82,3.03-11.73,4.55c-0.66,0.22-2.33,0.9-2.54,0.97c-0.83,0.28-3.52,1.4-3.98,1.57
			c-2.14,0.97-11.93,4.54-13.16,5.16c-1.11,0.31-2.16,0.81-3.24,1.21c-0.24,0.09-0.49,0.16-0.74,0.25c0.02-0.21-0.04-0.4-0.15-0.57
			c-1.08-1.76-2.18-3.51-3.23-5.29c-0.77-1.31-1.67-2.53-2.31-3.91c-0.13-0.29-0.06-0.42,0.17-0.59c0.71-0.52,1.37-1.1,2.1-1.6
			c1.28-0.88,2.41-1.95,3.72-2.81c1.04-0.68,2.01-1.5,3.07-2.16c2.31-1.45,4.62-2.91,7.02-4.22c1.31-0.71,2.57-1.52,3.9-2.21
			c0.28-0.15,0.57-0.33,0.7-0.66c0.35-0.01,0.71-0.02,1.06-0.02c4.45,0,8.91,0,13.36,0c0.38,0,0.74,0,1.05-0.29
			C148.71,125.66,148.66,125.2,147.86,124.26z"/>
		<path class="st76" d="M107.57,145.48c-0.22-0.77-0.45-1.47-0.83-2.15c-0.27-0.48-0.33-0.88,0.17-1.25
			c0.33-0.25,0.33-0.54,0.06-0.84c-0.12-0.13-0.22-0.27-0.33-0.4c-0.21-1.21-0.83-1.54-1.87-0.99c-0.14,0.07-0.26,0.17-0.4,0.24
			c-0.89,0.46-1.72,1.04-2.71,1.3c-3.95-1.53-7.89-3.11-11.86-4.59c-4.66-1.75-7.2-6.65-5.81-11.35c1.45-4.88,6.67-7.76,11.58-6.4
			c0.15,0.04,0.3,0.06,0.45,0.08c0,1.12,0.04,2.23-0.02,3.35c-0.04,0.74,0.54,1.18,0.69,1.81c-0.39,0.42-0.87,0.8-0.59,1.48
			c0.3,0.73,0.9,0.77,1.59,0.77c7.93-0.01,15.86,0,23.79,0c0.31,0,0.62-0.02,0.93-0.04c0.31,0.01,0.61,0.03,0.92,0.03
			c3.1,0.01,6.2,0.01,9.3,0.02c-0.13,0.33-0.42,0.51-0.7,0.66c-1.33,0.68-2.59,1.5-3.9,2.21c-2.4,1.31-4.71,2.77-7.02,4.22
			c-1.06,0.66-2.02,1.48-3.07,2.16c-1.31,0.85-2.44,1.93-3.72,2.81c-0.72,0.5-1.39,1.08-2.1,1.6c-0.23,0.17-0.3,0.3-0.17,0.59
			c0.64,1.38,1.55,2.61,2.31,3.91c1.04,1.78,2.15,3.52,3.23,5.29c0.1,0.17,0.17,0.36,0.15,0.57c-0.12,0.31-0.3,0.55-0.6,0.73
			c-1.01,0.59-2.01,1.2-3.01,1.81c-0.82,0.5-1.08,0.43-1.58-0.41c-0.07-0.11-0.16-0.21-0.24-0.31"/>
		<path class="st70" d="M114.08,93.32c-0.26,0.02-0.56,0-0.83,0c-4.95,0-9.9,0.04-14.85-0.02c-1.35-0.02-2.42,0.97-2.4,2.43
			c0.06,5.94,0.03,11.89,0.03,17.83c0,0,0,0.01,0,0.01c0,0.64-0.64,1.09-1.23,0.85c-1.21-0.5-2.4-1.05-3.46-1.81
			c-1.51-1.09-2.04-2.71-1.74-4.56c0.21-1.25,0.55-2.48,0.67-3.75c0.01-0.05,3.52-13.32,3.56-13.46c0.81-2.72,1.41-4.99,2.1-7.72
			c0-0.02,0.01-0.03,0.01-0.05c0.76-4.13,3.5-8.85,7.67-9.24c0.57-0.05,1.14-0.09,1.7-0.17c0.57-0.08,1.07,0.38,1.02,0.95
			c-0.15,1.51-0.07,2.92,0.75,4.21c1.54,2.4,3.3,4.65,4.52,7.25c0.69,1.47,1.21,3,1.67,4.55C113.53,91.51,113.64,92.5,114.08,93.32z
			"/>
		<path class="st70" d="M148.59,114.97c-0.12-0.5-0.06-1.01-0.06-1.52c0-5.77,0-11.53,0-17.3c0-0.24,0-0.49-0.01-0.73
			c-0.04-1.3-0.84-2.09-2.14-2.09c-4.9,0-9.81,0-14.71,0c-0.39,0-0.91,0.01-1.18,0.01c0.11-0.78,0.31-1.62,0.5-2.39
			c0.79-3.16,2.15-6.05,3.95-8.74c0.71-1.06,1.54-2.04,2.21-3.13c1.06-1.72,0.22-3.61,0.1-5.66c0.82,0.19,1.65,0.32,2.49,0.36
			c4.15,0.17,7.95,4.83,8.87,9.33c0.7,3.46,1.22,5.24,2.29,9.09c0.84,3.64,2.93,10.57,3.79,15.06c0,0,0.1,0.42,0.21,0.94
			c0.02,0.13,0.04,0.34,0.04,0.56c-0.1,0.99-0.18,1.8-0.76,2.67c-0.54,0.82-1.26,1.41-2.13,1.83
			C150.88,113.82,149.78,114.5,148.59,114.97z"/>
		<path class="st76" d="M136.09,143.38c-0.24,0.71-3.34,5.46-4.28,7.15c-0.9,1.28-0.9,1.28-2.29,0.45
			c-0.65-0.42-2.29-1.08-2.42-1.11c-1.36-0.54-2.27-0.89-3.76-1.66c1.23-0.62,0.75-0.3,2.06-0.74c1.74-0.6,3.47-1.26,5.19-1.92
			c1.39-0.53,2.76-1.12,4.17-1.62C135.21,143.76,135.58,143.4,136.09,143.38z"/>
		<path class="st96" d="M106.62,140.83c-0.72-0.04-1.22,0.49-1.78,0.8c-1.19,0.65-2.46,1.07-3.69,1.61c-2.5,1.1-4.9,2.39-7.19,3.89
			c-2.23,1.47-4.36,3.05-6.22,4.96c-1.53,1.57-2.69,3.37-3.3,5.5c-0.73-0.5-0.93-0.95-0.75-1.8c0.3-1.45,1.12-2.64,2.08-3.72
			c3.81-4.27,8.38-7.47,13.7-9.61c0.75-0.3,1.53-0.58,2.18-1.09c0.99-0.26,1.82-0.83,2.71-1.3c0.14-0.07,0.26-0.17,0.4-0.24
			C105.8,139.29,106.42,139.62,106.62,140.83z"/>
		<path class="st96" d="M129.76,72.94c-0.57-0.29-3.36-0.53-3.42-0.56c-0.96-0.19-1.88-1.07-1.79-2.17c0.4,0.02,1.7-0.01,3.42,0.05
			c0,0,0.87,0.06,1.75,0.18c1.95,0.21,3.89,0.48,5.77,1.03c1.03,0.3,2.09,0.56,2.84,1.42c0.06,0.05,0.1,0.1,0.17,0.2
			c0.03,0.03,0.1,0.3,0.1,0.34c0.13,2.05-0.41,3.94-1.47,5.66c-0.67,1.08-1.5,2.07-2.21,3.13c-1.8,2.69-3.16,5.58-3.95,8.74
			c-0.19,0.77-0.4,1.6-0.5,2.39c-0.54-0.01-0.88,0.01-1.31-0.02c0.13-0.95,0.25-1.95,0.37-2.9c0.03-0.26,0.59-3.76,0.62-3.85
			c0.2-1.15,0.54-2.28,0.62-3.46c0.52-2.47,1.05-4.95,1.56-7.42c0.11-0.51,0.27-1.02,0.19-1.56
			C132.39,73.11,132.39,73.11,129.76,72.94"/>
		<path class="st96" d="M119.1,70.22c0.08,1.07-1.64,1.36-2.71,1.52c-0.21,0.03-0.45-0.04-0.62,0.14c-0.72,0.1-1.45,0.17-2.15,0.32
			c-1.23,0.27-2.02,1.4-1.78,2.62c0.54,2.77,1.14,5.53,1.72,8.29c0.21,1.13,0.42,2.26,0.64,3.39c0.22,1.32,0.43,2.64,0.65,3.96
			c0.09,0.92,0.21,1.95,0.3,2.87c-0.04,0-0.12,0-0.18,0c-0.45,0.01-0.69,0-0.88,0.01c-0.44-0.83-0.55-1.81-0.81-2.69
			c-0.46-1.55-0.98-3.08-1.67-4.55c-1.22-2.6-2.98-4.85-4.52-7.25c-1.04-1.63-1.57-3.45-1.28-5.43c0.08-0.64,0.57-0.91,1.06-1.16
			c1.53-0.79,3.21-1.09,4.88-1.39c0.93-0.17,2.64-0.33,2.99-0.39c0.3-0.03,0.81-0.12,1.69-0.18
			C116.83,70.25,117.75,70.15,119.1,70.22z"/>
		<path class="st139" d="M122.43,126.52c-0.31,0.01-0.65,0-0.95,0c-7.93,0-15.86-0.01-23.79,0c-0.68,0-1.29-0.04-1.59-0.77
			c-0.28-0.68,0.2-1.06,0.59-1.48c7.62,0,15.25-0.01,22.87-0.01c0.91,0,1.81,0,2.72-0.01c0,0,0,0,0,0
			C122.19,125,122.41,125.77,122.43,126.52z"/>
		<path class="st71" d="M115.1,93.22c-0.09-0.92-0.18-1.85-0.26-2.77c2.43,0.02,4.87,0.07,7.3-0.03c2.39,0.08,4.78,0.08,7.17,0
			c0.08,0,0.16,0,0.23,0c-0.13,0.95-0.25,1.95-0.37,2.9c-1.85,0-3.35,0.01-5.05,0.05c-0.59,0.01-1.25-0.02-1.84,0
			c-2.16-0.02-4.32-0.03-6.49-0.05c-0.22,0-0.47,0.02-0.68,0C115.11,93.32,115.1,93.22,115.1,93.22z"/>
		<path class="st139" d="M122.28,126.52c-0.02-0.74-0.09-1.51,0-2.26c8.53,0,17.06,0,25.59,0.01c0.8,0.94,0.85,1.4,0.23,1.96
			c-0.31,0.28-0.67,0.29-1.05,0.29c-4.45,0-8.91,0-13.36,0c-0.35,0-0.71,0.01-1.06,0.02c-3.1-0.01-5.84,0-8.94-0.01
			C123.38,126.51,122.58,126.53,122.28,126.52z"/>
		<path class="st140" d="M136.26,143.24c-0.06,0.04-0.12,0.09-0.18,0.13C136.14,143.33,136.2,143.28,136.26,143.24z"/>
		<path class="st138" d="M113.55,83.1c-0.58-2.76-1.18-5.52-1.72-8.29c-0.24-1.22,0.13-2.06,1.09-2.57
			c0.69-0.43,1.72-0.51,2.03-0.54c0.09,0.19,0.76,0.43,0.65,0.53c-1.58,1.29-1.69,3.23-0.36,4.78c1.31,1.52,2.91,2.61,4.85,3.01
			c3.06,0.64,5.87,0,8.21-2.18c0.56-0.52,0.93-1.15,1.45-1.78c0.43-0.53,1.16-1.85,0.28-2.77c-0.16-0.14-0.24-0.08-0.26-0.34
			c0.22,0.03,0.5-0.06,0.72-0.02c1.73,0.38,1.53,0.9,1.81,1.64c0.08,0.54,0.16,0.62,0.05,1.13c-0.51,2.48-1.04,4.95-1.56,7.42
			C125.04,83.11,119.29,83.1,113.55,83.1z"/>
		<path class="st71" d="M113.55,83.1c5.74,0.01,11.48,0.01,17.23,0.02c-0.07,1.18-0.42,2.3-0.62,3.46c-0.09-0.1-0.19-0.16-0.33-0.09
			c-2.52-0.05-5.04-0.07-7.56,0c-2.69-0.06-5.39-0.08-8.08,0.01C113.98,85.36,113.76,84.23,113.55,83.1z"/>
		<path class="st141" d="M122.27,86.48c2.52-0.07,7.67-0.02,7.9,0c0.05,0.19-0.63,3.82-0.63,3.94c-2.39,0.08-5.01,0.08-7.4,0
			C122.18,89.11,122.03,87.79,122.27,86.48z"/>
		<path class="st138" d="M122.27,86.48c-0.24,1.31-0.09,2.62-0.14,3.94c-2.43,0.1-4.87,0.05-7.3,0.03
			c-0.22-1.32-0.43-2.64-0.65-3.96C116.88,86.4,119.58,86.42,122.27,86.48z"/>
		<path class="st137" d="M122.2,124.25c0-10.29,0.03-20.59,0.03-30.88c0.59-0.02,1.24,0.02,1.84,0.01c1.7-0.04,3.17-0.05,5.1-0.05
			c0.93,0,2.21,0,2.61,0c4.9,0,9.7,0.01,14.6,0.01c1.3,0,2.13,0.81,2.15,2.15c0,0.24,0.01,0.49,0.01,0.73c0,5.77,0,11.53,0,17.3
			c0,0.51-0.06,1.02,0.06,1.52c-0.12,1.24-0.03,2.49-0.05,3.74c-0.2,1.85,0.49,3.82-0.68,5.56
			C139.34,124.31,130.72,124.25,122.2,124.25L122.2,124.25z"/>
		<path class="st72" d="M138.73,142.35c0.21-0.07,0.4-0.19,0.63-0.16c0.65,0.47,1.41,0.73,2.14,0.98c1.91,0.65,3.65,1.66,5.38,2.65
			c2.63,1.51,5.1,3.26,7.33,5.35c1.41,1.32,2.62,2.76,3.55,4.47c0.34,0.63,0.34,1.36,0.78,1.93c-0.45,0.63-1.09,0.85-1.83,0.9
			c-2.1,0.16-4-0.54-5.87-1.38c-0.93-0.42-1.81-0.91-2.68-1.44c-0.56-0.34-1.21-0.42-1.84-0.52c-1.27-0.2-2.55-0.28-3.83-0.18
			c-0.65,0.05-1.29-0.62-1.39-1.4c-0.13-1.01,0.37-1.74,1.08-2.37c0.35-0.31,0.74-0.55,1.15-0.77c0.64-0.34,0.69-0.67,0.17-1.18
			c-0.51-0.5-1.15-0.81-1.79-1.11c-2.15-1.03-4.41-1.8-6.6-2.75c0.11-0.78,0.75-1.29,0.99-2.01c0,0-0.01-0.01-0.01-0.01
			C136.14,143.33,137.9,142.63,138.73,142.35z"/>
		<path class="st96" d="M158.53,157.58c-0.44-0.57-0.44-1.31-0.78-1.93c-0.93-1.7-2.13-3.14-3.55-4.47
			c-2.23-2.09-4.7-3.84-7.33-5.35c-1.73-0.99-3.46-2-5.38-2.65c-0.73-0.25-1.62-0.55-2.27-1.02c0.79-0.3,1.37-0.56,2.03-0.77
			c0.62,0.51,1.38,0.76,2.11,1.05c5.04,2,9.39,5.02,13.13,8.92c1.15,1.2,2.14,2.52,2.66,4.14
			C159.44,156.34,159.32,157.06,158.53,157.58z"/>
		<path class="st136" d="M98.87,150.62c0,0-1.24-0.97,0.67-2.15c1.92-1.18,7.77-3.25,8.14-3.37l1.9,2.93l1.52,2.66l-1.84,0.85
			c-0.39,0.13-4.75,1.6-5.14,1.7l-3.47,1.23c-0.3-0.04,0.59-0.59,0.23-0.68C98.19,153.12,98.87,150.62,98.87,150.62z"/>
		<path class="st72" d="M106.62,140.83c0.11,0.14,1.1,1.23,1.22,1.35c0.27,0.3,0.92,1.59,0.58,1.84c-0.5,0.37-0.63,0.7-0.47,1.23
			c0.16,0.52,0.24,0.68,0.47,1.01c-2.22,0.93-5.08,0.86-7.25,1.89c-0.58,0.27-1.15,0.57-1.64,0.99c-0.67,0.58-0.64,0.91,0.14,1.33
			c0.77,0.42,1.45,0.93,1.88,1.71c0.35,0.64,0.42,1.3,0.07,1.96c-0.3,0.56-0.68,0.89-1.42,0.82c-1.52-0.15-3.04,0.04-4.54,0.36
			c-0.82,0.17-1.47,0.7-2.19,1.08c-1.46,0.8-2.98,1.43-4.59,1.85c-0.93,0.24-1.88,0.3-2.83,0.21c-0.65-0.06-1.26-0.24-1.62-0.87
			c0.61-2.13,1.77-3.93,3.3-5.5c1.87-1.91,3.99-3.49,6.22-4.96c2.29-1.5,4.69-2.79,7.19-3.89c1.23-0.54,2.5-0.96,3.69-1.61
			C105.41,141.32,105.9,140.8,106.62,140.83z"/>
		<g>
			<path class="st76" d="M130.92,48.64c-0.77-0.02-0.89,1.72-0.53,3.33c0.36,1.61,0.86,2.22,0.86,3.7c0,1.48,0.39,1.25,0.92,1.43
				c0.53,0.18,0.95-0.49,1.01-1.07c0.07-0.62-0.16-3.34-0.47-4.32S132.53,48.69,130.92,48.64z"/>
			<g>
				<path class="st70" d="M119.96,44.64c-1.91,0.46-6.69,2.99-7.36,5.7c-0.26,1.03-0.04,3.05,0.43,5.3c0.17,0.81-0.65,1.77-0.43,2.6
					c0.14,0.53,0.4,1.77,0.83,2.1c0.35,0.28,0.83,0.51,1.1,0.84c0.09,0.11,0.13,0.31,0.17,0.42c0.59,1.73,1.04,2.7,1.59,3.5
					c0.74,1.08,1.97,2.9,2.65,2.96c0.63,0.05,7.01,2.49,9.25-0.28c2.24-2.77,5.42-6.98,4.11-13.24c-1.31-6.26-1.87-5.89-3.55-7.67
					C127.07,45.11,122.67,43.98,119.96,44.64z"/>
				<path class="st70" d="M129.7,72.96c-1.65-0.15-4.08-0.19-4.57-2.07c-0.26-1-0.13-1.97-0.88-2.46c-0.43-0.28-1.46-0.36-2.13-0.5
					c-0.93-0.19-2.14-0.56-2.58-0.56s-0.45,0.4-0.53,0.97c-0.23,1.68-0.37,3.16-3.68,3.33c-4.59,0.24-0.36,6.05,0.63,6.68
					c1.82,1.17,4.69,2.42,8.12,1.72c2.4-0.48,5.93-2.96,6.3-5.08S129.7,72.96,129.7,72.96z"/>
				<path class="st136" d="M115.23,77c1.52,0.95,2.35,1.2,5.58,1.62c2.11,0.27,4.48-0.94,5.21-1.5c0.19-0.14,1.05-0.94,1.08-1.31
					c0.01-0.1,0.27-1.13-0.89-1.4c-0.79-0.18-4.25-0.89-4.56-1.85c-0.3-0.96,0.22-3.22,0.25-3.76c0.09-1.45,1.15-1.58,2.05-2.07
					c0.81-0.44,0.93-1.23,1.17-1.98c0.2-0.61,0.2-1.16,0.29-1.68c0.13-0.72,0.29-1.84,0.37-2.27c0.3-1.64,0.12-1.92-0.05-2.73
					c-0.19-0.93-2.18-1.21-2.72-1.99c-0.19-0.28-0.69-1.39-0.65-2.57c0.07-1.87-0.22-4.03-0.22-4.03l8.84,0.16
					c0,0,1.23,3.42,1.61,6.94c0.2,1.86,0,1.88,0,1.88c-0.07,1.26-0.28,2.1-0.55,2.79c-0.56,1.45-1.1,2.85-1.89,3.88
					c-1.24,1.86-2.22,3.15-2.91,3.43c-0.69,0.37-1.55,0.56-2.47,0.52c0.23,0.09,0.05,1.47,0.63,2.46c0.06,0.1,0.55,0.58,0.73,0.67
					c0.34,0.17,0.49,0.26,0.87,0.34c0.14,0.03,1.64,0.26,2.06,0.31c0.15,0.02,0.45,0.04,0.63,0.09c0,0,1.2-0.05,0.67,2.04
					c-0.55,2.18-3.76,4.36-5.8,4.95c-3.03,0.88-6.39-0.18-8.21-1.35c-0.34-0.22-0.86-0.48-2.14-2.53"/>
				<path class="st136" d="M116.92,49.66c-0.55,0.32-1.58,1.15-2.12,2.61c-0.37,1.02-0.77,1.86-0.73,3.45c0,0,0.07,1.71,0.17,2.36
					c0.01,0.04,0.28,1.52,0.28,1.52l0.1,0.21c0.05,0.02,0.2,0.69,0.23,0.69c0.19-0.04,0.65-0.27,0.72-0.87c0,0-0.47-1.31-0.43-2.49
					c0.03-1,0.29-2.09,0.37-2.43c0.24-1.1-0.23-2.64,0.52-3.84C116.24,50.51,117.04,49.59,116.92,49.66z"/>
			</g>
			<path class="st76" d="M114.24,58.08c0.01,0.04,0.28,1.52,0.28,1.52c-0.07,0.22-1.27,0.27-1.58-1.23c-0.42-2.04-1.07-0.9-1.7-2.86
				c-0.62-1.96-1.45-4.24-0.2-7.8c1.25-3.56,3.44-5.17,5.24-5.61c1.8-0.45,5.92-1.91,7.79-1.64c1.87,0.27,1.69,1.07,3.38,1.78
				c1.69,0.71,7.13,1.69,6.41,3.74c-0.71,2.05-1.96,4.99-6.95,4.19c-4.99-0.8-6.23-0.8-8.1-0.98c-1.87-0.18-3.47,1.63-4.01,3.09
				c-0.37,1.02-0.77,1.86-0.73,3.45C114.07,55.71,114.15,57.42,114.24,58.08z"/>
		</g>
		<path class="st77" d="M137.19,126.52l-31.71,0c0,0,11.08,8.73,13.21,9.06L137.19,126.52z"/>
	</g>
</g>
</svg>
