<?xml version="1.0" encoding="utf-8"?>
<!-- Generator: Adobe Illustrator 23.0.1, SVG Export Plug-In . SVG Version: 6.00 Build 0)  -->
<svg version="1.1" id="Capa_1" xmlns="http://www.w3.org/2000/svg" xmlns:xlink="http://www.w3.org/1999/xlink" x="0px" y="0px"
	 viewBox="0 0 254 200" style="enable-background:new 0 0 254 200;" xml:space="preserve">
<style type="text/css">
	.st0{fill-rule:evenodd;clip-rule:evenodd;fill:#685BC7;}
	.st1{clip-path:url(#SVGID_2_);}
	.st2{clip-path:url(#SVGID_4_);}
	.st3{clip-path:url(#SVGID_6_);fill:#A7A4E0;}
	.st4{clip-path:url(#SVGID_8_);}
	.st5{clip-path:url(#SVGID_10_);enable-background:new    ;}
	.st6{clip-path:url(#SVGID_12_);}
	.st7{clip-path:url(#SVGID_14_);}
	.st8{clip-path:url(#SVGID_16_);fill:#FFFFFF;}
	.st9{clip-path:url(#SVGID_18_);}
	.st10{clip-path:url(#SVGID_20_);fill:#CDEBF1;}
	.st11{clip-path:url(#SVGID_22_);}
	.st12{clip-path:url(#SVGID_24_);fill:#D0D2D3;}
	.st13{clip-path:url(#SVGID_26_);}
	.st14{clip-path:url(#SVGID_28_);fill:#3A3A2B;}
	.st15{clip-path:url(#SVGID_30_);}
	.st16{clip-path:url(#SVGID_32_);fill:#D0D2D3;}
	.st17{clip-path:url(#SVGID_34_);}
	.st18{clip-path:url(#SVGID_36_);fill:#D0D2D3;}
	.st19{clip-path:url(#SVGID_38_);}
	.st20{clip-path:url(#SVGID_40_);fill:#D0D2D3;}
	.st21{clip-path:url(#SVGID_42_);}
	.st22{clip-path:url(#SVGID_44_);fill:#D0D2D3;}
	.st23{clip-path:url(#SVGID_46_);}
	.st24{clip-path:url(#SVGID_48_);fill:#D0D2D3;}
	.st25{clip-path:url(#SVGID_50_);}
	.st26{clip-path:url(#SVGID_52_);fill:#D0D2D3;}
	.st27{clip-path:url(#SVGID_54_);}
	.st28{clip-path:url(#SVGID_56_);fill:#FFFFFF;}
	.st29{clip-path:url(#SVGID_58_);}
	.st30{clip-path:url(#SVGID_60_);fill:#9BE3BF;}
	.st31{clip-path:url(#SVGID_62_);}
	.st32{clip-path:url(#SVGID_64_);fill:#685BC7;}
	.st33{clip-path:url(#SVGID_66_);}
	.st34{clip-path:url(#SVGID_68_);fill:#9BE3BF;}
	.st35{clip-path:url(#SVGID_70_);}
	.st36{clip-path:url(#SVGID_72_);fill:#685BC7;}
	.st37{clip-path:url(#SVGID_74_);}
	.st38{clip-path:url(#SVGID_76_);fill:#9BE3BF;}
	.st39{clip-path:url(#SVGID_78_);}
	.st40{clip-path:url(#SVGID_80_);fill:#9BE3BF;}
	.st41{clip-path:url(#SVGID_82_);}
	.st42{clip-path:url(#SVGID_84_);fill:#9BE3BF;}
	.st43{clip-path:url(#SVGID_86_);}
	.st44{clip-path:url(#SVGID_88_);fill:#685BC7;}
	.st45{clip-path:url(#SVGID_90_);}
	.st46{clip-path:url(#SVGID_92_);fill:#685BC7;}
	.st47{clip-path:url(#SVGID_94_);}
	.st48{clip-path:url(#SVGID_96_);fill:#685BC7;}
	.st49{clip-path:url(#SVGID_98_);}
	.st50{clip-path:url(#SVGID_100_);fill:#685BC7;}
	.st51{clip-path:url(#SVGID_102_);}
	.st52{clip-path:url(#SVGID_104_);fill:#685BC7;}
	.st53{clip-path:url(#SVGID_106_);}
	.st54{clip-path:url(#SVGID_108_);fill:#39207C;}
	.st55{clip-path:url(#SVGID_110_);}
	.st56{clip-path:url(#SVGID_112_);fill:#514AA5;}
	.st57{clip-path:url(#SVGID_114_);}
	.st58{clip-path:url(#SVGID_116_);fill:#9BE3BF;}
	.st59{clip-path:url(#SVGID_118_);}
	.st60{clip-path:url(#SVGID_120_);fill:#6FC190;}
	.st61{clip-path:url(#SVGID_122_);}
	.st62{clip-path:url(#SVGID_124_);fill:#685BC7;}
	.st63{clip-path:url(#SVGID_126_);}
	.st64{clip-path:url(#SVGID_128_);fill:#39207C;}
	.st65{clip-path:url(#SVGID_130_);}
	.st66{clip-path:url(#SVGID_132_);fill:#9BE3BF;}
	.st67{clip-path:url(#SVGID_134_);}
	.st68{clip-path:url(#SVGID_136_);fill:#6FC190;}
	.st69{clip-path:url(#SVGID_138_);}
	.st70{fill:#A7A4E0;}
	.st71{fill:#F42534;}
	.st72{fill:#39207C;}
	.st73{opacity:0.5;}
	.st74{clip-path:url(#SVGID_140_);}
	.st75{opacity:0.44;fill:#E6E7E8;}
	.st76{fill:#9BE3BF;}
	.st77{fill:#6FC190;}
	.st78{fill:#E6E7E8;}
	.st79{fill:#685BC7;}
	.st80{fill:#CE3232;}
	.st81{fill:#7A7ACC;}
	.st82{fill:#201E68;}
	.st83{fill:#D1D4FC;}
	.st84{clip-path:url(#SVGID_142_);}
	.st85{fill:#A59DE3;}
	.st86{fill:#FFFFFF;}
	.st87{fill:#D8D4DF;}
	.st88{fill:#514A95;}
	.st89{fill:#7327BC;}
	.st90{fill:#442D68;}
	.st91{fill:#8BD3AF;}
	.st92{fill:#7F7FC6;}
	.st93{fill:#2E1B54;}
	.st94{fill:#279F5E;}
	.st95{clip-path:url(#SVGID_144_);}
	.st96{fill:#514AA5;}
	.st97{opacity:0.3;fill:#856AEA;}
	.st98{fill:#F1C40F;}
	.st99{fill:#26D07C;}
	.st100{opacity:0.83;}
	.st101{opacity:0.68;fill:#39207C;}
	.st102{opacity:0.3;fill:#39207C;}
	.st103{opacity:0.7;fill:#9E88ED;}
	.st104{clip-path:url(#SVGID_146_);}
	.st105{opacity:0.2;fill:#764582;}
	.st106{fill:#918ECA;}
	.st107{fill:#514A8F;}
	.st108{fill:none;stroke:#FFFFFF;stroke-width:0.9734;stroke-miterlimit:10;}
	.st109{fill:#9D68AA;}
	.st110{fill:#7F7FC0;}
	.st111{fill-rule:evenodd;clip-rule:evenodd;fill:#7F7FC0;}
	.st112{fill-rule:evenodd;clip-rule:evenodd;fill:#918ECA;}
	.st113{fill-rule:evenodd;clip-rule:evenodd;fill:#BBBED5;}
	.st114{fill-rule:evenodd;clip-rule:evenodd;fill:#27995E;}
	.st115{fill-rule:evenodd;clip-rule:evenodd;fill:#6FAB80;}
	.st116{fill-rule:evenodd;clip-rule:evenodd;fill:#85CDA9;}
	.st117{fill-rule:evenodd;clip-rule:evenodd;fill:#808080;}
	.st118{fill-rule:evenodd;clip-rule:evenodd;fill:#BABCBD;}
	.st119{fill-rule:evenodd;clip-rule:evenodd;fill:#E1E1E1;}
	.st120{fill-rule:evenodd;clip-rule:evenodd;fill:#39207C;}
	.st121{fill-rule:evenodd;clip-rule:evenodd;fill:#9895A4;}
	.st122{fill-rule:evenodd;clip-rule:evenodd;fill:#FFFFFF;}
	.st123{fill-rule:evenodd;clip-rule:evenodd;fill:#685BB1;}
	.st124{clip-path:url(#SVGID_148_);enable-background:new    ;}
	.st125{clip-path:url(#SVGID_150_);}
	.st126{clip-path:url(#SVGID_152_);}
	.st127{clip-path:url(#SVGID_154_);fill:#A7A4E0;}
	.st128{clip-path:url(#SVGID_156_);}
	.st129{clip-path:url(#SVGID_158_);fill:#FFFFFF;}
	.st130{fill:url(#SVGID_159_);}
	.st131{fill:#9794D0;}
	.st132{fill:none;stroke:#A59DE3;stroke-width:5;stroke-miterlimit:10;}
	.st133{fill:url(#SVGID_160_);}
	.st134{clip-path:url(#SVGID_162_);}
	.st135{clip-path:url(#SVGID_164_);fill:#F7F7F7;}
	.st136{fill:#7F7FD6;}
	.st137{fill:#D0D2D3;}
	.st138{fill:#EEEEEE;}
	.st139{fill:#A6A8AB;}
	.st140{fill:#016867;}
	.st141{fill:#FEFDFD;}
	.st142{clip-path:url(#SVGID_166_);}
	.st143{opacity:0.46;}
	.st144{clip-path:url(#SVGID_168_);}
	.st145{fill:#575756;}
	.st146{fill:none;stroke:#39207C;stroke-miterlimit:10;}
	.st147{clip-path:url(#SVGID_170_);}
	.st148{clip-path:url(#SVGID_172_);}
	.st149{clip-path:url(#SVGID_174_);}
	.st150{fill:#F1F1F2;}
	.st151{fill:#F05A28;}
	.st152{clip-path:url(#SVGID_176_);}
	.st153{clip-path:url(#SVGID_178_);fill:#7F7FD6;}
</style>
<g>
	<circle class="st0" cx="127" cy="106" r="82"/>
	<g>
		<defs>
			<circle id="SVGID_171_" cx="127" cy="106" r="82"/>
		</defs>
		<clipPath id="SVGID_2_">
			<use xlink:href="#SVGID_171_"  style="overflow:visible;"/>
		</clipPath>
		<g class="st1">
			<path class="st96" d="M169.03,153.47l-97.74,30c-4.56,1.41-9.12-2.25-9.12-7.32L62.12,56.38c0-3.74,2.53-6.92,5.98-7.52
				l97.79-15.83c4.34-0.76,8.28,2.82,8.28,7.52v105.59"/>
			<path class="st72" d="M176.09,42.45v103.56c0,3.34-2.06,6.27-5.05,7.2l-95.92,30c-4.47,1.39-8.94-2.21-8.94-7.2V59.23
				c0-3.67,2.48-6.81,5.87-7.4l95.92-16.78C172.22,34.3,176.09,37.82,176.09,42.45z"/>
			<path class="st72" d="M176.09,42.2v0.25c0-4.62-3.87-8.14-8.12-7.4L72.04,51.83c-3.38,0.59-5.87,3.72-5.87,7.4v4.35"/>
			<ellipse class="st71" cx="168.39" cy="39.43" rx="1.13" ry="1.32"/>
			<ellipse class="st98" cx="164.38" cy="40.17" rx="1.13" ry="1.32"/>
			<ellipse class="st99" cx="160.47" cy="40.99" rx="1.13" ry="1.32"/>
			<g class="st143">
				<path class="st70" d="M145.1,161.32V48.35l30.99-6.03l-0.04,103.88c0.02,3.27-2.13,6.16-5.27,7.08L145.1,161.32z"/>
			</g>
			
				<ellipse transform="matrix(0.0855 -0.9963 0.9963 0.0855 71.7845 228.3078)" class="st101" cx="160.26" cy="75.05" rx="9.39" ry="7.44"/>
			<path class="st72" d="M151.27,58.98l19.47-4.51c0.43-0.1,0.69-0.53,0.59-0.95l-0.17-0.74c-0.1-0.43-0.53-0.69-0.95-0.59
				l-19.47,4.51c-0.43,0.1-0.69,0.53-0.59,0.95l0.17,0.74C150.42,58.81,150.84,59.08,151.27,58.98z"/>
			<path class="st72" d="M161.81,61.24l8.96-2.08c0.43-0.1,0.69-0.53,0.59-0.95l-0.17-0.74c-0.1-0.43-0.53-0.69-0.95-0.59
				l-8.96,2.08c-0.43,0.1-0.69,0.53-0.59,0.95l0.17,0.74C160.96,61.07,161.39,61.33,161.81,61.24z"/>
			<path class="st72" d="M114.39,90.7l19.47-4.51c0.43-0.1,0.69-0.53,0.59-0.95l-0.17-0.74c-0.1-0.43-0.53-0.69-0.95-0.59
				l-19.47,4.51c-0.43,0.1-0.69,0.53-0.59,0.95l0.17,0.74C113.54,90.53,113.96,90.8,114.39,90.7z"/>
			<path class="st72" d="M124.94,92.95l8.96-2.08c0.43-0.1,0.69-0.53,0.59-0.95l-0.17-0.74c-0.1-0.43-0.53-0.69-0.95-0.59
				l-8.96,2.08c-0.43,0.1-0.69,0.53-0.59,0.95l0.17,0.74C124.08,92.79,124.51,93.05,124.94,92.95z"/>
			<path class="st72" d="M81.63,98.94l19.38-4.87c0.43-0.11,0.68-0.54,0.58-0.96l-0.18-0.74c-0.11-0.43-0.54-0.68-0.96-0.58
				l-19.38,4.87c-0.43,0.11-0.68,0.54-0.58,0.96l0.18,0.74C80.77,98.79,81.2,99.04,81.63,98.94z"/>
			<path class="st72" d="M92.21,101l8.92-2.24c0.43-0.11,0.68-0.54,0.58-0.96l-0.18-0.74c-0.11-0.43-0.54-0.68-0.96-0.58l-8.92,2.24
				c-0.43,0.11-0.68,0.54-0.58,0.96l0.18,0.74C91.36,100.85,91.79,101.11,92.21,101z"/>
			<path class="st102" d="M154.41,130.38l13.09-3.91c0.93-0.28,1.57-1.18,1.57-2.21V89.61c0-1.5-1.32-2.6-2.67-2.23l-13.09,3.61
				c-0.95,0.26-1.61,1.18-1.61,2.23v34.95C151.7,129.69,153.05,130.79,154.41,130.38z"/>
			<path class="st86" d="M79.08,85.52l57.75-13.94c0.93-0.26,1.57-1.1,1.57-2.06v-7.31c0-1.4-1.32-2.42-2.67-2.07L77.98,72.31
				c-0.95,0.24-1.61,1.1-1.61,2.07v9.07C76.37,84.87,77.72,85.89,79.08,85.52z"/>
			<path class="st86" d="M79.08,108.33l57.75-13.94c0.93-0.26,1.57-1.1,1.57-2.06v-7.31c0-1.4-1.32-2.42-2.67-2.07L77.98,95.12
				c-0.95,0.24-1.61,1.1-1.61,2.07v9.07C76.37,107.68,77.72,108.71,79.08,108.33z"/>
			<path class="st86" d="M79.08,132.28l57.75-13.94c0.93-0.26,1.57-1.1,1.57-2.06v-7.31c0-1.4-1.32-2.42-2.67-2.07l-57.75,12.17
				c-0.95,0.24-1.61,1.1-1.61,2.07v9.07C76.37,131.63,77.72,132.66,79.08,132.28z"/>
			<path class="st86" d="M79.08,157.94l57.75-13.94c0.93-0.26,1.57-1.1,1.57-2.06v-7.31c0-1.4-1.32-2.42-2.67-2.07l-57.75,12.17
				c-0.95,0.24-1.61,1.1-1.61,2.07v9.07C76.37,157.3,77.72,158.32,79.08,157.94z"/>
		</g>
		<g class="st1">
			<path class="st85" d="M171.71,177.79c0.44-1.3,1.25-2.72,1.86-4.38h-15.51c-3.01,13.04-4.11,24.8-4.11,24.8l3.52,43.95l6.22,0.07
				c0.52-6.08,0.61-25.66,2.5-43.08C167.2,189.91,170.41,181.66,171.71,177.79z"/>
			<g>
				<path class="st85" d="M184.01,177.79c0.32-1.22,0.57-2.72,0.78-4.38h-15.51c0.21,13.04,2.02,24.8,2.02,24.8l14.12,44.08
					l6.1-0.26c0.53-4.25-4.87-27.03-7.3-44.55C182.96,188.39,183.32,180.46,184.01,177.79z"/>
			</g>
			<path class="st85" d="M184.47,134.66c-0.72-3.77-0.97-7.59,0.08-10.23c1.85-4.68,1.86-12.95,0.92-18.76
				c2.86,3.77,5.99,8.62,6.58,12.51C192.74,122.77,188.14,129.85,184.47,134.66z"/>
			<path class="st90" d="M188.35,188.56c-6.02,1.39-12.16,2.1-18.3,2.1c-5.33,0-10.65-0.53-15.89-1.58l-2.58-0.52
				c0,0,1.08-33.05,4.17-38.03c0,0,22.72,1.49,31.55-2.68c0.45,3.42,0.67,8.83-0.92,14.88
				C183.69,172.96,188.89,181.75,188.35,188.56z"/>
			<path class="st91" d="M164.23,98.83c0,0-4.44,5.88-6.05,9.19c-1.34,2.76-5.38,8.88,0.94,16.41c6.32,7.53-3.36,22.33-3.36,26.1
				c0,0,24.62,1.61,32.56-3.23c0,0-6.59-15.74-3.77-22.87c2.83-7.13,1.35-22.6-1.21-25.02C180.78,96.99,164.23,98.83,164.23,98.83z"
				/>
			<path class="st85" d="M158.9,81.07c0,0-4.71,13.06,5.39,13.05v4.75h8.98v-16.8c0,0-7.19-2.86-7.4-2.86
				C165.65,79.21,158.9,81.07,158.9,81.07z"/>
			<path class="st92" d="M164.38,98.64h1.66c-0.03-1.64,0.01-3.14,0.23-3.49c0.55-0.84,1.57-2.16,1.57-2.16
				c-0.66,0.33-3.46,0.82-3.46,0.82V98.64z"/>
			<path class="st93" d="M156.19,189.46c-1.07-8.87,2.34-27.44,4.93-40.05l-5.38,1.13c-3.09,4.98-4.17,38.03-4.17,38.03l2.58,0.52
				C154.84,189.22,155.51,189.34,156.19,189.46z"/>
			<path class="st94" d="M168.62,114.3c3.18-4.26,1.44-9.37,1.44-9.37l-11.58,2.51c-0.11,0.2-0.21,0.4-0.3,0.58
				c-1.34,2.76-5.38,8.88,0.94,16.41c6.32,7.53-3.36,22.33-3.36,26.1c0,0,2.03,0.13,5.1,0.21c1.43-7.01,2.67-12.45,2.9-13.86
				c0.67-4.1-0.11-9.57-2-12.98C159.88,120.49,165.44,118.56,168.62,114.3z"/>
			<path class="st85" d="M119.85,99.45l25.67,24.71c1.28,1.36,3.36,1.59,4.9,0.52c7.08-4.89,25.59-18.13,17.25-23
				c-5.08-2.97-21.59,12.95-21.59,12.95l-22.44-17.13c0,0-0.83-2.84-1.65-3.26c-0.82-0.42-8.29-0.94-7.73-0.34
				c0.56,0.61,4.46,1.54,4.46,1.54S118.21,98.88,119.85,99.45z"/>
			<path class="st92" d="M168.43,102.21c-0.22-0.18-0.47-0.36-0.75-0.52c-5.08-2.97-21.59,12.95-21.59,12.95l-22.44-17.13
				c0,0,21.06,19.1,22.65,19.1C147.74,116.62,160.43,102.72,168.43,102.21z"/>
			<path class="st90" d="M167.05,84.38c0,0,2-1.35,3.24,0.65c0.74,1.19-0.95,2.65-1.71,4.38c-0.76,1.73-0.92,4.2,2.43,5.33
				c3.35,1.13-5.19,8.73-1.44,14.71c4.36,6.95,12.19,7.1,16.24,0.99c4.05-6.11,0.44-9.98-1.62-13c-2.05-3.03-0.58-3.11-0.31-5.49
				c0.27-2.38-2.29-5.53-3.53-6.29c-1.24-0.76,1.13-8.36-3.41-10.9c-4.54-2.54-13.78-5.42-18.43,6.63
				C158.52,81.38,161.61,84.03,167.05,84.38z"/>
			<path class="st92" d="M187.52,242.22l-2.1,0.09l-14.12-44.08c0,0-0.45-2.96-0.94-7.56c1.4-0.01,2.81-0.05,4.21-0.13
				c0,2.93,0.14,7.05,0.9,10.81C176.57,206.85,185.42,235.44,187.52,242.22z"/>
			<path class="st92" d="M183.6,191.07c-3.79,1.19-10.49,1.38-12.97,1.41c-0.09-0.82-0.16-0.84-0.26-1.82
				c4.39-0.02,8.78-0.4,13.12-1.12C183.52,190.31,183.53,190.24,183.6,191.07z"/>
			<path class="st85" d="M157.13,191.14c0,0-1.53,3.75-1.39,7.64c0.11,3.28,2.8,33.83,3.64,43.41l-1.9-0.02l-3.52-43.94
				c0,0,0.33-3.57,1.14-8.96c4.18,0.79,8.41,1.24,12.64,1.36c-0.12,0.47-0.23,0.95-0.34,1.44
				C164.94,191.94,158.68,191.58,157.13,191.14z"/>
		</g>
	</g>
</g>
<g>
	<g>
		<defs>
			<path id="SVGID_175_" d="M831.82,389.46c0.99-0.27,1.77-0.42,3.76-1.43c1.29-0.65,2.2-1.48,2.2-1.48
				c0.4-0.42,1.46-1.16,1.28-1.09c-0.64,0.26-0.66,0.13-0.97-0.15c-0.06-0.06-0.82-1.76-1.18-2.29c-0.15-0.22-0.27-1.11-0.27-1.25
				c-0.01-0.7,0.11-2.09,0.21-2.23c0,0,0.41-0.4,1.04-0.84c0.78-0.55,2.22-1.99,3.65-4.49c0.92-1.39,0.94-1.95,1.42-3.89
				c0.16-0.62,0.51-3.39,0.27-5.5c0,0-0.31-1.99-0.93-4.32c-1.01-3.8-2.74-5.64-2.74-5.64h-10.86c0,0,0.98,3.76,1.05,6.16
				c0.05,1.52,0.78,2.9,1.06,3.25c0.76,0.96,3.34,1.13,3.67,2.31c0.29,1.03,0.55,1.38,0.3,3.51c-0.06,0.55-0.18,2.01-0.28,2.94
				c-0.07,0.68-0.03,1.39-0.22,2.19c-0.24,0.98-0.32,2.01-1.33,2.64c-1.12,0.71-2.46,1.66-2.45,3.53c0,0.69-0.26,5,0.71,6.24
				c0.79,1.02-7.05,0.75-7.17,0.77c0,0-0.48,0.65-0.35,0.68C825.74,389.66,828.82,390.27,831.82,389.46z"/>
		</defs>
		<clipPath id="SVGID_4_">
			<use xlink:href="#SVGID_175_"  style="overflow:visible;"/>
		</clipPath>
		<g class="st2">
			<defs>
				
					<rect id="SVGID_177_" x="19.95" y="211.48" transform="matrix(0.9977 -0.0679 0.0679 0.9977 -38.9692 42.1851)" width="1163.11" height="766.52"/>
			</defs>
			<clipPath id="SVGID_6_">
				<use xlink:href="#SVGID_177_"  style="overflow:visible;"/>
			</clipPath>
		</g>
	</g>
</g>
</svg>
