<?xml version="1.0" encoding="utf-8"?>
<!-- Generator: Adobe Illustrator 23.0.1, SVG Export Plug-In . SVG Version: 6.00 Build 0)  -->
<svg version="1.1" id="Capa_1" xmlns="http://www.w3.org/2000/svg" xmlns:xlink="http://www.w3.org/1999/xlink" x="0px" y="0px"
	 viewBox="0 0 254 200" style="enable-background:new 0 0 254 200;" xml:space="preserve">
<style type="text/css">
	.st0{fill-rule:evenodd;clip-rule:evenodd;fill:#685BC7;}
	.st1{clip-path:url(#SVGID_2_);}
	.st2{clip-path:url(#SVGID_4_);}
	.st3{clip-path:url(#SVGID_6_);fill:#A7A4E0;}
	.st4{clip-path:url(#SVGID_8_);}
	.st5{clip-path:url(#SVGID_10_);enable-background:new    ;}
	.st6{clip-path:url(#SVGID_12_);}
	.st7{clip-path:url(#SVGID_14_);}
	.st8{clip-path:url(#SVGID_16_);fill:#FFFFFF;}
	.st9{clip-path:url(#SVGID_18_);}
	.st10{clip-path:url(#SVGID_20_);fill:#CDEBF1;}
	.st11{clip-path:url(#SVGID_22_);}
	.st12{clip-path:url(#SVGID_24_);fill:#D0D2D3;}
	.st13{clip-path:url(#SVGID_26_);}
	.st14{clip-path:url(#SVGID_28_);fill:#3A3A2B;}
	.st15{clip-path:url(#SVGID_30_);}
	.st16{clip-path:url(#SVGID_32_);fill:#D0D2D3;}
	.st17{clip-path:url(#SVGID_34_);}
	.st18{clip-path:url(#SVGID_36_);fill:#D0D2D3;}
	.st19{clip-path:url(#SVGID_38_);}
	.st20{clip-path:url(#SVGID_40_);fill:#D0D2D3;}
	.st21{clip-path:url(#SVGID_42_);}
	.st22{clip-path:url(#SVGID_44_);fill:#D0D2D3;}
	.st23{clip-path:url(#SVGID_46_);}
	.st24{clip-path:url(#SVGID_48_);fill:#D0D2D3;}
	.st25{clip-path:url(#SVGID_50_);}
	.st26{clip-path:url(#SVGID_52_);fill:#D0D2D3;}
	.st27{clip-path:url(#SVGID_54_);}
	.st28{clip-path:url(#SVGID_56_);fill:#FFFFFF;}
	.st29{clip-path:url(#SVGID_58_);}
	.st30{clip-path:url(#SVGID_60_);fill:#9BE3BF;}
	.st31{clip-path:url(#SVGID_62_);}
	.st32{clip-path:url(#SVGID_64_);fill:#685BC7;}
	.st33{clip-path:url(#SVGID_66_);}
	.st34{clip-path:url(#SVGID_68_);fill:#9BE3BF;}
	.st35{clip-path:url(#SVGID_70_);}
	.st36{clip-path:url(#SVGID_72_);fill:#685BC7;}
	.st37{clip-path:url(#SVGID_74_);}
	.st38{clip-path:url(#SVGID_76_);fill:#9BE3BF;}
	.st39{clip-path:url(#SVGID_78_);}
	.st40{clip-path:url(#SVGID_80_);fill:#9BE3BF;}
	.st41{clip-path:url(#SVGID_82_);}
	.st42{clip-path:url(#SVGID_84_);fill:#9BE3BF;}
	.st43{clip-path:url(#SVGID_86_);}
	.st44{clip-path:url(#SVGID_88_);fill:#685BC7;}
	.st45{clip-path:url(#SVGID_90_);}
	.st46{clip-path:url(#SVGID_92_);fill:#685BC7;}
	.st47{clip-path:url(#SVGID_94_);}
	.st48{clip-path:url(#SVGID_96_);fill:#685BC7;}
	.st49{clip-path:url(#SVGID_98_);}
	.st50{clip-path:url(#SVGID_100_);fill:#685BC7;}
	.st51{clip-path:url(#SVGID_102_);}
	.st52{clip-path:url(#SVGID_104_);fill:#685BC7;}
	.st53{clip-path:url(#SVGID_106_);}
	.st54{clip-path:url(#SVGID_108_);fill:#39207C;}
	.st55{clip-path:url(#SVGID_110_);}
	.st56{clip-path:url(#SVGID_112_);fill:#514AA5;}
	.st57{clip-path:url(#SVGID_114_);}
	.st58{clip-path:url(#SVGID_116_);fill:#9BE3BF;}
	.st59{clip-path:url(#SVGID_118_);}
	.st60{clip-path:url(#SVGID_120_);fill:#6FC190;}
	.st61{clip-path:url(#SVGID_122_);}
	.st62{clip-path:url(#SVGID_124_);fill:#685BC7;}
	.st63{clip-path:url(#SVGID_126_);}
	.st64{clip-path:url(#SVGID_128_);fill:#39207C;}
	.st65{clip-path:url(#SVGID_130_);}
	.st66{clip-path:url(#SVGID_132_);fill:#9BE3BF;}
	.st67{clip-path:url(#SVGID_134_);}
	.st68{clip-path:url(#SVGID_136_);fill:#6FC190;}
	.st69{clip-path:url(#SVGID_138_);}
	.st70{fill:#A7A4E0;}
	.st71{fill:#F42534;}
	.st72{fill:#39207C;}
	.st73{opacity:0.5;}
	.st74{clip-path:url(#SVGID_140_);}
	.st75{opacity:0.44;fill:#E6E7E8;}
	.st76{fill:#9BE3BF;}
	.st77{fill:#6FC190;}
	.st78{fill:#E6E7E8;}
	.st79{fill:#685BC7;}
	.st80{fill:#CE3232;}
	.st81{fill:#7A7ACC;}
	.st82{fill:#201E68;}
	.st83{fill:#D1D4FC;}
	.st84{clip-path:url(#SVGID_142_);}
	.st85{fill:#A59DE3;}
	.st86{fill:#FFFFFF;}
	.st87{fill:#D8D4DF;}
	.st88{fill:#514A95;}
	.st89{fill:#7327BC;}
	.st90{fill:#442D68;}
	.st91{fill:#8BD3AF;}
	.st92{fill:#7F7FC6;}
	.st93{fill:#2E1B54;}
	.st94{fill:#279F5E;}
	.st95{clip-path:url(#SVGID_144_);}
	.st96{fill:#514AA5;}
	.st97{opacity:0.3;fill:#856AEA;}
	.st98{fill:#F1C40F;}
	.st99{fill:#26D07C;}
	.st100{opacity:0.83;}
	.st101{opacity:0.68;fill:#39207C;}
	.st102{opacity:0.3;fill:#39207C;}
	.st103{opacity:0.7;fill:#9E88ED;}
	.st104{clip-path:url(#SVGID_146_);}
	.st105{opacity:0.2;fill:#764582;}
	.st106{fill:#918ECA;}
	.st107{fill:#514A8F;}
	.st108{fill:none;stroke:#FFFFFF;stroke-width:0.9734;stroke-miterlimit:10;}
	.st109{fill:#9D68AA;}
	.st110{fill:#7F7FC0;}
	.st111{fill-rule:evenodd;clip-rule:evenodd;fill:#7F7FC0;}
	.st112{fill-rule:evenodd;clip-rule:evenodd;fill:#918ECA;}
	.st113{fill-rule:evenodd;clip-rule:evenodd;fill:#BBBED5;}
	.st114{fill-rule:evenodd;clip-rule:evenodd;fill:#27995E;}
	.st115{fill-rule:evenodd;clip-rule:evenodd;fill:#6FAB80;}
	.st116{fill-rule:evenodd;clip-rule:evenodd;fill:#85CDA9;}
	.st117{fill-rule:evenodd;clip-rule:evenodd;fill:#808080;}
	.st118{fill-rule:evenodd;clip-rule:evenodd;fill:#BABCBD;}
	.st119{fill-rule:evenodd;clip-rule:evenodd;fill:#E1E1E1;}
	.st120{fill-rule:evenodd;clip-rule:evenodd;fill:#39207C;}
	.st121{fill-rule:evenodd;clip-rule:evenodd;fill:#9895A4;}
	.st122{fill-rule:evenodd;clip-rule:evenodd;fill:#FFFFFF;}
	.st123{fill-rule:evenodd;clip-rule:evenodd;fill:#685BB1;}
	.st124{clip-path:url(#SVGID_148_);enable-background:new    ;}
	.st125{clip-path:url(#SVGID_150_);}
	.st126{clip-path:url(#SVGID_152_);}
	.st127{clip-path:url(#SVGID_154_);fill:#A7A4E0;}
	.st128{clip-path:url(#SVGID_156_);}
	.st129{clip-path:url(#SVGID_158_);fill:#FFFFFF;}
	.st130{fill:url(#SVGID_159_);}
	.st131{fill:#9794D0;}
	.st132{fill:none;stroke:#A59DE3;stroke-width:5;stroke-miterlimit:10;}
	.st133{fill:url(#SVGID_160_);}
	.st134{clip-path:url(#SVGID_162_);}
	.st135{clip-path:url(#SVGID_164_);fill:#F7F7F7;}
	.st136{fill:#7F7FD6;}
	.st137{fill:#D0D2D3;}
	.st138{fill:#EEEEEE;}
	.st139{fill:#A6A8AB;}
	.st140{fill:#016867;}
	.st141{fill:#FEFDFD;}
	.st142{clip-path:url(#SVGID_166_);}
	.st143{opacity:0.46;}
	.st144{clip-path:url(#SVGID_168_);}
	.st145{fill:#575756;}
	.st146{fill:none;stroke:#39207C;stroke-miterlimit:10;}
	.st147{clip-path:url(#SVGID_170_);}
	.st148{clip-path:url(#SVGID_172_);}
	.st149{clip-path:url(#SVGID_174_);}
	.st150{fill:#F1F1F2;}
	.st151{fill:#F05A28;}
	.st152{clip-path:url(#SVGID_176_);}
	.st153{clip-path:url(#SVGID_178_);fill:#7F7FD6;}
</style>
<g>
	<circle class="st0" cx="127" cy="100" r="84.04"/>
	<g>
		<defs>
			<circle id="SVGID_141_" cx="127" cy="100" r="84.04"/>
		</defs>
		<clipPath id="SVGID_2_">
			<use xlink:href="#SVGID_141_"  style="overflow:visible;"/>
		</clipPath>
		<g class="st1">
			<g>
				<path class="st72" d="M185.65,181.53L139.4,20.99c-2.15-7.46-9.94-13.5-17.39-13.5H45.13c-7.46,0-11.76,6.05-9.61,13.5
					l46.25,160.54c2.15,7.46,9.94,13.5,17.39,13.5h76.88C183.5,195.03,187.8,188.99,185.65,181.53z"/>
				<g>
					<g>
						<g>
							<g>
								<path class="st85" d="M128.47,7.49H51.59c-7.46,0-11.76,6.05-9.61,13.5l46.25,160.54c2.15,7.46,9.94,13.5,17.39,13.5h76.88
									c7.46,0,11.76-6.05,9.61-13.5L145.86,20.99C143.71,13.53,135.93,7.49,128.47,7.49z"/>
							</g>
						</g>
					</g>
					<path class="st86" d="M129.93,12.55h-11.28l-1.84,7.69c-0.69,2.88-3.15,4.67-6.41,4.67H79.7c-3.25,0-6.75-1.8-9.1-4.67
						l-6.27-7.69H53.05c-4.66,0-7.35,3.79-6.01,8.44l46.25,160.54c1.34,4.66,6.22,8.44,10.88,8.44h76.88c4.66,0,7.35-3.79,6.01-8.44
						L140.8,20.99C139.46,16.33,134.58,12.55,129.93,12.55z"/>
					<g>
						<path class="st87" d="M51.45,14.15h11.28l6.27,7.69c2.35,2.88,5.85,4.67,9.1,4.67h30.69c2.44,0,4.43-1.01,5.57-2.73
							c-1.08,0.73-2.44,1.13-3.97,1.13H79.7c-3.25,0-6.75-1.8-9.1-4.67l-6.27-7.69H53.05c-2.41,0-4.29,1.02-5.36,2.64
							C48.71,14.53,49.98,14.15,51.45,14.15z"/>
						<path class="st87" d="M187.06,181.53L140.8,20.99c-1.34-4.66-6.22-8.44-10.88-8.44h-11.28l-0.38,1.6h10.06
							c4.66,0,9.53,3.79,10.88,8.44l46.25,160.54c0.65,2.25,0.35,4.29-0.65,5.8C187,187.49,187.97,184.72,187.06,181.53z"/>
					</g>
					<path class="st85" d="M140.31,84.19H86.43c-3.27,0-6.68-2.65-7.62-5.92l-9.93-33.99c-0.84-2.92,1.35-5.83,4.39-5.83h56.21
						c2.03,0,3.82,1.35,4.39,3.3l10.65,36.52C145.46,81.54,143.57,84.19,140.31,84.19z"/>
					<g>
						<g>
							<path class="st88" d="M118.47,68.03H96.99c-1.3,0-2.67-1.06-3.04-2.36L90.7,54.56c-0.33-1.14,0.52-2.27,1.7-2.27l22.5-0.02
								c0.79,0,1.49,0.52,1.71,1.28l3.54,12.13C120.53,66.97,119.77,68.03,118.47,68.03z"/>
							<path class="st88" d="M118.03,50.75l-30.01,0.02c-1.01,0-2.07-0.82-2.36-1.83l-0.46-1.4c-0.26-0.9,0.42-1.81,1.36-1.81
								l30.73-0.02c0.63,0,1.19,0.42,1.36,1.02l0.69,2.18C119.63,49.93,119.04,50.75,118.03,50.75z"/>
						</g>
					</g>
					<path class="st85" d="M149.48,116.63H95.59c-3.27,0-6.68-2.65-7.62-5.92L85.2,100.7c-0.84-2.92,1.35-5.83,4.39-5.83h56.21
						c2.03,0,3.82,1.35,4.39,3.3l3.5,12.54C154.63,113.98,152.74,116.63,149.48,116.63z"/>
					<path class="st85" d="M116.96,148.64l-13.44,0.16c-3.27,0-6.68-2.65-7.62-5.92l-2.77-10.01c-0.84-2.92,1.35-5.83,4.39-5.83
						l15.77-0.16c2.03,0,3.82,1.35,4.39,3.3l3.5,12.54C122.11,145.99,120.22,148.64,116.96,148.64z"/>
					<path class="st85" d="M156.41,130.98l-32.78,0.12c-0.52,0-1.07-0.42-1.22-0.94l-0.44-1.6c-0.13-0.47,0.22-0.93,0.7-0.93
						l33.15-0.12c0.32,0,0.61,0.21,0.7,0.53l0.56,2C157.24,130.56,156.93,130.98,156.41,130.98z"/>
					<path class="st85" d="M158.69,138.18l-32.78,0.12c-0.52,0-1.07-0.42-1.22-0.94l-0.44-1.6c-0.13-0.47,0.22-0.93,0.7-0.93
						l33.15-0.12c0.32,0,0.61,0.22,0.7,0.53l0.56,2C159.52,137.76,159.22,138.18,158.69,138.18z"/>
					<path class="st85" d="M124.51,178.86l-13.44,0.16c-3.27,0-6.68-2.65-7.62-5.92l-2.77-10.01c-0.84-2.92,1.35-5.83,4.39-5.83
						l15.77-0.16c2.03,0,3.82,1.35,4.39,3.3l3.5,12.54C129.66,176.2,127.77,178.86,124.51,178.86z"/>
					<path class="st85" d="M165.26,161.75l-32.78,0.12c-0.52,0-1.07-0.42-1.22-0.94l-0.44-1.6c-0.13-0.47,0.22-0.93,0.7-0.93
						l33.15-0.12c0.32,0,0.61,0.21,0.7,0.53l0.56,2C166.09,161.32,165.78,161.75,165.26,161.75z"/>
					<path class="st85" d="M152.26,169.97l-18.14,0.1c-0.52,0-1.07-0.42-1.22-0.94l-0.44-1.6c-0.13-0.47,0.22-0.93,0.7-0.93
						l18.51-0.1c0.32,0,0.61,0.21,0.7,0.53l0.56,2C153.09,169.55,152.78,169.97,152.26,169.97z"/>
					<path class="st85" d="M145.45,146.17l-17.85,0.06c-0.52,0-1.07-0.42-1.22-0.94l-0.44-1.6c-0.13-0.47,0.22-0.93,0.7-0.93
						l18.23-0.06c0.32,0,0.61,0.21,0.7,0.53l0.56,2C146.27,145.74,145.97,146.17,145.45,146.17z"/>
				</g>
			</g>
			<path class="st88" d="M132.78,74.72l-42.51-0.07c-0.49,0-1.01-0.4-1.15-0.89l-0.23-0.68c-0.13-0.44,0.2-0.88,0.66-0.88
				l42.86,0.07c0.31,0,0.58,0.2,0.66,0.5l0.34,1.06C133.56,74.32,133.28,74.72,132.78,74.72z"/>
			<path class="st85" d="M179.09,157.83c0.51-1.51,1.45-3.17,2.17-5.09h-18.04c-3.5,15.16-4.78,28.85-4.78,28.85l4.1,51.11
				l7.23,0.08c0.61-7.07,0.71-29.84,2.91-50.1C173.84,171.92,177.58,162.33,179.09,157.83z"/>
			<g>
				<path class="st85" d="M193.4,157.83c0.37-1.42,0.67-3.17,0.91-5.09h-18.04c0.24,15.16,2.35,28.85,2.35,28.85l16.42,51.27
					l7.09-0.3c0.62-4.94-5.67-31.43-8.48-51.82C192.18,170.15,192.59,160.94,193.4,157.83z"/>
			</g>
			<path class="st85" d="M193.92,107.67c-0.84-4.38-1.13-8.83,0.09-11.89c2.16-5.44,2.16-15.06,1.07-21.82
				c3.33,4.38,6.96,10.02,7.66,14.55C203.54,93.84,198.2,102.07,193.92,107.67z"/>
			<path class="st90" d="M198.44,170.36c-7,1.62-14.14,2.44-21.28,2.44c-6.2,0-12.38-0.61-18.48-1.83l-3-0.61
				c0,0,1.26-38.44,4.85-44.22c0,0,26.43,1.73,36.69-3.12c0.52,3.97,0.78,10.27-1.07,17.3
				C193.02,152.21,199.07,162.43,198.44,170.36z"/>
			<path class="st91" d="M170.38,65.99c0,0-5.16,6.83-7.04,10.69c-1.56,3.21-6.26,10.33,1.1,19.09c7.35,8.76-3.91,25.98-3.91,30.36
				c0,0,28.64,1.88,37.87-3.76c0,0-7.67-18.31-4.38-26.6c3.29-8.29,1.56-26.29-1.41-29.1C189.63,63.85,170.38,65.99,170.38,65.99z"
				/>
			<path class="st85" d="M164.18,45.34c0,0-5.47,15.19,6.27,15.17v5.53h10.44V46.5c0,0-8.36-3.33-8.61-3.33
				C172.04,43.17,164.18,45.34,164.18,45.34z"/>
			<path class="st92" d="M170.56,65.77h1.93c-0.04-1.91,0.01-3.66,0.27-4.06c0.64-0.98,1.83-2.51,1.83-2.51
				c-0.77,0.38-4.03,0.96-4.03,0.96V65.77z"/>
			<path class="st93" d="M161.04,171.4c-1.25-10.31,2.72-31.91,5.74-46.58l-6.25,1.31c-3.6,5.79-4.85,44.23-4.85,44.23l3,0.6
				C159.46,171.12,160.25,171.26,161.04,171.4z"/>
			<path class="st94" d="M175.5,83.98c3.7-4.96,1.67-10.9,1.67-10.9L163.69,76c-0.12,0.23-0.24,0.46-0.35,0.68
				c-1.56,3.21-6.26,10.33,1.1,19.09c7.35,8.76-3.91,25.98-3.91,30.36c0,0,2.36,0.15,5.94,0.24c1.66-8.15,3.11-14.48,3.38-16.12
				c0.78-4.77-0.13-11.14-2.32-15.1C165.32,91.18,171.79,88.94,175.5,83.98z"/>
			<path class="st85" d="M118.77,66.71l29.86,28.74c1.49,1.58,3.91,1.85,5.7,0.61c8.23-5.68,29.77-21.09,20.06-26.75
				c-5.91-3.45-25.12,15.07-25.12,15.07l-26.1-19.92c0,0-0.96-3.3-1.92-3.79c-0.96-0.49-9.65-1.1-8.99-0.39
				c0.65,0.71,5.18,1.79,5.18,1.79S116.87,66.06,118.77,66.71z"/>
			<path class="st92" d="M175.27,69.92c-0.26-0.21-0.55-0.42-0.87-0.61c-5.91-3.45-25.12,15.07-25.12,15.07l-26.1-19.92
				c0,0,24.49,22.22,26.34,22.22C151.2,86.68,165.97,70.52,175.27,69.92z"/>
			<path class="st90" d="M173.66,49.19c0,0,2.32-1.57,3.77,0.75c0.86,1.39-1.11,3.08-1.99,5.09c-0.88,2.01-1.07,4.88,2.83,6.2
				c3.9,1.32-6.04,10.15-1.68,17.11c5.07,8.08,14.18,8.26,18.89,1.16c4.71-7.1,0.51-11.61-1.88-15.12
				c-2.39-3.52-0.67-3.62-0.36-6.39s-2.66-6.43-4.11-7.31c-1.45-0.88,1.31-9.73-3.96-12.68c-5.28-2.95-16.02-6.3-21.43,7.71
				C163.75,45.7,167.34,48.79,173.66,49.19z"/>
			<path class="st92" d="M197.48,232.76l-2.45,0.1l-16.42-51.27c0,0-0.53-3.44-1.09-8.8c1.63-0.01,3.27-0.06,4.9-0.15
				c0,3.4,0.17,8.2,1.04,12.57C184.74,191.62,195.03,224.87,197.48,232.76z"/>
			<path class="st92" d="M192.91,173.27c-4.41,1.38-12.2,1.61-15.09,1.64c-0.11-0.95-0.18-0.98-0.31-2.12
				c5.11-0.02,10.21-0.46,15.26-1.31C192.82,172.39,192.84,172.31,192.91,173.27z"/>
			<path class="st85" d="M162.12,173.35c0,0-1.78,4.36-1.61,8.88c0.13,3.81,3.25,39.34,4.23,50.49l-2.21-0.02l-4.1-51.11
				c0,0,0.39-4.16,1.32-10.43c4.86,0.92,9.78,1.45,14.7,1.59c-0.14,0.55-0.26,1.11-0.39,1.67
				C171.21,174.28,163.94,173.86,162.12,173.35z"/>
			<path class="st88" d="M127.45,80.14l-30.24-0.07c-0.49,0-1.01-0.4-1.15-0.89l-0.23-0.68c-0.13-0.44,0.2-0.88,0.66-0.88
				l30.59,0.07c0.31,0,0.58,0.2,0.66,0.5l0.34,1.06C128.23,79.74,127.94,80.14,127.45,80.14z"/>
			<g>
				<g>
					<path class="st91" d="M99.07,99.05l-0.28-1.04h1.79l0.28,1.04c1.64,0.32,2.76,1.51,3.27,3.41l0.12,0.44h-2.07l-0.16-0.58
						c-0.27-1-0.77-1.37-1.47-1.37c-0.7,0-0.99,0.38-0.72,1.37c0.78,2.87,5.1,3.01,6.18,6.99c0.51,1.89,0.03,3.11-1.44,3.43
						l0.28,1.02h-1.79l-0.28-1.02c-1.66-0.32-2.79-1.53-3.3-3.43l-0.26-0.96h2.07l0.3,1.1c0.27,1,0.81,1.35,1.5,1.35
						c0.7,0,1.04-0.36,0.77-1.35c-0.78-2.87-5.1-3.01-6.18-6.99C97.17,100.58,97.62,99.39,99.07,99.05z"/>
				</g>
			</g>
			<g>
				<g>
					<path class="st91" d="M111.31,108.51l-0.15-8.58h2.18l3.78,8.58h0.94l0.8,1.81h-0.94l1.01,2.3h-1.96l-1.01-2.3h-3.85
						L111.31,108.51z M114.86,107.88l-1.95-4.43l0.08,4.43H114.86z"/>
					<path class="st91" d="M120.77,108.53l0.52,1.18c0.4,0.91,0.94,1.23,1.58,1.23c0.63,0,0.89-0.33,0.49-1.23l-1.23-2.79
						c-0.4-0.91-0.95-1.25-1.59-1.25c-0.64,0-0.88,0.34-0.48,1.25l0.17,0.38h-1.89l-2.88-7.37h5.26l0.8,1.81h-3.47l1.17,3.03
						c0.1-0.6,0.54-0.93,1.33-0.93c1.47,0,2.67,1.03,3.49,2.9l1.25,2.83c0.89,2.03,0.39,3.19-1.57,3.19c-1.96,0-3.49-1.16-4.38-3.19
						l-0.46-1.05H120.77z"/>
					<path class="st91" d="M129.04,110.71l0.85,1.92h-1.92l-0.85-1.92H129.04z"/>
					<path class="st91" d="M129.4,101.6c-0.63,0-0.88,0.34-0.48,1.25l0.6,1.36h-1.89l-0.54-1.23c-0.89-2.03-0.39-3.19,1.57-3.19
						c1.96,0,3.49,1.16,4.38,3.19c1.76,3.99-1.56,5.48-0.64,7.57c0.04,0.09,0.08,0.18,0.14,0.27h3.77l0.8,1.81h-5.77l-0.69-1.56
						c-1.65-3.74,2.04-4.35,0.42-8.02C130.57,101.91,130.03,101.6,129.4,101.6z"/>
					<path class="st91" d="M138.51,108.53l0.52,1.18c0.4,0.91,0.94,1.23,1.58,1.23c0.63,0,0.89-0.33,0.49-1.23l-1.23-2.79
						c-0.4-0.91-0.95-1.25-1.59-1.25c-0.64,0-0.88,0.34-0.48,1.25l0.17,0.38h-1.89l-2.88-7.37h5.26l0.8,1.81h-3.47l1.17,3.03
						c0.1-0.6,0.54-0.93,1.33-0.93c1.47,0,2.67,1.03,3.49,2.9l1.25,2.83c0.89,2.03,0.39,3.19-1.57,3.19c-1.96,0-3.49-1.16-4.38-3.19
						l-0.46-1.05H138.51z"/>
				</g>
			</g>
		</g>
	</g>
</g>
<g>
	<g>
		<g>
			<defs>
				<path id="SVGID_155_" d="M145.56,316.54c-0.63-0.01-1.25-0.27-1.69-0.72l-7.32-7.59c-0.91-0.94-0.88-2.45,0.06-3.36
					c0.44-0.43,1.03-0.67,1.65-0.67c0.65,0,1.26,0.26,1.71,0.73l5.65,5.85l12.81-12.81c0.45-0.45,1.05-0.69,1.68-0.69
					c0.63,0,1.23,0.25,1.68,0.69c0.93,0.93,0.93,2.43,0,3.36l-14.52,14.52c-0.44,0.44-1.05,0.7-1.68,0.7"/>
			</defs>
			<clipPath id="SVGID_4_">
				<use xlink:href="#SVGID_155_"  style="overflow:visible;"/>
			</clipPath>
			<g class="st2">
				<defs>
					<rect id="SVGID_157_" x="-1388.16" y="62.57" width="2223.1" height="1621.01"/>
				</defs>
				<clipPath id="SVGID_6_">
					<use xlink:href="#SVGID_157_"  style="overflow:visible;"/>
				</clipPath>
			</g>
		</g>
	</g>
</g>
<g>
	<g>
		<defs>
			<path id="SVGID_161_" d="M735.02,142.19c0,6.53-29.35,11.82-65.56,11.82c-36.21,0-65.56-5.29-65.56-11.82
				c0-6.53,29.35-11.82,65.56-11.82C705.67,130.36,735.02,135.66,735.02,142.19"/>
		</defs>
		<clipPath id="SVGID_8_">
			<use xlink:href="#SVGID_161_"  style="overflow:visible;"/>
		</clipPath>
		<g class="st4">
			<defs>
				<rect id="SVGID_163_" x="120.68" y="-36.43" width="774.36" height="510.33"/>
			</defs>
			<clipPath id="SVGID_10_">
				<use xlink:href="#SVGID_163_"  style="overflow:visible;"/>
			</clipPath>
		</g>
	</g>
</g>
</svg>
