<?xml version="1.0" encoding="utf-8"?>
<!-- Generator: Adobe Illustrator 23.0.1, SVG Export Plug-In . SVG Version: 6.00 Build 0)  -->
<svg version="1.1" id="Capa_1" xmlns="http://www.w3.org/2000/svg" xmlns:xlink="http://www.w3.org/1999/xlink" x="0px" y="0px"
	 viewBox="0 0 254 200" style="enable-background:new 0 0 254 200;" xml:space="preserve">
<style type="text/css">
	.st0{fill-rule:evenodd;clip-rule:evenodd;fill:#685BC7;}
	.st1{clip-path:url(#SVGID_2_);}
	.st2{clip-path:url(#SVGID_4_);}
	.st3{clip-path:url(#SVGID_6_);fill:#A7A4E0;}
	.st4{clip-path:url(#SVGID_8_);}
	.st5{clip-path:url(#SVGID_10_);enable-background:new    ;}
	.st6{clip-path:url(#SVGID_12_);}
	.st7{clip-path:url(#SVGID_14_);}
	.st8{clip-path:url(#SVGID_16_);fill:#FFFFFF;}
	.st9{clip-path:url(#SVGID_18_);}
	.st10{clip-path:url(#SVGID_20_);fill:#CDEBF1;}
	.st11{clip-path:url(#SVGID_22_);}
	.st12{clip-path:url(#SVGID_24_);fill:#D0D2D3;}
	.st13{clip-path:url(#SVGID_26_);}
	.st14{clip-path:url(#SVGID_28_);fill:#3A3A2B;}
	.st15{clip-path:url(#SVGID_30_);}
	.st16{clip-path:url(#SVGID_32_);fill:#D0D2D3;}
	.st17{clip-path:url(#SVGID_34_);}
	.st18{clip-path:url(#SVGID_36_);fill:#D0D2D3;}
	.st19{clip-path:url(#SVGID_38_);}
	.st20{clip-path:url(#SVGID_40_);fill:#D0D2D3;}
	.st21{clip-path:url(#SVGID_42_);}
	.st22{clip-path:url(#SVGID_44_);fill:#D0D2D3;}
	.st23{clip-path:url(#SVGID_46_);}
	.st24{clip-path:url(#SVGID_48_);fill:#D0D2D3;}
	.st25{clip-path:url(#SVGID_50_);}
	.st26{clip-path:url(#SVGID_52_);fill:#D0D2D3;}
	.st27{clip-path:url(#SVGID_54_);}
	.st28{clip-path:url(#SVGID_56_);fill:#FFFFFF;}
	.st29{clip-path:url(#SVGID_58_);}
	.st30{clip-path:url(#SVGID_60_);fill:#9BE3BF;}
	.st31{clip-path:url(#SVGID_62_);}
	.st32{clip-path:url(#SVGID_64_);fill:#685BC7;}
	.st33{clip-path:url(#SVGID_66_);}
	.st34{clip-path:url(#SVGID_68_);fill:#9BE3BF;}
	.st35{clip-path:url(#SVGID_70_);}
	.st36{clip-path:url(#SVGID_72_);fill:#685BC7;}
	.st37{clip-path:url(#SVGID_74_);}
	.st38{clip-path:url(#SVGID_76_);fill:#9BE3BF;}
	.st39{clip-path:url(#SVGID_78_);}
	.st40{clip-path:url(#SVGID_80_);fill:#9BE3BF;}
	.st41{clip-path:url(#SVGID_82_);}
	.st42{clip-path:url(#SVGID_84_);fill:#9BE3BF;}
	.st43{clip-path:url(#SVGID_86_);}
	.st44{clip-path:url(#SVGID_88_);fill:#685BC7;}
	.st45{clip-path:url(#SVGID_90_);}
	.st46{clip-path:url(#SVGID_92_);fill:#685BC7;}
	.st47{clip-path:url(#SVGID_94_);}
	.st48{clip-path:url(#SVGID_96_);fill:#685BC7;}
	.st49{clip-path:url(#SVGID_98_);}
	.st50{clip-path:url(#SVGID_100_);fill:#685BC7;}
	.st51{clip-path:url(#SVGID_102_);}
	.st52{clip-path:url(#SVGID_104_);fill:#685BC7;}
	.st53{clip-path:url(#SVGID_106_);}
	.st54{clip-path:url(#SVGID_108_);fill:#39207C;}
	.st55{clip-path:url(#SVGID_110_);}
	.st56{clip-path:url(#SVGID_112_);fill:#514AA5;}
	.st57{clip-path:url(#SVGID_114_);}
	.st58{clip-path:url(#SVGID_116_);fill:#9BE3BF;}
	.st59{clip-path:url(#SVGID_118_);}
	.st60{clip-path:url(#SVGID_120_);fill:#6FC190;}
	.st61{clip-path:url(#SVGID_122_);}
	.st62{clip-path:url(#SVGID_124_);fill:#685BC7;}
	.st63{clip-path:url(#SVGID_126_);}
	.st64{clip-path:url(#SVGID_128_);fill:#39207C;}
	.st65{clip-path:url(#SVGID_130_);}
	.st66{clip-path:url(#SVGID_132_);fill:#9BE3BF;}
	.st67{clip-path:url(#SVGID_134_);}
	.st68{clip-path:url(#SVGID_136_);fill:#6FC190;}
	.st69{clip-path:url(#SVGID_138_);}
	.st70{fill:#A7A4E0;}
	.st71{fill:#F42534;}
	.st72{fill:#39207C;}
	.st73{opacity:0.5;}
	.st74{clip-path:url(#SVGID_140_);}
	.st75{opacity:0.44;fill:#E6E7E8;}
	.st76{fill:#9BE3BF;}
	.st77{fill:#6FC190;}
	.st78{fill:#E6E7E8;}
	.st79{fill:#685BC7;}
	.st80{fill:#CE3232;}
	.st81{fill:#7A7ACC;}
	.st82{fill:#201E68;}
	.st83{fill:#D1D4FC;}
	.st84{clip-path:url(#SVGID_142_);}
	.st85{fill:#A59DE3;}
	.st86{fill:#FFFFFF;}
	.st87{fill:#D8D4DF;}
	.st88{fill:#514A95;}
	.st89{fill:#7327BC;}
	.st90{fill:#442D68;}
	.st91{fill:#8BD3AF;}
	.st92{fill:#7F7FC6;}
	.st93{fill:#2E1B54;}
	.st94{fill:#279F5E;}
	.st95{clip-path:url(#SVGID_144_);}
	.st96{fill:#514AA5;}
	.st97{opacity:0.3;fill:#856AEA;}
	.st98{fill:#F1C40F;}
	.st99{fill:#26D07C;}
	.st100{opacity:0.83;}
	.st101{opacity:0.68;fill:#39207C;}
	.st102{opacity:0.3;fill:#39207C;}
	.st103{opacity:0.7;fill:#9E88ED;}
	.st104{clip-path:url(#SVGID_146_);}
	.st105{opacity:0.2;fill:#764582;}
	.st106{fill:#918ECA;}
	.st107{fill:#514A8F;}
	.st108{fill:none;stroke:#FFFFFF;stroke-width:0.9734;stroke-miterlimit:10;}
	.st109{fill:#9D68AA;}
	.st110{fill:#7F7FC0;}
	.st111{fill-rule:evenodd;clip-rule:evenodd;fill:#7F7FC0;}
	.st112{fill-rule:evenodd;clip-rule:evenodd;fill:#918ECA;}
	.st113{fill-rule:evenodd;clip-rule:evenodd;fill:#BBBED5;}
	.st114{fill-rule:evenodd;clip-rule:evenodd;fill:#27995E;}
	.st115{fill-rule:evenodd;clip-rule:evenodd;fill:#6FAB80;}
	.st116{fill-rule:evenodd;clip-rule:evenodd;fill:#85CDA9;}
	.st117{fill-rule:evenodd;clip-rule:evenodd;fill:#808080;}
	.st118{fill-rule:evenodd;clip-rule:evenodd;fill:#BABCBD;}
	.st119{fill-rule:evenodd;clip-rule:evenodd;fill:#E1E1E1;}
	.st120{fill-rule:evenodd;clip-rule:evenodd;fill:#39207C;}
	.st121{fill-rule:evenodd;clip-rule:evenodd;fill:#9895A4;}
	.st122{fill-rule:evenodd;clip-rule:evenodd;fill:#FFFFFF;}
	.st123{fill-rule:evenodd;clip-rule:evenodd;fill:#685BB1;}
	.st124{clip-path:url(#SVGID_148_);enable-background:new    ;}
	.st125{clip-path:url(#SVGID_150_);}
	.st126{clip-path:url(#SVGID_152_);}
	.st127{clip-path:url(#SVGID_154_);fill:#A7A4E0;}
	.st128{clip-path:url(#SVGID_156_);}
	.st129{clip-path:url(#SVGID_158_);fill:#FFFFFF;}
	.st130{fill:url(#SVGID_159_);}
	.st131{fill:#9794D0;}
	.st132{fill:none;stroke:#A59DE3;stroke-width:5;stroke-miterlimit:10;}
	.st133{fill:url(#SVGID_160_);}
	.st134{clip-path:url(#SVGID_162_);}
	.st135{clip-path:url(#SVGID_164_);fill:#F7F7F7;}
	.st136{fill:#7F7FD6;}
	.st137{fill:#D0D2D3;}
	.st138{fill:#EEEEEE;}
	.st139{fill:#A6A8AB;}
	.st140{fill:#016867;}
	.st141{fill:#FEFDFD;}
	.st142{clip-path:url(#SVGID_166_);}
	.st143{opacity:0.46;}
	.st144{clip-path:url(#SVGID_168_);}
	.st145{fill:#575756;}
	.st146{fill:none;stroke:#39207C;stroke-miterlimit:10;}
	.st147{clip-path:url(#SVGID_170_);}
	.st148{clip-path:url(#SVGID_172_);}
	.st149{clip-path:url(#SVGID_174_);}
	.st150{fill:#F1F1F2;}
	.st151{fill:#F05A28;}
	.st152{clip-path:url(#SVGID_176_);}
	.st153{clip-path:url(#SVGID_178_);fill:#7F7FD6;}
</style>
<g>
	<g>
		<defs>
			<circle id="SVGID_141_" cx="127" cy="-132" r="84.04"/>
		</defs>
		<clipPath id="SVGID_2_">
			<use xlink:href="#SVGID_141_"  style="overflow:visible;"/>
		</clipPath>
		<g class="st1">
			<path class="st85" d="M179.09-74.17c0.51-1.51,1.45-3.17,2.17-5.09h-18.04c-3.5,15.16-4.78,28.85-4.78,28.85l4.1,51.11l7.23,0.08
				c0.61-7.07,0.71-29.84,2.91-50.1C173.84-60.08,177.58-69.67,179.09-74.17z"/>
			<g>
				<path class="st85" d="M193.4-74.17c0.37-1.42,0.67-3.17,0.91-5.09h-18.04c0.24,15.16,2.35,28.85,2.35,28.85l16.42,51.27
					l7.09-0.3c0.62-4.94-5.67-31.43-8.48-51.82C192.18-61.85,192.59-71.06,193.4-74.17z"/>
				<path class="st89" d="M202.24,0.56l0.57,4.92c0,1.44-1.05,2.62-2.35,2.62h-17.07c-0.92,0-1.27-1.33-0.5-1.88
					c2.26-1.62,9.72-3.95,12.09-5.56L202.24,0.56z"/>
			</g>
			<path class="st89" d="M169.96,0.56l0.57,4.92c0,1.44-1.05,2.62-2.35,2.62H151.1c-0.92,0-1.27-1.33-0.5-1.88
				c2.26-1.62,9.72-3.95,12.09-5.56L169.96,0.56z"/>
			<path class="st92" d="M197.48,0.76l-2.45,0.1l-16.42-51.27c0,0-0.53-3.44-1.09-8.8c1.63-0.01,3.27-0.06,4.9-0.15
				c0,3.4,0.17,8.2,1.04,12.57C184.74-40.38,195.03-7.13,197.48,0.76z"/>
			<path class="st85" d="M162.12-58.65c0,0-1.78,4.36-1.61,8.88c0.13,3.81,3.25,39.34,4.23,50.49l-2.21-0.02l-4.1-51.11
				c0,0,0.39-4.16,1.32-10.43c4.86,0.92,9.78,1.45,14.7,1.59c-0.14,0.55-0.26,1.11-0.39,1.67
				C171.21-57.72,163.94-58.14,162.12-58.65z"/>
		</g>
	</g>
</g>
<g>
	<circle class="st0" cx="124.6" cy="100.32" r="81.32"/>
	<g>
		<defs>
			<circle id="SVGID_145_" cx="124.6" cy="100.32" r="81.32"/>
		</defs>
		<clipPath id="SVGID_4_">
			<use xlink:href="#SVGID_145_"  style="overflow:visible;"/>
		</clipPath>
		<g class="st2">
			<path class="st105" d="M224.39,149.5H32.14c-0.72,0-1.03-0.9-0.47-1.35l28.79-23c0.62-0.49,1.4-0.76,2.22-0.76h131.17
				c0.81,0,1.6,0.27,2.22,0.76l28.79,23C225.42,148.6,225.11,149.5,224.39,149.5z"/>
			<g>
				<path class="st106" d="M223.65,140.1H32.88l29.58-23.63c0.6-0.48,1.36-0.74,2.15-0.74h127.3c0.79,0,1.55,0.26,2.15,0.74
					L223.65,140.1z"/>
				<polygon class="st107" points="204.74,137.98 51.79,137.98 73.32,117.84 183.21,117.84 				"/>
				<polygon class="st86" points="202.87,137.98 53.67,137.98 74.67,118.7 181.86,118.7 				"/>
				<path class="st107" d="M219.33,146.44H37.21c-2.39,0-4.33-1.94-4.33-4.33v-2.01h190.77v2.01
					C223.65,144.5,221.72,146.44,219.33,146.44z"/>
				<line class="st108" x1="32.88" y1="142.56" x2="223.65" y2="142.56"/>
				<path class="st72" d="M97.4,144.42H70.48c-0.63,0-1.14-0.51-1.14-1.14v-1.06c0-0.63,0.51-1.14,1.14-1.14H97.4
					c0.63,0,1.14,0.51,1.14,1.14v1.06C98.54,143.91,98.03,144.42,97.4,144.42z"/>
				<path class="st106" d="M97.53,144.42H70.35c-0.56,0-1.01-0.45-1.01-1.01v-0.94c0-0.56,0.45-1.01,1.01-1.01h27.18
					c0.56,0,1.01,0.45,1.01,1.01v0.94C98.54,143.96,98.09,144.42,97.53,144.42z"/>
				<g>
					<polygon class="st109" points="190.63,121.54 201.47,131.12 207.28,131.12 207.28,130.36 190.63,120.78 					"/>
					<polygon class="st110" points="190.63,120.78 201.47,130.36 207.28,130.36 195.23,120.78 					"/>
				</g>
				<ellipse class="st86" cx="58.23" cy="125.35" rx="4.56" ry="1.99"/>
				<path class="st107" d="M61.42,125.2c0,0.69-1.43,1.24-3.19,1.24c-1.76,0-3.19-0.56-3.19-1.24c0-0.69,1.43-1.24,3.19-1.24
					C59.99,123.96,61.42,124.52,61.42,125.2z"/>
				<path class="st86" d="M58.61,124.92c0,0.24-0.49,0.43-1.1,0.43s-1.1-0.19-1.1-0.43c0-0.24,0.49-0.43,1.1-0.43
					S58.61,124.69,58.61,124.92z"/>
			</g>
		</g>
		<g class="st2">
			<g>
				<path class="st111" d="M131.86,84.68l14.51-0.02c0.53,0,0.96-0.43,0.96-0.96l-0.03-16.77c0-0.53-0.43-0.96-0.96-0.96
					l-14.51,0.02c-0.53,0-0.96,0.43-0.96,0.96l0.03,16.77C130.9,84.25,131.33,84.68,131.86,84.68z"/>
				<path class="st112" d="M129.62,84.68l14.51-0.02c0.53,0,0.96-0.43,0.96-0.96l-0.03-16.77c0-0.53-0.43-0.96-0.96-0.96
					l-14.51,0.02c-0.53,0-0.96,0.43-0.96,0.96l0.03,16.77C128.66,84.25,129.09,84.68,129.62,84.68z"/>
				<path class="st113" d="M142.46,65.97l-12.87,0.02c-0.53,0-0.96,0.43-0.96,0.96l0.02,15.32l12.87-0.02
					c0.53,0,0.96-0.43,0.96-0.96L142.46,65.97z"/>
			</g>
			<g>
				<path class="st114" d="M105.54,106.55l27.72-0.04c1.01,0,1.84-0.83,1.83-1.84l-0.05-32.06c0-1.01-0.83-1.84-1.84-1.83
					l-27.72,0.04c-1.01,0-1.84,0.83-1.83,1.84l0.05,32.06C103.7,105.72,104.53,106.55,105.54,106.55z"/>
				<path class="st115" d="M101.27,106.55l27.72-0.04c1.01,0,1.84-0.83,1.83-1.84l-0.05-32.06c0-1.01-0.83-1.84-1.84-1.83
					l-27.72,0.04c-1.01,0-1.84,0.83-1.83,1.84l0.05,32.06C99.43,105.73,100.26,106.55,101.27,106.55z"/>
				<path class="st116" d="M125.8,70.78l-24.59,0.04c-1.01,0-1.84,0.83-1.83,1.84l0.04,29.27l24.59-0.04c1.01,0,1.84-0.83,1.83-1.84
					L125.8,70.78z"/>
			</g>
			<g>
				<path class="st117" d="M113.47,106.53l24.93-0.04c0.6,0,1.1-0.49,1.1-1.1l-0.03-19.14c0-0.6-0.5-1.1-1.1-1.1l-24.93,0.04
					c-0.6,0-1.1,0.5-1.1,1.1l0.03,19.14C112.37,106.04,112.87,106.53,113.47,106.53z"/>
				<path class="st118" d="M110.92,106.54l24.93-0.04c0.6,0,1.1-0.49,1.1-1.1l-0.03-19.14c0-0.6-0.5-1.1-1.1-1.1l-24.93,0.04
					c-0.6,0-1.1,0.5-1.1,1.1l0.03,19.14C109.82,106.05,110.31,106.54,110.92,106.54z"/>
				<path class="st119" d="M133.94,85.16l-23.06,0.04c-0.6,0-1.1,0.5-1.1,1.1l0.03,17.48l23.06-0.04c0.6,0,1.1-0.5,1.1-1.1
					L133.94,85.16z"/>
			</g>
			<g>
				<path class="st120" d="M81.83,70.58c-0.61,0-1.11-0.49-1.11-1.11c0-0.61,0.49-1.11,1.11-1.11l4.96-0.01
					c1.09,0,2.36,0.1,3.59,0.87c1.2,0.75,2.3,2.1,2.99,4.56c0.25,0.89,0.71,2.83,1.29,5.36l58.15-0.09c3.42-0.01,2.04,4.6,2.03,4.62
					c-0.26,1.18-3.54,15.99-4.59,19.91c-1.09,4.08-3.33,4.91-4.04,5.08c-0.1,0.03-0.21,0.05-0.32,0.05l-46.15,0.07v0
					c-0.51,0-0.97-0.36-1.08-0.88c-0.01-0.06-3.51-16.54-5.76-26.54l-1.54,0c-0.61,0-1.11-0.49-1.11-1.11
					c0-0.61,0.49-1.11,1.11-1.11l1.04,0c-0.51-2.24-0.92-3.95-1.15-4.76c-0.52-1.84-1.25-2.8-2.03-3.28
					c-0.75-0.47-1.64-0.53-2.42-0.53L81.83,70.58L81.83,70.58z M95.15,81.35c1.95,8.69,4.73,21.73,5.47,25.2l45.21-0.07
					c0.27-0.06,1.48-0.48,2.28-3.48c1.11-4.17,4.58-19.85,4.59-19.9c0.01-0.03,0.01-0.05,0.02-0.08l0,0c0-0.01,0.53-1.77,0.09-1.77
					L95.15,81.35z"/>
				<path class="st120" d="M98.62,107.66c0-0.61,0.49-1.11,1.11-1.11c0.61,0,1.11,0.49,1.11,1.11l0.01,6.25
					c0,1.47,0.29,4.98,1.85,7.38c0.86,1.32,2.13,2.3,4.03,2.29l39.54-0.06c0.61,0,1.11,0.49,1.11,1.11c0,0.61-0.49,1.11-1.11,1.11
					l-39.54,0.06c-2.79,0-4.66-1.4-5.89-3.31c-1.86-2.87-2.2-6.9-2.2-8.58L98.62,107.66z"/>
				
					<ellipse transform="matrix(0.7071 -0.7071 0.7071 0.7071 -57.132 116.1883)" class="st121" cx="111.69" cy="127.06" rx="5.51" ry="5.51"/>
				<path class="st122" d="M111.69,130.97c2.15,0,3.91-1.76,3.9-3.92c0-2.15-1.76-3.91-3.92-3.9c-2.15,0-3.91,1.76-3.9,3.92
					C107.78,129.22,109.54,130.97,111.69,130.97z"/>
				<path class="st121" d="M111.69,129.04c1.09,0,1.98-0.89,1.98-1.99c0-1.09-0.89-1.98-1.99-1.98c-1.09,0-1.98,0.89-1.98,1.99
					C109.7,128.15,110.6,129.04,111.69,129.04z"/>
				
					<ellipse transform="matrix(0.7071 -0.7071 0.7071 0.7071 -49.7409 133.9552)" class="st121" cx="136.83" cy="127.02" rx="5.51" ry="5.51"/>
				<path class="st122" d="M136.83,130.93c2.15,0,3.91-1.76,3.9-3.92c0-2.15-1.76-3.91-3.92-3.9c-2.15,0-3.91,1.76-3.9,3.92
					C132.92,129.18,134.68,130.93,136.83,130.93z"/>
				<path class="st121" d="M136.83,129c1.09,0,1.98-0.89,1.98-1.99c0-1.09-0.89-1.98-1.99-1.98c-1.09,0-1.98,0.89-1.98,1.99
					S135.74,129,136.83,129z"/>
				<path class="st120" d="M84.3,67.62c1.02,0,1.85,0.82,1.85,1.84c0,1.02-0.82,1.85-1.84,1.85l-9.14,0.01
					c-1.02,0-1.85-0.82-1.85-1.84c0-1.02,0.82-1.85,1.84-1.85L84.3,67.62z"/>
				<path class="st123" d="M95.91,90.25c-0.2,0-0.37-0.16-0.37-0.37c0-0.2,0.17-0.37,0.37-0.37l56.41-0.09
					c0.2,0,0.37,0.16,0.37,0.37c0,0.2-0.16,0.37-0.37,0.37L95.91,90.25z"/>
				<path class="st123" d="M98.05,99.61c-0.2,0-0.37-0.16-0.37-0.37c0-0.2,0.16-0.37,0.37-0.37l52.14-0.08
					c0.2,0,0.37,0.16,0.37,0.37s-0.17,0.37-0.37,0.37L98.05,99.61z"/>
				<path class="st123" d="M138.59,80.13c0.02-0.2,0.21-0.35,0.41-0.32c0.2,0.02,0.35,0.21,0.32,0.41l-3.26,27.43
					c-0.02,0.2-0.21,0.35-0.41,0.32c-0.2-0.02-0.35-0.21-0.32-0.41L138.59,80.13z"/>
				<path class="st123" d="M124.71,80.2c0-0.2,0.16-0.37,0.37-0.37c0.2,0,0.37,0.16,0.37,0.37l0.04,27.43c0,0.2-0.16,0.37-0.37,0.37
					c-0.2,0-0.37-0.16-0.37-0.37L124.71,80.2z"/>
				<path class="st123" d="M108.39,80.26c-0.02-0.2,0.12-0.39,0.32-0.41c0.2-0.02,0.39,0.12,0.41,0.32l3.35,27.42
					c0.02,0.2-0.12,0.39-0.32,0.41s-0.39-0.12-0.41-0.32L108.39,80.26z"/>
			</g>
		</g>
	</g>
	<g>
		<g>
			<defs>
				<rect id="SVGID_147_" x="126.45" y="51.23" width="45.46" height="45.46"/>
			</defs>
			<clipPath id="SVGID_6_">
				<use xlink:href="#SVGID_147_"  style="overflow:visible;"/>
			</clipPath>
			<g style="clip-path:url(#SVGID_6_);enable-background:new    ;">
				<g>
					<defs>
						<rect id="SVGID_149_" x="126.33" y="49.79" width="46.31" height="47.86"/>
					</defs>
					<clipPath id="SVGID_8_">
						<use xlink:href="#SVGID_149_"  style="overflow:visible;"/>
					</clipPath>
					<g class="st4">
						<defs>
							<path id="SVGID_151_" d="M149.18,51.23c-12.53,0-22.73,10.2-22.73,22.73c0,12.53,10.2,22.73,22.73,22.73
								c12.53,0,22.73-10.2,22.73-22.73C171.91,61.42,161.71,51.23,149.18,51.23 M161.77,69.33l-14.52,14.52
								c-0.44,0.44-1.05,0.7-1.68,0.7h-0.02c-0.63-0.01-1.25-0.27-1.69-0.73l-7.32-7.59c-0.91-0.94-0.88-2.45,0.06-3.36
								c0.44-0.43,1.03-0.67,1.65-0.67c0.65,0,1.26,0.26,1.71,0.72l5.65,5.85l12.81-12.81c0.45-0.45,1.04-0.69,1.68-0.69
								c0.63,0,1.23,0.25,1.68,0.69C162.7,66.89,162.7,68.4,161.77,69.33"/>
						</defs>
						<clipPath id="SVGID_10_">
							<use xlink:href="#SVGID_151_"  style="overflow:visible;"/>
						</clipPath>
						<g style="clip-path:url(#SVGID_10_);">
							<defs>
								<rect id="SVGID_153_" x="126.33" y="49.79" width="46.31" height="47.86"/>
							</defs>
							<clipPath id="SVGID_12_">
								<use xlink:href="#SVGID_153_"  style="overflow:visible;"/>
							</clipPath>
							<rect x="118.73" y="43.51" style="clip-path:url(#SVGID_12_);fill:#A7A4E0;" width="60.9" height="60.9"/>
						</g>
					</g>
				</g>
			</g>
		</g>
		<g>
			<defs>
				<path id="SVGID_155_" d="M145.56,84.54c-0.63-0.01-1.25-0.27-1.69-0.72l-7.32-7.59c-0.91-0.94-0.88-2.45,0.06-3.36
					c0.44-0.43,1.03-0.67,1.65-0.67c0.65,0,1.26,0.26,1.71,0.73l5.65,5.85l12.81-12.81c0.45-0.45,1.05-0.69,1.68-0.69
					c0.63,0,1.23,0.25,1.68,0.69c0.93,0.93,0.93,2.43,0,3.36l-14.52,14.52c-0.44,0.44-1.05,0.7-1.68,0.7"/>
			</defs>
			<clipPath id="SVGID_14_">
				<use xlink:href="#SVGID_155_"  style="overflow:visible;"/>
			</clipPath>
			<g class="st7">
				<defs>
					<rect id="SVGID_157_" x="-1388.16" y="-169.43" width="2223.1" height="1621.01"/>
				</defs>
				<clipPath id="SVGID_16_">
					<use xlink:href="#SVGID_157_"  style="overflow:visible;"/>
				</clipPath>
				<rect x="128.16" y="57.56" class="st8" width="42.03" height="34.7"/>
			</g>
		</g>
	</g>
</g>
<g>
	<g>
		<defs>
			<path id="SVGID_161_" d="M735.02-89.81c0,6.53-29.35,11.82-65.56,11.82c-36.21,0-65.56-5.29-65.56-11.82
				c0-6.53,29.35-11.82,65.56-11.82C705.67-101.64,735.02-96.34,735.02-89.81"/>
		</defs>
		<clipPath id="SVGID_18_">
			<use xlink:href="#SVGID_161_"  style="overflow:visible;"/>
		</clipPath>
		<g class="st9">
			<defs>
				<rect id="SVGID_163_" x="120.68" y="-268.43" width="774.36" height="510.33"/>
			</defs>
			<clipPath id="SVGID_20_">
				<use xlink:href="#SVGID_163_"  style="overflow:visible;"/>
			</clipPath>
		</g>
	</g>
</g>
</svg>
